<svg width="42" height="42" viewBox="0 0 42 42" fill="none" xmlns="http://www.w3.org/2000/svg">
<g id="Group">
<g id="Group_2">
<g id="Clip path group">
<mask id="mask0_1431_5825" style="mask-type:luminance" maskUnits="userSpaceOnUse" x="0" y="0" width="42" height="42">
<g id="SVGID_2_">
<path id="Vector" d="M42 0H0V42H42V0Z" fill="white"/>
</g>
</mask>
<g mask="url(#mask0_1431_5825)">
<path id="Vector_2" fill-rule="evenodd" clip-rule="evenodd" d="M7.81543 5.28671C8.24497 6.25318 7.81543 7.37477 6.86088 7.81625C6.16884 8.12648 5.72736 8.79466 5.72736 9.54636V36.2736C5.72736 37.3236 6.58645 38.1827 7.63645 38.1827H34.3637C35.1154 38.1827 35.7955 37.7412 36.1058 37.0611C36.5472 36.1185 37.6688 35.7009 38.6234 36.1305C39.5779 36.56 40.0075 37.6697 39.5899 38.6361C38.6592 40.6765 36.6188 42.0009 34.3637 42.0009H7.63645C4.47452 42.0009 1.90918 39.4356 1.90918 36.2736V9.54636C1.90918 7.29125 3.23361 5.25091 5.28588 4.33216C6.25236 3.90261 7.37395 4.33216 7.81543 5.28671ZM14.3183 5.72818C14.3183 4.67818 15.1774 3.81909 16.2274 3.81909H34.3637C37.5257 3.81909 40.091 6.38443 40.091 9.54636V27.6827C40.091 28.7327 39.2319 29.5918 38.1819 29.5918C37.1319 29.5918 36.2728 28.7327 36.2728 27.6827V9.54636C36.2728 8.49636 35.4137 7.63727 34.3637 7.63727H16.2274C15.1774 7.63727 14.3183 6.77818 14.3183 5.72818Z" fill="white"/>
</g>
</g>
<g id="Clip path group_2">
<mask id="mask1_1431_5825" style="mask-type:luminance" maskUnits="userSpaceOnUse" x="0" y="0" width="42" height="42">
<g id="SVGID_2__2">
<path id="Vector_3" d="M42 0H0V42H42V0Z" fill="white"/>
</g>
</mask>
<g mask="url(#mask1_1431_5825)">
<path id="Vector_4" fill-rule="evenodd" clip-rule="evenodd" d="M28.6364 0C29.6865 0 30.5455 0.859091 30.5455 1.90909V9.54545C30.5455 10.5955 29.6865 11.4545 28.6364 11.4545C27.5865 11.4545 26.7274 10.5955 26.7274 9.54545V1.90909C26.7274 0.859091 27.5865 0 28.6364 0ZM1.90918 17.1818C1.90918 16.1318 2.76827 15.2727 3.81827 15.2727H17.1819C18.2319 15.2727 19.091 16.1318 19.091 17.1818C19.091 18.2318 18.2319 19.0909 17.1819 19.0909H3.81827C2.76827 19.0909 1.90918 18.2318 1.90918 17.1818ZM25.7728 17.1818C25.7728 16.1318 26.6319 15.2727 27.6819 15.2727H38.1819C39.2319 15.2727 40.091 16.1318 40.091 17.1818C40.091 18.2318 39.2319 19.0909 38.1819 19.0909H27.6819C26.6319 19.0909 25.7728 18.2318 25.7728 17.1818Z" fill="white"/>
</g>
</g>
<g id="Clip path group_3">
<mask id="mask2_1431_5825" style="mask-type:luminance" maskUnits="userSpaceOnUse" x="0" y="0" width="42" height="42">
<g id="SVGID_2__3">
<path id="Vector_5" d="M42 0H0V42H42V0Z" fill="white"/>
</g>
</mask>
<g mask="url(#mask2_1431_5825)">
<path id="Vector_6" fill-rule="evenodd" clip-rule="evenodd" d="M0.560849 0.560445C1.30062 -0.179328 2.51767 -0.179328 3.25744 0.560445L41.4393 38.7423C42.1671 39.494 42.1552 40.6872 41.4154 41.415C40.6756 42.1548 39.4824 42.1667 38.7427 41.4389L0.560849 3.25704C-0.190856 2.51726 -0.190856 1.30022 0.560849 0.560445Z" fill="white"/>
</g>
</g>
</g>
</g>
</svg>
