<svg width="36" height="34" viewBox="0 0 36 34" fill="none" xmlns="http://www.w3.org/2000/svg">
<g id="Clip path group">
<mask id="mask0_45_18350" style="mask-type:luminance" maskUnits="userSpaceOnUse" x="0" y="0" width="36" height="34">
<g id="SVGID_2_">
<path id="Vector" d="M35.8681 0H0V34H35.8681V0Z" fill="white"/>
</g>
</mask>
<g mask="url(#mask0_45_18350)">
<path id="Vector_2" fill-rule="evenodd" clip-rule="evenodd" d="M35.4754 29.3757L20.6424 1.59659C19.5122 -0.523735 16.3644 -0.523735 15.2342 1.59659L0.391848 29.3757C-0.766394 31.5521 0.793496 33.9993 3.10064 33.9993H32.7666C35.0737 33.9993 36.6336 31.5614 35.4754 29.3757ZM17.9336 29.796C16.1869 29.796 14.7765 28.3856 14.7765 26.6389C14.7765 24.8922 16.1869 23.4818 17.9336 23.4818C19.6803 23.4818 21.0908 24.8922 21.0908 26.6389C21.0908 28.3856 19.6803 29.796 17.9336 29.796ZM21.0908 18.223C21.0908 19.9603 19.671 21.3801 17.9336 21.3801C16.1962 21.3801 14.7765 19.9603 14.7765 18.223V12.1609C14.7765 10.4235 16.1962 9.00374 17.9336 9.00374C19.671 9.00374 21.0908 10.4235 21.0908 12.1609V18.223Z" fill="white"/>
</g>
</g>
</svg>
