<svg width="66" height="63" viewBox="0 0 66 63" fill="none" xmlns="http://www.w3.org/2000/svg">
<path id="Vector" d="M33 0C14.7812 0 0 14.1094 0 31.5C0 48.8906 14.7812 63 33 63C51.2188 63 66 48.8906 66 31.5C66 14.1094 51.2188 0 33 0ZM42.4875 43.9195C41.0438 45.593 39.1703 46.725 36.9875 47.2828C36.0422 47.5289 35.5953 48.0047 35.6641 48.9562C35.6984 49.8914 35.6641 50.8102 35.6469 51.7453C35.6469 52.582 35.2 53.0086 34.3406 53.0414C33.7906 53.0578 33.2234 53.0742 32.6734 53.0742C32.1922 53.0742 31.6938 53.0742 31.2125 53.0578C30.2844 53.0414 29.8547 52.5328 29.8547 51.6797C29.8375 51.007 29.8375 50.318 29.8375 49.6453C29.8203 48.1359 29.7687 48.0867 28.2562 47.857C26.3312 47.5617 24.4234 47.1516 22.6531 46.3312C21.2609 45.6914 21.1234 45.3633 21.5187 43.9523C21.8109 42.9188 22.1203 41.8852 22.4469 40.8516C22.6875 40.0969 22.9281 39.7687 23.3406 39.7687C23.5813 39.7687 23.8906 39.8836 24.3203 40.0969C26.2797 41.0648 28.3594 41.6063 30.5422 41.8687C30.9031 41.9016 31.2813 41.9344 31.6422 41.9344C32.6562 41.9344 33.6531 41.7539 34.6156 41.3438C37.0391 40.3266 37.4344 37.6523 35.3719 36.0445C34.6844 35.5031 33.8766 35.093 33.0516 34.7484C30.9203 33.8461 28.7031 33.1734 26.6922 32.025C23.4266 30.1547 21.3641 27.6117 21.6047 23.8219C21.8797 19.5398 24.4234 16.8656 28.5312 15.4547C30.2328 14.8641 30.25 14.8805 30.25 13.1906C30.25 12.6164 30.2328 12.0422 30.2672 11.468C30.3016 10.2047 30.525 9.975 31.8484 9.94219H33.3953C35.9219 9.94219 35.9219 10.0406 35.9391 12.6492C35.9562 14.5687 35.9562 14.5687 37.95 14.8641C39.4797 15.0938 40.9406 15.5203 42.35 16.1273C43.1234 16.4555 43.4156 16.9641 43.175 17.768C42.8141 18.9328 42.4875 20.1141 42.1094 21.2625C41.8688 21.968 41.6281 22.2797 41.1984 22.2797C40.9578 22.2797 40.6484 22.1813 40.2703 22.0008C38.3109 21.0984 36.2656 20.6555 34.1172 20.6555C33.8422 20.6555 33.5672 20.6719 33.2922 20.6883C32.6562 20.7211 32.0375 20.8031 31.4359 21.0492C29.3219 21.9352 28.9781 24.1664 30.7828 25.5281C31.6938 26.2336 32.7422 26.7258 33.8078 27.1523C35.6812 27.8906 37.5547 28.5961 39.3422 29.5312C44.9453 32.5172 46.4578 39.3094 42.4875 43.9195Z" fill="white" fill-opacity="0.5"/>
</svg>
