<svg width="55" height="65" viewBox="0 0 55 65" fill="none" xmlns="http://www.w3.org/2000/svg">
<g id="Group">
<path id="Vector" d="M31.5013 43.1813C31.2643 42.9105 30.9596 42.7243 30.638 42.555C29.944 42.1995 29.1992 41.9795 28.4375 41.7764V47.5824C29.6562 47.4469 31.0612 47.0068 31.6875 45.8727C31.9922 45.3311 32.0599 44.6709 31.9245 44.0615C31.8737 43.723 31.7383 43.4183 31.5013 43.1813Z" fill="#C4C4C4"/>
<g id="Group_2">
<g id="Clip path group">
<mask id="mask0_1421_5487" style="mask-type:luminance" maskUnits="userSpaceOnUse" x="0" y="0" width="55" height="65">
<g id="SVGID_2_">
<path id="Vector_2" d="M54.1667 0H0V65H54.1667V0Z" fill="white"/>
</g>
</mask>
<g mask="url(#mask0_1421_5487)">
<path id="Vector_3" d="M22.7331 33.888C22.53 34.1927 22.3946 34.5482 22.3607 34.9036C22.3269 35.2591 22.3438 35.6823 22.4792 36.0378C22.6146 36.3763 22.8854 36.6133 23.1901 36.8164C23.5118 37.0365 23.8672 37.2057 24.2396 37.3581C24.5443 37.4766 24.8828 37.5951 25.2552 37.7135V32.4492C24.3073 32.6354 23.2917 33.0586 22.7331 33.888ZM31.7214 45.8216C31.7214 45.8385 31.7045 45.8555 31.7045 45.8724C31.7045 45.8555 31.7045 45.8385 31.7214 45.8216Z" fill="#C4C4C4"/>
</g>
</g>
<g id="Clip path group_2">
<mask id="mask1_1421_5487" style="mask-type:luminance" maskUnits="userSpaceOnUse" x="0" y="0" width="55" height="65">
<g id="SVGID_2__2">
<path id="Vector_4" d="M54.1667 0H0V65H54.1667V0Z" fill="white"/>
</g>
</mask>
<g mask="url(#mask1_1421_5487)">
<path id="Vector_5" d="M30.4859 14.1504C35.4286 9.98638 38.7294 0.6257 36.6982 0.21945C33.9898 -0.322217 28.1331 2.0645 25.2893 2.48768C21.2607 2.97856 16.8935 -1.87951 14.4221 0.828825C12.4247 3.02935 15.8609 11.0189 21.2268 14.489C5.19686 22.3601 -17.3162 61.9017 21.9716 64.7624C76.3414 68.7234 49.1226 21.8184 30.4859 14.1504ZM35.1578 45.3132C34.9885 46.8536 34.176 48.2416 32.9573 49.1895C31.6708 50.1882 30.0458 50.6452 28.4377 50.7806V52.4903C28.4377 52.9473 28.2346 53.3874 27.8961 53.6921C27.4221 54.0984 26.745 54.2168 26.1695 53.946C25.6109 53.6921 25.2385 53.1166 25.2385 52.4903V50.6283C24.9677 50.5775 24.6969 50.5098 24.426 50.4421C22.9195 50.0359 21.5315 49.2234 20.5159 48.0385C20.0081 47.446 19.6018 46.7689 19.314 46.0411C19.2463 45.8549 19.1786 45.6517 19.1109 45.4655C19.0601 45.2963 19.0094 45.1101 18.9924 44.9239C18.9586 44.6192 19.0263 44.2976 19.1617 44.0267C19.4664 43.4681 20.0758 43.1127 20.719 43.1804C21.3453 43.2312 21.9039 43.6713 22.0901 44.2637C22.1578 44.4499 22.1917 44.6361 22.2594 44.8223C22.3271 45.0085 22.4117 45.1778 22.5133 45.3471C22.6995 45.6856 22.9364 45.9734 23.2073 46.2442C23.7659 46.7859 24.4937 47.1413 25.2385 47.3445V41.0137C23.7659 40.6413 22.2594 40.1504 21.0406 39.2025C20.4482 38.7455 19.9573 38.17 19.6187 37.5098C19.2802 36.7989 19.1279 36.0033 19.1279 35.2247C19.1279 34.4291 19.2802 33.6335 19.6018 32.9056C19.9065 32.2286 20.3635 31.6192 20.9052 31.1114C22.0901 30.028 23.6474 29.4187 25.2216 29.1986V27.4213C25.2216 26.9642 25.4247 26.5241 25.7633 26.2194C26.2372 25.8132 26.9143 25.6947 27.4898 25.9655C28.0484 26.2194 28.4208 26.795 28.4208 27.4213V29.1817C28.6239 29.2155 28.844 29.2325 29.0471 29.2833C30.5875 29.5541 32.094 30.1973 33.2281 31.3145C33.7698 31.8392 34.193 32.4655 34.5146 33.1596C34.5992 33.3458 34.6838 33.5489 34.7346 33.752C34.8023 33.9382 34.8531 34.1244 34.887 34.3275C34.9377 34.6322 34.887 34.9538 34.7515 35.2416C34.4807 35.8171 33.8713 36.1895 33.2281 36.1556C32.6018 36.1218 32.0263 35.7155 31.8062 35.14C31.7385 34.9708 31.7047 34.7846 31.637 34.5984C31.5693 34.4291 31.4846 34.2598 31.3831 34.0905C31.1799 33.7859 30.926 33.515 30.6213 33.295C29.9781 32.821 29.1995 32.5671 28.4208 32.4317V38.4916C29.3518 38.7116 30.2659 38.9486 31.1461 39.3041C32.4833 39.8288 33.7528 40.6413 34.4807 41.9109C34.2607 41.5215 34.3622 41.7077 34.4807 41.9109C34.7008 42.3002 34.5992 42.114 34.4807 41.9278C35.0901 42.9265 35.2763 44.1622 35.1578 45.3132Z" fill="#C4C4C4"/>
</g>
</g>
</g>
<path id="Vector_6" d="M31.6702 45.9062L31.6533 45.957C31.6533 45.9401 31.6702 45.9232 31.6702 45.9062Z" fill="#C4C4C4"/>
</g>
</svg>
