<svg width="53" height="45" viewBox="0 0 53 45" fill="none" xmlns="http://www.w3.org/2000/svg">
<path id="Vector" d="M31.9711 7.7298C34.4272 9.27577 36.1382 11.9081 36.4556 14.9443C37.4767 15.4318 38.6082 15.6825 39.7397 15.6825C44.031 15.6825 47.5082 12.1727 47.5082 7.84123C47.5082 3.50975 44.031 0 39.7397 0C35.4897 0 32.0401 3.45404 31.9711 7.7298ZM26.8795 23.7883C31.1708 23.7883 34.648 20.2786 34.648 15.9471C34.648 11.6156 31.1708 8.10585 26.8795 8.10585C22.5881 8.10585 19.1109 11.6156 19.1109 15.9471C19.1109 20.2786 22.5881 23.7883 26.8795 23.7883ZM30.1773 24.3175H23.5816C18.0898 24.3175 13.6329 28.8301 13.6329 34.3593V42.493L13.6467 42.6184L14.1986 42.7994C19.4283 44.4568 23.9818 45 27.7212 45C35.0344 45 39.2705 42.8969 39.5327 42.7577L40.057 42.493H40.1122V34.3593C40.126 28.8301 35.6691 24.3175 30.1773 24.3175ZM43.0375 16.2256H36.497C36.428 18.7744 35.3655 21.1978 33.5441 22.9526C38.415 24.415 41.9888 28.9833 41.9888 34.3733V36.8802C48.4465 36.6435 52.1721 34.7911 52.4205 34.6657L52.9448 34.4011H53V26.2535C52.9862 20.7242 48.5293 16.2256 43.0375 16.2256ZM13.2466 15.6825C14.7644 15.6825 16.1856 15.2368 17.3861 14.4708C17.7587 12.0195 19.0557 9.80501 21.0013 8.28691C21.0151 8.1337 21.0289 7.99443 21.0289 7.84123C21.0151 3.50975 17.5379 0 13.2466 0C8.95522 0 5.478 3.50975 5.478 7.84123C5.478 12.1727 8.95522 15.6825 13.2466 15.6825ZM20.2286 22.9526C18.4072 21.1978 17.3447 18.7883 17.2757 16.2535C17.0273 16.2396 16.7928 16.2117 16.5444 16.2117H9.94871C4.45691 16.2256 0 20.7242 0 26.2674V34.4011L0.0137985 34.5265L0.565738 34.7075C4.76048 36.0306 8.51367 36.6435 11.7701 36.8384V34.3872C11.7839 28.9833 15.3439 24.415 20.2286 22.9526Z" fill="#C4C4C4"/>
</svg>
