<svg width="27" height="41" viewBox="0 0 27 41" fill="none" xmlns="http://www.w3.org/2000/svg">
<g id="Frame" clip-path="url(#clip0_45_18495)">
<g id="Group">
<g id="Group_2">
<g id="Clip path group">
<mask id="mask0_45_18495" style="mask-type:luminance" maskUnits="userSpaceOnUse" x="0" y="0" width="27" height="41">
<g id="SVGID_2_">
<path id="Vector" d="M27 0.424805H0V40.9248H27V0.424805Z" fill="white"/>
</g>
</mask>
<g mask="url(#mask0_45_18495)">
<path id="Vector_2" d="M23.0126 23.3746C28.2544 18.1328 28.2544 9.60039 23.0126 4.35859C17.7708 -0.883203 9.22783 -0.883203 3.98604 4.35859C-1.25576 9.60039 -1.25576 18.1328 3.98604 23.3746C6.21143 25.5895 9.0169 26.8762 11.9173 27.2137V31.7172H8.75322C7.87783 31.7172 7.17119 32.4238 7.17119 33.2992C7.17119 34.1746 7.87783 34.8813 8.75322 34.8813H11.9173V39.3426C11.9173 40.218 12.6239 40.9246 13.4993 40.9246C14.3747 40.9246 15.0814 40.218 15.0814 39.3426V34.8813H18.2454C19.1208 34.8813 19.8274 34.1746 19.8274 33.2992C19.8274 32.4238 19.1208 31.7172 18.2454 31.7172H15.0814V27.2137C17.9817 26.8762 20.7872 25.6 23.0126 23.3746ZM6.22197 21.1387C2.21416 17.1309 2.21416 10.6023 6.22197 6.59453C10.2298 2.58672 16.7583 2.58672 20.7767 6.59453C24.7845 10.6023 24.7845 17.1309 20.7767 21.1387C16.7583 25.1465 10.2403 25.1465 6.22197 21.1387Z" fill="white" fill-opacity="0.8"/>
</g>
</g>
</g>
</g>
</g>
<defs>
<clipPath id="clip0_45_18495">
<rect width="27" height="40.5" fill="white" transform="translate(0 0.424805)"/>
</clipPath>
</defs>
</svg>
