<svg width="65" height="68" viewBox="0 0 65 68" fill="none" xmlns="http://www.w3.org/2000/svg">
<g id="Group">
<g id="Group_2">
<g id="Clip path group">
<mask id="mask0_45_17341" style="mask-type:luminance" maskUnits="userSpaceOnUse" x="0" y="0" width="65" height="68">
<g id="SVGID_2_">
<path id="Vector" d="M65 0H0V67.549H65V0Z" fill="white"/>
</g>
</mask>
<g mask="url(#mask0_45_17341)">
<path id="Vector_2" d="M56.382 66.9186H63.9235C64.516 66.9186 65.0008 66.4323 65.0008 65.8379V51.0131C65.0008 50.4187 64.516 49.9323 63.9235 49.9323H56.382C55.197 49.9323 54.2273 50.905 54.2273 52.0939H51.3903C49.882 52.0939 48.3917 51.8057 46.9912 51.2653L42.5561 49.518C42.4843 49.482 42.3945 49.464 42.3226 49.446L31.7287 47.9149C29.8434 47.6447 28.0837 48.9056 27.7066 50.7609C27.3475 52.6163 28.4787 54.4536 30.2743 54.9399L34.7633 56.1648L32.7522 56.8313H27.545L14.9939 52.6343C13.8986 52.256 12.6776 52.5442 11.8517 53.3728C11.1514 54.0753 10.8461 55.03 10.9898 56.0027C11.1334 56.9754 11.726 57.804 12.5878 58.2544L25.929 65.3515C26.0188 65.4055 26.1265 65.4416 26.2163 65.4596L35.4635 67.3149C35.5354 67.3329 35.6072 67.3329 35.679 67.3329C35.7688 67.3329 35.8586 67.3329 35.9304 67.2969L44.9981 65.0633C45.9318 64.8291 46.9014 64.721 47.871 64.721H54.2094C54.2094 65.9639 55.179 66.9186 56.382 66.9186ZM56.382 52.0939H62.8461V64.7571H56.382V52.0939ZM47.889 62.5955C46.7398 62.5955 45.6086 62.7396 44.5133 63.0098L35.679 65.1894L26.8088 63.4061L13.5934 56.381C13.342 56.2369 13.1624 56.0027 13.1265 55.7145C13.0906 55.4263 13.1804 55.1381 13.3779 54.9219C13.6293 54.6698 13.9884 54.5797 14.3116 54.6878L27.0243 58.9389C27.132 58.9749 27.2577 58.9929 27.3655 58.9929H32.9138C33.0395 58.9929 33.1472 58.9749 33.255 58.9389L38.8033 57.0835C39.2522 56.9394 39.5575 56.5071 39.5395 56.0207C39.5215 55.5524 39.1983 55.1381 38.7494 55.012L30.8309 52.8504C30.1127 52.6523 29.6638 51.9138 29.8075 51.1932C29.9511 50.4547 30.6514 49.9323 31.4055 50.0404L41.8917 51.5355L46.2191 53.2467C47.871 53.9132 49.6307 54.2374 51.4083 54.2374H54.2273V62.5775L47.889 62.5955Z" fill="#E793B8"/>
</g>
</g>
</g>
<path id="Vector_3" d="M58.5365 59.805H60.6912V61.9666H58.5365V59.805ZM31.6028 16.5737C22.1042 16.5737 14.3652 24.3373 14.3652 33.8662C14.3652 40.2969 17.8846 46.1511 23.5586 49.1593L24.5641 47.2499C19.6083 44.638 16.502 39.4683 16.5199 33.8662C16.5199 25.5262 23.2893 18.7352 31.6028 18.7352C39.9163 18.7352 46.6857 25.5262 46.6857 33.8662C46.6857 38.1713 44.8542 42.2783 41.658 45.1424L43.0945 46.7456C46.7395 43.4672 48.8404 38.7658 48.8404 33.8482C48.8404 24.3193 41.1014 16.5557 31.6028 16.5557V16.5737Z" fill="#E793B8"/>
<path id="Vector_4" d="M26.7546 36.4596V37.1081C26.7546 39.3057 28.4065 41.107 30.5253 41.3772V43.0524H32.68V41.3772C34.7988 41.107 36.4507 39.3057 36.4507 37.1081C36.4507 34.7124 34.5294 32.785 32.1413 32.785H31.064C29.8789 32.785 28.9093 31.8123 28.9093 30.6234C28.9093 29.4345 29.8789 28.4618 31.064 28.4618H32.1413C33.3264 28.4618 34.296 29.4345 34.296 30.6234V31.2719H36.4507V30.6234C36.4507 28.4258 34.7988 26.6245 32.68 26.3543V24.6791H30.5253V26.3543C28.4065 26.6245 26.7546 28.4258 26.7546 30.6234C26.7546 33.0191 28.6759 34.9465 31.064 34.9465H32.1413C33.3264 34.9465 34.296 35.9193 34.296 37.1081C34.296 38.297 33.3264 39.2697 32.1413 39.2697H31.064C29.8789 39.2697 28.9093 38.297 28.9093 37.1081V36.4596H26.7546ZM18.0101 9.00772C17.5971 8.84561 17.1482 8.93567 16.843 9.24189L15.3167 10.773L4.65099 0.0732422L3.12475 1.60435L14.5626 13.0787C14.9756 13.493 15.6759 13.493 16.0888 13.0787L16.5377 12.6284V16.5912H12.5695L13.0184 16.1409C13.2159 15.9428 13.3236 15.6726 13.3236 15.3663C13.3236 15.0601 13.198 14.8079 13.0184 14.5918L1.59851 3.13546L0.0722656 4.66657L10.738 15.3663L9.21177 16.8974C8.90652 17.2037 8.81674 17.672 8.97834 18.0683C9.13995 18.4646 9.53497 18.7348 9.96591 18.7348H17.5971C18.1897 18.7348 18.6745 18.2484 18.6745 17.654V9.99844C18.6745 9.56613 18.4231 9.16984 18.0101 9.00772ZM46.3803 18.4286L59.2007 5.56723L58.6441 8.68349L60.7629 9.06176L61.912 2.55905C61.9839 2.2168 61.8582 1.85654 61.6068 1.60435C61.3554 1.35217 60.9963 1.24409 60.6551 1.29813L54.1731 2.45097L54.5502 4.57651L57.6565 4.0181L44.8361 16.8794L46.3803 18.4286Z" fill="#E793B8"/>
</g>
</svg>
