<svg width="45" height="45" viewBox="0 0 45 45" fill="none" xmlns="http://www.w3.org/2000/svg">
<g id="Frame" clip-path="url(#clip0_1431_5747)">
<g id="Group">
<g id="Group_2">
<g id="Clip path group">
<mask id="mask0_1431_5747" style="mask-type:luminance" maskUnits="userSpaceOnUse" x="0" y="0" width="45" height="45">
<g id="SVGID_2_">
<path id="Vector" d="M45 0H0V45H45V0Z" fill="white"/>
</g>
</mask>
<g mask="url(#mask0_1431_5747)">
<path id="Vector_2" d="M17.034 36.8071C9.42799 35.1685 3.91304 28.3329 3.91304 20.5435C3.91304 11.3723 11.3723 3.91304 20.5435 3.91304C28.3329 3.91304 35.1685 9.42799 36.8071 17.034C37.0272 18.0856 38.0788 18.7582 39.1304 18.538C40.1821 18.3057 40.8546 17.2663 40.6345 16.2147C38.6168 6.82337 30.1671 0 20.5435 0C9.22011 0 0 9.22011 0 20.5435C0 30.1671 6.82337 38.6168 16.2147 40.6345C17.2663 40.8668 18.3057 40.1821 18.538 39.1304C18.7704 38.0666 18.0978 37.0272 17.034 36.8071Z" fill="white"/>
</g>
</g>
<g id="Clip path group_2">
<mask id="mask1_1431_5747" style="mask-type:luminance" maskUnits="userSpaceOnUse" x="0" y="0" width="45" height="45">
<g id="SVGID_2__2">
<path id="Vector_3" d="M45 0H0V45H45V0Z" fill="white"/>
</g>
</mask>
<g mask="url(#mask1_1431_5747)">
<path id="Vector_4" d="M18.5873 8.8044V18.587H12.7177C11.6416 18.5992 10.7734 19.4674 10.7734 20.5435C10.7734 21.6196 11.6416 22.4878 12.7177 22.5001H20.5438C21.6199 22.5001 22.5003 21.6196 22.5003 20.5435V8.8044C22.4881 7.72831 21.6199 6.86011 20.5438 6.86011C19.4677 6.86011 18.5995 7.72831 18.5873 8.8044ZM32.2829 19.5653C25.2762 19.5653 19.5656 25.2636 19.5656 32.2827C19.5656 39.2895 25.2762 45.0001 32.2829 45.0001C39.2897 45.0001 45.0003 39.3017 45.0003 32.2827C45.0003 25.2636 39.2897 19.5653 32.2829 19.5653ZM32.2829 41.087C28.7245 41.087 25.5085 38.9471 24.1512 35.6577C22.7938 32.3683 23.5397 28.5775 26.0588 26.0585C28.5778 23.5395 32.3685 22.7813 35.6579 24.1509C38.9474 25.5082 41.0873 28.7242 41.0873 32.2827C41.0873 37.1373 37.1376 41.087 32.2829 41.087Z" fill="white"/>
</g>
</g>
</g>
<path id="Vector_5" d="M32.2827 25.4348C31.2066 25.4348 30.3262 26.3152 30.3262 27.3913V32.2826C30.3262 32.8085 30.5218 33.3098 30.8887 33.6767C31.2555 34.0435 31.7569 34.2514 32.2827 34.2514C32.8085 34.2514 33.2976 34.0435 33.6767 33.6767C34.0436 33.3098 34.2514 32.8085 34.2392 32.2826V27.3913C34.2392 26.3152 33.3588 25.4348 32.2827 25.4348Z" fill="white"/>
<path id="Vector_6" d="M34.2392 37.1738C34.2392 38.2499 33.3588 39.1303 32.2827 39.1303C31.2066 39.1303 30.3262 38.2499 30.3262 37.1738C30.3262 36.0977 31.2066 35.2173 32.2827 35.2173C33.3588 35.2173 34.2392 36.0977 34.2392 37.1738Z" fill="white"/>
</g>
</g>
<defs>
<clipPath id="clip0_1431_5747">
<rect width="45" height="45" fill="white"/>
</clipPath>
</defs>
</svg>
