<svg width="38" height="38" viewBox="0 0 38 38" fill="none" xmlns="http://www.w3.org/2000/svg">
<g id="Frame" clip-path="url(#clip0_45_18490)">
<g id="Group">
<path id="Vector" d="M37.9053 1.37281C37.8855 1.23454 37.8559 1.10615 37.8065 0.977754V0.967878C37.7472 0.839486 37.6781 0.72097 37.5892 0.612331C37.5695 0.582702 37.5497 0.562949 37.53 0.53332C37.4411 0.434557 37.3423 0.335794 37.2238 0.256784C37.2238 0.256784 37.2139 0.256784 37.2139 0.246908C37.1053 0.177773 36.9868 0.118516 36.8584 0.0790104C36.8287 0.0691341 36.7991 0.0592578 36.7596 0.0493815C36.6312 0.0296289 36.4929 0 36.3448 0H25.2833C24.4142 0 23.7031 0.711094 23.7031 1.58021C23.7031 2.44932 24.4142 3.16042 25.2833 3.16042H32.5325L23.1007 12.5923C20.5822 10.5775 17.4909 9.48125 14.2219 9.48125C6.38009 9.48125 0 15.8613 0 23.7031C0 31.5449 6.38009 37.925 14.2219 37.925C22.0637 37.925 28.4438 31.5449 28.4438 23.7031C28.4438 20.444 27.3475 17.3428 25.3327 14.8243L34.7646 5.39246V12.6417C34.7646 13.5108 35.4757 14.2219 36.3448 14.2219C37.2139 14.2219 37.925 13.5108 37.925 12.6417V1.58021C37.925 1.55058 37.9151 1.51107 37.9151 1.48145C37.9151 1.45182 37.9053 1.41231 37.9053 1.37281ZM14.2219 34.7646C8.11832 34.7646 3.16042 29.8067 3.16042 23.7031C3.16042 17.5996 8.11832 12.6417 14.2219 12.6417C17.1749 12.6417 19.96 13.7873 22.0439 15.8712C24.1278 17.965 25.2833 20.7501 25.2833 23.7031C25.2833 29.8067 20.3254 34.7646 14.2219 34.7646Z" fill="white" fill-opacity="0.8"/>
</g>
</g>
<defs>
<clipPath id="clip0_45_18490">
<rect width="37.925" height="37.925" fill="white"/>
</clipPath>
</defs>
</svg>
