<svg width="106" height="106" viewBox="0 0 106 106" fill="none" xmlns="http://www.w3.org/2000/svg">
<g id="Group">
<g id="Clip path group">
<mask id="mask0_45_18395" style="mask-type:luminance" maskUnits="userSpaceOnUse" x="0" y="0" width="106" height="106">
<g id="SVGID_2_">
<path id="Vector" d="M105.637 27.9986L27.998 0L-0.000547577 77.6386L77.6381 105.637L105.637 27.9986Z" fill="white"/>
</g>
</mask>
<g mask="url(#mask0_45_18395)">
<path id="Vector_2" d="M15.0129 39.2991C14.0746 39.3034 13.2944 40.0731 13.3189 41.0187L13.3236 44.1734L23.8598 39.2223L15.0129 39.2991ZM13.3709 66.7869L13.3985 81.2824C13.3942 81.7378 13.5808 82.1707 13.8993 82.4912C14.0853 82.6725 14.2858 82.8133 14.5284 82.9008C14.7104 82.9664 14.9272 82.9989 15.131 83.0039L20.9519 82.9554L13.3709 66.7869ZM86.4827 80.7923L86.4312 64.2091L69.0176 72.3919L76.2119 72.3361C77.1576 72.3115 77.9474 73.099 77.9517 74.0373C77.9561 74.9757 77.1888 75.7728 76.2505 75.7771L67.1317 75.8473C66.9279 75.8424 66.7313 75.8172 66.5292 75.7443C65.8822 75.5109 65.4012 74.8805 65.3919 74.146C65.3992 74.1258 65.3992 74.1258 65.3992 74.1258L46.9402 82.7999L84.7814 82.5321C85.727 82.5076 86.487 81.7307 86.4827 80.7923ZM95.6704 54.175L79.1237 18.9626C78.7229 18.1098 77.6918 17.7379 76.839 18.1387L10.8157 49.1637C9.9629 49.5644 9.59105 50.5956 9.99179 51.4484L26.5385 86.6608C26.7324 87.0734 27.0711 87.4012 27.4957 87.5543C27.9203 87.7075 28.383 87.6915 28.8159 87.5049L94.8391 56.4799C95.6992 56.0589 96.0638 55.048 95.6704 54.175ZM30.7771 51.6557L21.974 55.7923C21.1212 56.1931 20.0901 55.8212 19.6893 54.9684C19.2886 54.1156 19.6604 53.0845 20.5132 52.6837L29.3163 48.5471C30.1692 48.1463 31.2003 48.5182 31.601 49.371C32.0018 50.2238 31.6372 51.2347 30.7771 51.6557ZM57.9623 63.767C56.3942 64.5038 54.6406 64.4883 52.922 63.8685C50.0712 62.8405 47.2545 60.134 45.4706 56.3376C44.1649 53.5591 43.6117 50.595 43.9059 48.0051C44.2416 45.1102 45.6058 42.9747 47.7038 41.972C49.8221 40.9766 52.3295 41.3097 54.7723 42.8989C56.9539 44.3254 58.8826 46.6431 60.1883 49.4216C63.0856 55.5158 62.0888 61.8279 57.9623 63.767ZM85.1343 52.9801L76.3312 57.1167C75.4784 57.5175 74.4473 57.1456 74.0465 56.2928C73.6458 55.44 74.0176 54.4089 74.8704 54.0081L83.6735 49.8715C84.5264 49.4707 85.5575 49.8426 85.9582 50.6954C86.359 51.5482 85.9944 52.5591 85.1343 52.9801Z" fill="#5B4589" fill-opacity="0.5"/>
</g>
</g>
</g>
</svg>
