<svg width="99" height="134" viewBox="0 0 99 134" fill="none" xmlns="http://www.w3.org/2000/svg">
<g id="Frame" clip-path="url(#clip0_1439_5970)">
<g id="Group">
<g id="Group_2">
<g id="Clip path group">
<mask id="mask0_1439_5970" style="mask-type:luminance" maskUnits="userSpaceOnUse" x="-36" y="0" width="135" height="134">
<g id="SVGID_2_">
<path id="Vector" d="M98.6544 35.4246L0.423828 0L-35.0008 98.2306L63.2298 133.655L98.6544 35.4246Z" fill="white"/>
</g>
</mask>
<g mask="url(#mask0_1439_5970)">
<path id="Vector_2" d="M-16.0043 49.7228C-17.1915 49.7282 -18.1786 50.702 -18.1476 51.8984L-18.1416 55.8898L-4.8109 49.6256L-16.0043 49.7228ZM-18.0818 84.5012L-18.0469 102.841C-18.0523 103.417 -17.8162 103.965 -17.4132 104.371C-17.178 104.6 -16.9242 104.778 -16.6173 104.889C-16.387 104.972 -16.1128 105.013 -15.8549 105.019L-8.49017 104.958L-18.0818 84.5012ZM74.4212 102.221L74.3561 81.2396L52.3239 91.5928L61.4264 91.5221C62.6228 91.491 63.6222 92.4874 63.6277 93.6746C63.6331 94.8618 62.6624 95.8703 61.4752 95.8758L49.9379 95.9646C49.68 95.9583 49.4313 95.9265 49.1755 95.8342C48.3569 95.539 47.7484 94.7414 47.7366 93.8121C47.7459 93.7865 47.7459 93.7865 47.7459 93.7865L24.391 104.761L72.2687 104.422C73.4652 104.391 74.4267 103.408 74.4212 102.221ZM86.0457 68.5442L65.1104 23.9925C64.6034 22.9135 63.2988 22.443 62.2198 22.95L-21.3147 62.2037C-22.3937 62.7108 -22.8642 64.0154 -22.3572 65.0944L-1.42183 109.646C-1.17649 110.168 -0.747899 110.583 -0.210699 110.777C0.326497 110.97 0.911914 110.95 1.45959 110.714L84.9941 71.4604C86.0823 70.9278 86.5435 69.6487 86.0457 68.5442ZM3.94101 65.3566L-7.19692 70.5905C-8.2759 71.0975 -9.58053 70.627 -10.0876 69.548C-10.5946 68.469 -10.1241 67.1644 -9.04512 66.6574L2.09282 61.4236C3.1718 60.9165 4.47643 61.387 4.98345 62.466C5.49048 63.545 5.02922 64.824 3.94101 65.3566ZM38.3365 80.6802C36.3525 81.6125 34.1337 81.5929 31.9593 80.8087C28.3524 79.508 24.7887 76.0836 22.5316 71.2804C20.8797 67.765 20.1797 64.0147 20.552 60.7379C20.9767 57.0752 22.7027 54.3733 25.3571 53.1046C28.0372 51.8453 31.2096 52.2666 34.3003 54.2774C37.0606 56.0822 39.5009 59.0147 41.1528 62.5301C44.8186 70.2407 43.5574 78.2269 38.3365 80.6802ZM72.7152 67.0323L61.5773 72.2661C60.4983 72.7732 59.1937 72.3027 58.6867 71.2237C58.1796 70.1447 58.6501 68.8401 59.7291 68.3331L70.867 63.0992C71.946 62.5922 73.2507 63.0627 73.7577 64.1417C74.2647 65.2207 73.8035 66.4997 72.7152 67.0323Z" fill="white" fill-opacity="0.4"/>
</g>
</g>
</g>
</g>
</g>
<defs>
<clipPath id="clip0_1439_5970">
<rect width="104.423" height="104.423" fill="white" transform="translate(0.423828) rotate(19.8307)"/>
</clipPath>
</defs>
</svg>
