<svg width="73" height="73" viewBox="0 0 73 73" fill="none" xmlns="http://www.w3.org/2000/svg">
<g id="Group">
<path id="Vector" d="M53.4383 41.7089C54.1607 41.7089 54.75 42.2982 54.75 43.0206V44.3323H56.0617C58.2099 44.3513 59.9589 46.0813 59.9589 48.2484C59.9589 48.9708 59.3885 49.5602 58.6661 49.5602C58.324 49.5602 57.9818 49.4271 57.7346 49.18C57.4875 48.9328 57.3544 48.5906 57.3544 48.2484C57.3544 47.9063 57.2214 47.5641 56.9742 47.3169C56.7271 47.0698 56.4039 46.9367 56.0427 46.9367H50.8148C50.4727 46.9367 50.1305 47.0698 49.8833 47.3169C49.6362 47.5641 49.5031 47.8872 49.5031 48.2484V50.8529C49.5031 51.5943 50.0734 52.1646 50.8148 52.1646H56.0427C58.1909 52.1646 59.9398 53.9135 59.9398 56.0617V58.6661C59.9398 60.8143 58.1909 62.5633 56.0427 62.5823H54.75V63.894C54.75 64.6164 54.1607 65.2057 53.4383 65.2057C52.7159 65.2057 52.1266 64.6164 52.1266 63.894V62.5823H50.8148C48.6667 62.5633 46.9177 60.8333 46.8987 58.6661C46.8987 58.324 47.0318 57.9818 47.2789 57.7346C47.526 57.4875 47.8492 57.3544 48.2104 57.3544C48.9328 57.3544 49.5221 57.9438 49.5221 58.6661C49.5221 59.4076 50.0924 59.9779 50.8339 59.9779H56.0617C56.4039 59.9779 56.7461 59.8448 56.9932 59.5977C57.2404 59.3505 57.3734 59.0273 57.3734 58.6661V56.0617C57.3734 55.7195 57.2404 55.3773 56.9932 55.1302C56.7461 54.8831 56.4229 54.75 56.0617 54.75H50.8339C48.6857 54.731 46.9367 53.001 46.9177 50.8529V48.2484C46.9177 46.1003 48.6857 44.3323 50.8339 44.3323H52.1456V43.0206C52.1266 42.2982 52.7159 41.7089 53.4383 41.7089ZM31.2721 2.64245V6.52057C31.2721 7.24297 31.8615 7.83229 32.5839 7.83229C33.3062 7.83229 33.8956 7.24297 33.8956 6.52057V2.64245C40.9484 2.9276 47.6591 5.70312 52.849 10.4747L50.0924 13.2313C49.8453 13.4784 49.6932 13.8206 49.6932 14.1628C49.6932 14.524 49.8263 14.8471 50.0734 15.1133C50.3206 15.3604 50.6628 15.4935 51.024 15.4935C51.3852 15.4935 51.7083 15.3414 51.9555 15.0753L54.693 12.3188C59.7688 17.8508 62.5823 25.0747 62.5633 32.5839C62.5633 33.7435 62.4872 34.9031 62.3732 36.0438C59.6167 34.618 56.556 33.8766 53.4383 33.8766C42.6594 33.8766 33.8766 42.6404 33.8766 53.4383C33.8766 56.651 34.656 59.6927 36.0438 62.3542C27.394 63.3807 18.7253 60.5672 12.3188 54.674L15.0753 51.9175C15.5695 51.4042 15.5695 50.5867 15.0753 50.0734C14.8281 49.8263 14.5049 49.6932 14.1438 49.6932C13.8016 49.6932 13.4784 49.8453 13.2313 50.0734L10.4747 52.849C5.70312 47.6591 2.9276 40.9294 2.62344 33.8766H6.50156C7.22396 33.8766 7.79427 33.2872 7.81328 32.5839C7.81328 31.8615 7.22396 31.2721 6.50156 31.2721H2.62344C2.90859 24.2193 5.70312 17.5086 10.4747 12.3188L13.2313 15.0753C13.4784 15.3224 13.8016 15.4555 14.1438 15.4555C14.4859 15.4555 14.8091 15.3224 15.0562 15.0753C15.3034 14.8281 15.4365 14.5049 15.4365 14.1438C15.4365 13.7826 15.3034 13.4594 15.0562 13.2122L12.3188 10.4747C17.5086 5.72214 24.2383 2.9276 31.2721 2.64245ZM32.5839 0C14.6 0 0 14.619 0 32.6029C0 50.5677 14.6 65.1867 32.5839 65.1867C34.2758 65.1867 35.9107 65.0536 37.5266 64.8065C41.0815 69.7682 46.8797 73 53.4383 73C64.2362 73 73 64.2362 73 53.4383C73 46.8797 69.7682 41.0815 64.8065 37.5266C65.0536 35.9107 65.1867 34.2568 65.1867 32.5839C65.1677 14.619 50.5677 0 32.5839 0Z" fill="#5B4589" fill-opacity="0.5"/>
<path id="Vector_2" d="M32.5835 10.4365C31.8611 10.4365 31.2908 11.0258 31.2717 11.7292V27.5459C29.4467 28.0212 28.002 29.466 27.5267 31.291H15.6262C14.9038 31.291 14.3145 31.8803 14.3145 32.6027C14.3145 33.3251 14.9038 33.8954 15.6262 33.8954H27.5267C28.135 36.1956 30.2072 37.7925 32.5835 37.7925C35.454 37.7925 37.7923 35.4542 37.7923 32.5837C37.7923 30.1693 36.1194 28.1162 33.8762 27.5269V11.7292C33.8762 11.387 33.7431 11.0449 33.496 10.8167C33.2678 10.5696 32.9256 10.4365 32.5835 10.4365Z" fill="#5B4589" fill-opacity="0.5"/>
</g>
</svg>
