<svg width="72" height="72" viewBox="0 0 72 72" fill="none" xmlns="http://www.w3.org/2000/svg">
<g id="Group">
<path id="Vector" d="M36.7125 33.9C36.5625 34.1625 36.3187 34.35 36.0375 34.425C35.7562 34.5 35.4375 34.4625 35.175 34.3125L29.475 31.0313C29.1187 30.825 28.9125 30.45 28.9125 30.0563V21.525C28.9125 20.9063 29.4187 20.4 30.0375 20.4C30.6562 20.4 31.1625 20.9063 31.1625 21.525V29.4L36.3 32.3625C36.5625 32.5125 36.75 32.7563 36.825 33.0375C36.9187 33.3375 36.8625 33.6375 36.7125 33.9ZM30.0563 15.1875C30.675 15.1875 31.1813 14.6813 31.1813 14.0625V12.1125C31.1813 11.4938 30.675 10.9875 30.0563 10.9875C29.4375 10.9875 28.9313 11.4938 28.9313 12.1125V14.0625C28.9313 14.6813 29.4375 15.1875 30.0563 15.1875ZM41.9437 16.575L40.575 17.9438C40.3687 18.15 40.2375 18.45 40.2375 18.7313C40.2375 19.0125 40.35 19.3125 40.575 19.5188C40.7812 19.725 41.0813 19.8563 41.3625 19.8563C41.6625 19.8563 41.9438 19.7438 42.15 19.5188L43.5188 18.15C43.95 17.7188 43.95 17.0063 43.5188 16.5563C43.0875 16.1438 42.375 16.1438 41.9437 16.575ZM17.9437 40.575L16.575 41.9438C16.3687 42.15 16.2375 42.4313 16.2375 42.7313C16.2375 43.0313 16.35 43.3125 16.575 43.5188C16.8 43.7438 17.0812 43.8563 17.3625 43.8563C17.6437 43.8563 17.9438 43.7438 18.15 43.5188L19.5187 42.15C19.95 41.7 19.95 41.0063 19.5187 40.575C19.0875 40.1438 18.3937 40.1438 17.9437 40.575ZM18.1688 16.575C17.7375 16.1438 17.025 16.1438 16.575 16.575C16.3687 16.7813 16.2375 17.0813 16.2375 17.3625C16.2375 17.6625 16.35 17.9438 16.575 18.15L17.9437 19.5188C18.1687 19.7438 18.45 19.8563 18.7313 19.8563C19.0125 19.8563 19.3125 19.7438 19.5187 19.5188C19.725 19.3125 19.8563 19.0125 19.8563 18.7313C19.8563 18.45 19.7437 18.15 19.5187 17.9438L18.1688 16.575ZM46.05 31.1813H48C48.6188 31.1813 49.125 30.675 49.125 30.0563C49.125 29.4375 48.6188 28.9313 48 28.9313H46.05C45.4313 28.9313 44.925 29.4375 44.925 30.0563C44.925 30.675 45.4313 31.1813 46.05 31.1813ZM14.0625 28.9313H12.1125C11.4937 28.9313 10.9875 29.4375 10.9875 30.0563C10.9875 30.675 11.4937 31.1813 12.1125 31.1813H14.0625C14.6812 31.1813 15.1875 30.675 15.1875 30.0563C15.1875 29.4375 14.6812 28.9313 14.0625 28.9313ZM72 42.5438V49.9125C72 51.4125 71.3813 52.7438 70.1625 53.8875V66.9563C70.1625 69.2438 68.3063 71.1 66.0188 71.1H34.4437C32.1562 71.1 30.3 69.2438 30.3 66.9563V60.0938C30.225 60.0938 30.1313 60.0938 30.0563 60.0938C22.0312 60.0938 14.475 56.9625 8.8125 51.3C3.13125 45.6375 0 38.0813 0 30.0563C0 13.4813 13.4813 0 30.0563 0C46.6313 0 60.1125 13.4813 60.1125 30.0563C60.1125 32.3625 59.85 34.65 59.325 36.8813C59.3812 37.1625 59.4187 37.4625 59.4187 37.7625V39.8625H69.3375C70.8 39.8813 72 41.0813 72 42.5438ZM69.3188 42.1313H62.1L62.1187 46.0313C62.1187 46.8375 61.8188 47.6063 61.2375 48.1875C60.6562 48.7688 59.8875 49.0875 59.0625 49.0875H41.3812C39.6937 49.0875 38.325 47.7188 38.3063 46.0313L38.2875 42.1125H31.125C30.9 42.1125 30.6937 42.3 30.6937 42.5438V49.9125C30.6937 50.8875 31.1438 51.7125 32.1188 52.5188C32.3625 52.725 32.6437 52.9125 32.9437 53.1188C35.0625 54.45 39.75 55.4438 45.6 55.7813C46.3125 53.925 48.1125 52.5938 50.2125 52.5938C52.3125 52.5938 54.1125 53.925 54.825 55.7813C60.675 55.4438 65.3625 54.45 67.4812 53.1188C67.7812 52.9313 68.0625 52.725 68.3062 52.5375C69.2812 51.7313 69.7312 50.9062 69.7312 49.9313V42.5625C69.75 42.3188 69.5625 42.1313 69.3188 42.1313ZM47.55 57.525C47.55 59.0063 48.75 60.2063 50.2312 60.2063C51.7125 60.2063 52.9125 59.0063 52.9125 57.525C52.9125 56.0438 51.7125 54.8438 50.2312 54.8438C48.75 54.8438 47.55 56.0438 47.55 57.525ZM51.4688 30.0563C51.4688 18.2438 41.8688 8.64375 30.0563 8.64375C18.2438 8.64375 8.64375 18.2438 8.64375 30.0563C8.64375 41.4 17.5125 50.7 28.6875 51.4125C28.5375 50.925 28.4625 50.4375 28.4625 49.9125V42.5438C28.4625 41.0625 29.6625 39.8625 31.1438 39.8625H41.0625V37.7625C41.0625 35.3625 43.0125 33.4125 45.4125 33.4125H51.2063C51.375 32.3063 51.4688 31.1813 51.4688 30.0563ZM54.3 38.5125H46.1625V39.8625H54.3V38.5125ZM40.5375 42.1313L40.5563 46.0313C40.5563 46.4813 40.9312 46.8563 41.3812 46.8563H59.0625C59.2875 46.8563 59.4938 46.7625 59.6438 46.6125C59.7938 46.4625 59.8875 46.2563 59.8687 46.05L59.85 42.1313H40.5375ZM57.1687 39.8813V37.7813C57.1687 36.6188 56.2313 35.6813 55.0688 35.6813H45.4125C44.25 35.6813 43.3125 36.6188 43.3125 37.7813V39.8813H43.9313V37.7813C43.9313 36.9563 44.6063 36.2813 45.4313 36.2813H55.0875C55.9125 36.2813 56.5875 36.9563 56.5875 37.7813V39.8813H57.1687ZM30.3 57.8625V53.8875C30.2438 53.8313 30.1688 53.775 30.1125 53.7C30.0938 53.7 30.075 53.7 30.0563 53.7C17.0063 53.7 6.39375 43.0875 6.39375 30.0375C6.39375 16.9875 17.0063 6.375 30.0563 6.375C43.1063 6.375 53.7188 16.9875 53.7188 30.0375C53.7188 31.1625 53.6438 32.2875 53.475 33.3938H55.05C55.95 33.3938 56.8125 33.675 57.5437 34.1813C57.75 32.8125 57.8438 31.425 57.8438 30.0375C57.8625 14.7188 45.3938 2.25 30.0563 2.25C14.7188 2.25 2.25 14.7188 2.25 30.0563C2.25 45.3938 14.7188 57.8625 30.0563 57.8625C30.1313 57.8625 30.225 57.8625 30.3 57.8625ZM67.9125 66.975V55.4625C65.2875 56.7563 60.75 57.675 55.1438 58.0125C54.9 60.5063 52.8 62.4563 50.2312 62.4563C47.6812 62.4563 45.5625 60.5063 45.3187 58.0125C39.7125 57.675 35.175 56.7563 32.55 55.4438V66.9563C32.55 68.0063 33.3937 68.85 34.4437 68.85H66.0188C67.05 68.8688 67.9125 68.0063 67.9125 66.975Z" fill="#E793B8"/>
</g>
</svg>
