<svg width="66" height="66" viewBox="0 0 66 66" fill="none" xmlns="http://www.w3.org/2000/svg">
<g id="Group">
<g id="Group_2">
<g id="Clip path group">
<mask id="mask0_45_17367" style="mask-type:luminance" maskUnits="userSpaceOnUse" x="0" y="0" width="66" height="66">
<g id="SVGID_2_">
<path id="Vector" d="M66 0H0V66H66V0Z" fill="white"/>
</g>
</mask>
<g mask="url(#mask0_45_17367)">
<path id="Vector_2" d="M46.2 26.4C45.4609 26.4 44.7219 26.4516 44 26.5375V3.3C44 1.47813 42.5219 0 40.7 0H9.71094C8.83438 0 7.99219 0.34375 7.37344 0.979687L0.979687 7.37344C0.34375 7.99219 0 8.83438 0 9.71094V56.1C0 57.9219 1.47813 59.4 3.3 59.4H31.4875C35.9734 64.3844 42.6594 66.7734 49.2937 65.725C55.9109 64.6766 61.5656 60.3625 64.2984 54.2438C67.0312 48.125 66.4812 41.0266 62.8203 35.4062C59.1594 29.7859 52.9031 26.4 46.2 26.4ZM7.7 3.74687V6.6C7.7 7.20156 7.20156 7.7 6.6 7.7H3.74687L7.7 3.74687ZM3.3 57.2C2.69844 57.2 2.2 56.7016 2.2 56.1V9.9H6.6C8.42188 9.9 9.9 8.42188 9.9 6.6V2.2H40.7C41.3016 2.2 41.8 2.69844 41.8 3.3V26.9156C40.3219 27.2594 38.8953 27.7578 37.5375 28.4281C40.0641 21.6219 37.5031 13.9734 31.3844 10.0719C25.2656 6.17031 17.2563 7.0125 12.1344 12.1516C6.99531 17.2906 6.13594 25.3 10.0547 31.4016C13.9734 37.5031 21.6047 40.0641 28.4109 37.5547C25.3 43.8797 25.7984 51.3734 29.7344 57.2172H3.3V57.2ZM30.7656 33.8422C25.8672 37.3656 19.1984 37.0906 14.5922 33.1719L23.5641 24.2H36.2656C36.0766 26.5719 35.2344 28.8406 33.8422 30.7656C32.7078 31.6766 31.6766 32.7078 30.7656 33.8422ZM24.2 9.95156C30.6109 10.5016 35.6984 15.5891 36.2484 22H24.2V9.95156ZM22 21.3125L11.8422 16.2422C14.025 12.65 17.8062 10.3125 22 9.95156V21.3125ZM10.8453 18.2016L21.2437 23.3922L13.0281 31.6078C9.86563 27.8953 9.02344 22.7391 10.8453 18.2016ZM46.2 63.8C39.0844 63.8 32.6562 59.5203 29.9406 52.9375C27.2078 46.3547 28.7203 38.7922 33.7562 33.7562C38.7922 28.7203 46.3547 27.225 52.9375 29.9406C59.5203 32.6562 63.8 39.0844 63.8 46.2C63.7828 55.9109 55.9109 63.7828 46.2 63.8Z" fill="#E793B8"/>
</g>
</g>
<g id="Clip path group_2">
<mask id="mask1_45_17367" style="mask-type:luminance" maskUnits="userSpaceOnUse" x="0" y="0" width="66" height="66">
<g id="SVGID_2__2">
<path id="Vector_3" d="M66 0H0V66H66V0Z" fill="white"/>
</g>
</mask>
<g mask="url(#mask1_45_17367)">
<path id="Vector_4" d="M46.1994 30.8003C39.9775 30.8003 34.3572 34.5472 31.9681 40.305C29.5791 46.0628 30.9025 52.68 35.3025 57.08C39.7025 61.48 46.3369 62.8034 52.0775 60.4144C57.8353 58.0253 61.5822 52.4222 61.5822 46.1831C61.5822 37.6925 54.7072 30.8175 46.1994 30.8003ZM46.1994 59.4003C40.8541 59.4003 36.0416 56.1862 33.9963 51.2534C31.9509 46.3206 33.0853 40.6487 36.8494 36.8675C40.6306 33.0862 46.3025 31.969 51.2353 34.0144C56.1681 36.0597 59.3822 40.8722 59.3822 46.2175C59.3994 53.4878 53.4869 59.4003 46.1994 59.4003Z" fill="#E793B8"/>
</g>
</g>
<g id="Clip path group_3">
<mask id="mask2_45_17367" style="mask-type:luminance" maskUnits="userSpaceOnUse" x="0" y="0" width="66" height="66">
<g id="SVGID_2__3">
<path id="Vector_5" d="M66 0H0V66H66V0Z" fill="white"/>
</g>
</mask>
<g mask="url(#mask2_45_17367)">
<path id="Vector_6" d="M49.4992 41.8002C49.4992 42.4018 49.9977 42.9002 50.5992 42.9002C51.2008 42.9002 51.6992 42.4018 51.6992 41.8002C51.6992 39.1877 49.8602 36.9361 47.2992 36.4033V36.3002C47.2992 35.6986 46.8008 35.2002 46.1992 35.2002C45.5977 35.2002 45.0992 35.6986 45.0992 36.3002V36.4033C42.5383 36.9189 40.6992 39.1705 40.6992 41.8002C40.6992 44.4127 42.5383 46.6643 45.0992 47.1971V53.7111C43.793 53.2471 42.8992 52.0096 42.8992 50.6174C42.8992 50.0158 42.4008 49.5174 41.7992 49.5174C41.1977 49.5174 40.6992 50.0158 40.6992 50.6174C40.6992 53.2299 42.5383 55.4814 45.0992 56.0143V56.1174C45.0992 56.7189 45.5977 57.2174 46.1992 57.2174C46.8008 57.2174 47.2992 56.7189 47.2992 56.1174V56.0143C49.8602 55.4986 51.6992 53.2471 51.6992 50.6174C51.6992 48.0049 49.8602 45.7533 47.2992 45.2205V38.7064C48.6055 39.1705 49.4992 40.408 49.4992 41.8002ZM42.8992 41.8002C42.8992 40.408 43.793 39.1705 45.0992 38.7064V44.8939C43.793 44.4299 42.8992 43.1924 42.8992 41.8002ZM49.4992 50.6002C49.4992 51.9924 48.6055 53.2299 47.2992 53.6939V47.5064C48.6055 47.9705 49.4992 49.208 49.4992 50.6002ZM23.0992 50.6002H18.6992V42.9002C18.6992 42.2986 18.2008 41.8002 17.5992 41.8002C16.9977 41.8002 16.4992 42.2986 16.4992 42.9002V50.6002H14.2992V47.3002C14.2992 46.6986 13.8008 46.2002 13.1992 46.2002C12.5977 46.2002 12.0992 46.6986 12.0992 47.3002V50.6002H9.89922V40.7002C9.89922 40.0986 9.40078 39.6002 8.79922 39.6002C8.19766 39.6002 7.69922 40.0986 7.69922 40.7002V51.7002C7.69922 52.3018 8.19766 52.8002 8.79922 52.8002H23.0992C23.7008 52.8002 24.1992 52.3018 24.1992 51.7002C24.1992 51.0986 23.7008 50.6002 23.0992 50.6002ZM50.5992 24.2002C51.2008 24.2002 51.6992 23.7018 51.6992 23.1002V10.3643L53.1258 11.7908C53.5555 12.2033 54.243 12.2033 54.6727 11.7736C55.1023 11.3439 55.1023 10.6564 54.6898 10.2268L51.3898 6.92676C50.9602 6.49707 50.2555 6.49707 49.8258 6.92676L46.5258 10.2268C46.1133 10.6564 46.1133 11.3439 46.543 11.7736C46.9727 12.2033 47.6602 12.2033 48.0898 11.7908L49.5164 10.3643V23.1002C49.4992 23.7018 49.9977 24.2002 50.5992 24.2002ZM55.7211 25.5236C55.8758 25.6096 56.0648 25.6611 56.2367 25.6611C56.6492 25.6611 57.0102 25.4377 57.1992 25.0768L63.2492 13.8533L63.8336 15.7783C63.9711 16.2424 64.4008 16.5689 64.882 16.5689C64.9852 16.5689 65.0883 16.5518 65.1914 16.5174C65.7758 16.3455 66.1023 15.7268 65.9305 15.1424L64.5898 10.6736C64.418 10.0893 63.7992 9.7627 63.2148 9.93457L58.7461 11.2752C58.1789 11.4643 57.8523 12.0658 58.0242 12.633C58.1961 13.2002 58.7977 13.5439 59.3648 13.3721L61.2898 12.7877L55.2398 24.0111C54.9992 24.5611 55.1883 25.2314 55.7211 25.5236Z" fill="#E793B8"/>
</g>
</g>
</g>
</g>
</svg>
