<svg width="67" height="68" viewBox="0 0 67 68" fill="none" xmlns="http://www.w3.org/2000/svg">
<g id="Group">
<g id="Group_2">
<g id="Clip path group">
<mask id="mask0_45_17358" style="mask-type:luminance" maskUnits="userSpaceOnUse" x="0" y="0" width="67" height="68">
<g id="SVGID_2_">
<path id="Vector" d="M67 0H0V67.0174H67V0Z" fill="white"/>
</g>
</mask>
<g mask="url(#mask0_45_17358)">
<path id="Vector_2" d="M35.0702 3.10654C31.2142 3.10654 27.5152 3.80464 24.078 5.07867C21.5829 1.98958 17.7793 0 13.522 0C6.0543 0 -0.0175781 6.07346 -0.0175781 13.5431C-0.0175781 17.8015 1.97148 21.6061 5.05977 24.1018C3.80352 27.5225 3.1056 31.2225 3.1056 35.0794C3.1056 52.689 17.4478 67.0349 35.0702 67.0349C52.6751 67.0349 67.0173 52.7064 67.0173 35.0794C66.9999 17.435 52.6751 3.10654 35.0702 3.10654ZM2.07617 13.5431C2.07617 7.22532 7.20586 2.0943 13.522 2.0943C19.8382 2.0943 24.9853 7.22532 24.9853 13.5431C24.9853 19.8609 19.8382 24.9919 13.522 24.9919C7.20586 24.9919 2.07617 19.8609 2.07617 13.5431ZM35.0702 64.9232C18.5993 64.9232 5.19935 51.5371 5.19935 35.062C5.19935 31.746 5.75768 28.4475 6.83945 25.3061C8.81107 26.423 11.0793 27.0862 13.522 27.0862C20.9897 27.0862 27.079 21.0128 27.079 13.5431C27.079 11.1172 26.416 8.83095 25.2993 6.85882C28.3702 5.79422 31.6504 5.20083 35.0702 5.20083C51.5236 5.20083 64.9236 18.6043 64.9236 35.0794C64.9061 51.5371 51.5236 64.9232 35.0702 64.9232Z" fill="#E793B8"/>
</g>
</g>
</g>
<path id="Vector_3" d="M36.1005 31.2411V19.4956C36.1005 18.9197 35.6294 18.4485 35.0536 18.4485C34.4779 18.4485 34.0068 18.9197 34.0068 19.4956V31.2411C32.6633 31.6076 31.599 32.6722 31.2326 34.0161H21.3047C20.7289 34.0161 20.2578 34.4873 20.2578 35.0632C20.2578 35.6391 20.7289 36.1103 21.3047 36.1103H31.2326C31.7036 37.8032 33.2216 39.0424 35.0536 39.0424C37.2521 39.0424 39.0318 37.2622 39.0318 35.0632C39.0318 33.2307 37.793 31.6949 36.1005 31.2411ZM35.0536 36.9481C34.0068 36.9481 33.1693 36.0929 33.1693 35.0632C33.1693 34.0161 34.0242 33.1783 35.0536 33.1783C36.1005 33.1783 36.938 34.0335 36.938 35.0632C36.938 36.1103 36.1005 36.9481 35.0536 36.9481ZM35.0536 11.2929C35.6294 11.2929 36.1005 10.8217 36.1005 10.2458V9.53025C36.1005 8.95432 35.6294 8.4831 35.0536 8.4831C34.4779 8.4831 34.0068 8.95432 34.0068 9.53025V10.2458C34.0068 10.8217 34.4779 11.2929 35.0536 11.2929ZM35.0536 58.8335C34.4779 58.8335 34.0068 59.3047 34.0068 59.8806V60.5962C34.0068 61.1721 34.4779 61.6433 35.0536 61.6433C35.6294 61.6433 36.1005 61.1721 36.1005 60.5962V59.8806C36.1005 59.3047 35.6294 58.8335 35.0536 58.8335ZM52.362 16.2669L51.856 16.773C51.4547 17.1744 51.4547 17.8376 51.856 18.2565C52.2573 18.6579 52.9203 18.6579 53.3391 18.2565L53.8451 17.7504C54.037 17.5584 54.1591 17.2791 54.1591 16.9999C54.1591 16.7207 54.0544 16.4589 53.8451 16.2494C53.6357 16.04 53.374 15.9353 53.0948 15.9353C52.8331 15.9528 52.5539 16.0749 52.362 16.2669ZM16.7682 51.8699L16.2622 52.376C15.8609 52.7775 15.8609 53.4406 16.2622 53.8595C16.6635 54.2609 17.3266 54.2609 17.7453 53.8595L18.2513 53.3534C18.6526 52.952 18.6526 52.2888 18.2513 51.8699C17.85 51.4685 17.187 51.4685 16.7682 51.8699ZM60.5799 34.0161H59.8646C59.2888 34.0161 58.8177 34.4873 58.8177 35.0632C58.8177 35.6391 59.2888 36.1103 59.8646 36.1103H60.5799C61.1557 36.1103 61.6268 35.6391 61.6268 35.0632C61.6268 34.4873 61.1557 34.0161 60.5799 34.0161ZM10.2427 34.0161H9.52734C8.95156 34.0161 8.48047 34.4873 8.48047 35.0632C8.48047 35.6391 8.95156 36.1103 9.52734 36.1103H10.2427C10.8185 36.1103 11.2896 35.6391 11.2896 35.0632C11.2896 34.4873 10.8185 34.0161 10.2427 34.0161ZM53.3391 51.8699C52.9378 51.4685 52.2747 51.4685 51.856 51.8699C51.4547 52.2713 51.4547 52.9345 51.856 53.3534L52.362 53.8595C52.7633 54.2609 53.4263 54.2609 53.8451 53.8595C54.2464 53.4581 54.2464 52.7949 53.8451 52.376L53.3391 51.8699ZM13.7323 17.4362H10.8534C10.2776 17.4362 9.80651 17.9074 9.80651 18.4834C9.80651 19.0593 10.2776 19.5305 10.8534 19.5305H12.4935V20.2112C12.4935 20.7871 12.9646 21.2583 13.5404 21.2583C14.1161 21.2583 14.5872 20.7871 14.5872 20.2112V19.4258C16.1227 19.0418 17.2568 17.6631 17.2568 16.0226C17.2568 14.0853 15.6865 12.5146 13.7497 12.5146H13.331C12.5458 12.5146 11.9177 11.8689 11.9177 11.101C11.9177 10.3156 12.5633 9.68732 13.331 9.68732H16.2099C16.7857 9.68732 17.2568 9.21611 17.2568 8.64018C17.2568 8.06424 16.7857 7.59303 16.2099 7.59303H14.5872V6.91238C14.5872 6.33645 14.1161 5.86523 13.5404 5.86523C12.9646 5.86523 12.4935 6.33645 12.4935 6.91238V7.69774C10.9581 8.04679 9.80651 9.42554 9.80651 11.0661C9.80651 13.0033 11.3768 14.574 13.3135 14.574H13.7323C14.5174 14.574 15.1456 15.2198 15.1456 15.9877C15.163 16.7905 14.5174 17.4362 13.7323 17.4362Z" fill="#E793B8"/>
</g>
</svg>
