<svg width="71" height="71" viewBox="0 0 71 71" fill="none" xmlns="http://www.w3.org/2000/svg">
<g id="Frame" clip-path="url(#clip0_1426_5639)">
<g id="Group">
<path id="Vector" d="M35.5 0C15.9195 0 0 15.9195 0 35.5C0 55.0805 15.9195 71 35.5 71C55.0805 71 71 55.0805 71 35.5C71 15.9195 55.0805 0 35.5 0ZM52.381 53.8602C51.8263 54.4148 51.0682 54.7292 50.2917 54.7292C49.5151 54.7292 48.757 54.4148 48.2023 53.8602L33.4107 39.0685C32.856 38.5138 32.5417 37.7557 32.5417 36.9792V17.75C32.5417 16.1229 33.8729 14.7917 35.5 14.7917C37.1271 14.7917 38.4583 16.1229 38.4583 17.75V35.7589L52.381 49.6815C53.5458 50.8279 53.5458 52.7138 52.381 53.8602Z" fill="#C4C4C4"/>
</g>
</g>
<defs>
<clipPath id="clip0_1426_5639">
<rect width="71" height="71" fill="white"/>
</clipPath>
</defs>
</svg>
