<svg width="68" height="59" viewBox="0 0 68 59" fill="none" xmlns="http://www.w3.org/2000/svg">
<g id="Group">
<path id="Vector" d="M59.4406 59H7.53908C3.36079 59 0 55.6504 0 51.4452V7.55477C0 3.34958 3.34263 0 7.53908 0H59.586C63.7643 0 67.125 3.34958 67.125 7.55477V51.5909C66.9615 55.6504 63.4736 59 59.4406 59ZM7.53908 1.40173C4.17828 1.40173 1.39882 4.18698 1.39882 7.55477V51.4452C1.39882 54.7948 4.19645 57.5983 7.53908 57.5983H59.4406C62.7833 57.5983 65.5809 54.9404 65.7262 51.5909V7.55477C65.7262 4.20518 62.9286 1.40173 59.586 1.40173H7.53908Z" fill="#E793B8"/>
<path id="Vector_2" d="M7.39334 9.50291C5.86736 9.50291 4.5957 8.24681 4.5957 6.69945C4.5957 5.17029 5.84919 3.896 7.39334 3.896C8.91932 3.896 10.191 5.15209 10.191 6.69945C10.191 8.24681 8.93749 9.50291 7.39334 9.50291ZM7.39334 5.31593C6.55768 5.31593 5.99452 5.88026 5.99452 6.71766C5.99452 7.55505 6.55768 8.11938 7.39334 8.11938C8.22899 8.11938 8.79215 7.55505 8.79215 6.71766C8.79215 5.88026 8.22899 5.31593 7.39334 5.31593ZM14.9324 9.50291C13.4064 9.50291 12.1348 8.24681 12.1348 6.69945C12.1348 5.17029 13.3883 3.896 14.9324 3.896C16.4584 3.896 17.73 5.15209 17.73 6.69945C17.7119 8.24681 16.4584 9.50291 14.9324 9.50291ZM14.9324 5.31593C14.0968 5.31593 13.5336 5.88026 13.5336 6.71766C13.5336 7.55505 14.0968 8.11938 14.9324 8.11938C15.7681 8.11938 16.3312 7.55505 16.3312 6.71766C16.3312 5.88026 15.7681 5.31593 14.9324 5.31593ZM22.3262 9.50291C20.8002 9.50291 19.5285 8.24681 19.5285 6.69945C19.5285 5.17029 20.782 3.896 22.3262 3.896C23.8521 3.896 25.1238 5.15209 25.1238 6.69945C25.1056 8.24681 23.8521 9.50291 22.3262 9.50291ZM22.3262 5.31593C21.4905 5.31593 20.9273 5.88026 20.9273 6.71766C20.9273 7.55505 21.4905 8.11938 22.3262 8.11938C23.1618 8.11938 23.725 7.55505 23.725 6.71766C23.725 5.88026 23.1618 5.31593 22.3262 5.31593ZM59.5674 9.50291H29.7199C28.1758 9.50291 26.9223 8.24681 26.9223 6.69945C26.9223 5.17029 28.1758 3.896 29.7199 3.896H59.5856C61.1115 3.896 62.3832 5.15209 62.3832 6.69945C62.365 8.24681 61.1115 9.50291 59.5674 9.50291ZM29.7199 5.31593C29.0296 5.31593 28.3211 6.00769 28.3211 6.71766C28.3211 7.40942 29.0114 8.11938 29.7199 8.11938H59.5856C60.2759 8.11938 60.9844 7.42762 60.9844 6.71766C60.9844 5.88026 60.294 5.31593 59.5856 5.31593H29.7199ZM11.8623 37.4646H6.97551C6.55768 37.4646 6.28518 37.1916 6.28518 36.7729V31.8759C6.28518 31.4572 6.55768 31.1842 6.97551 31.1842H11.8623C12.2801 31.1842 12.5526 31.4572 12.5526 31.8759V36.7729C12.5526 37.1916 12.2801 37.4646 11.8623 37.4646ZM7.66583 36.0629H11.1538V32.5677H7.66583V36.0629ZM19.8192 37.4646H14.9324C14.5146 37.4646 14.2421 37.1916 14.2421 36.7729V26.8516C14.2421 26.4329 14.5146 26.1598 14.9324 26.1598H19.8192C20.237 26.1598 20.5095 26.4329 20.5095 26.8516V36.7729C20.5095 37.1916 20.237 37.4646 19.8192 37.4646ZM15.6227 36.0629H19.1107V27.5251H15.6227V36.0629ZM27.6308 37.4646H22.744C22.3262 37.4646 22.0537 37.1916 22.0537 36.7729V29.6368C22.0537 29.2181 22.3262 28.9451 22.744 28.9451H27.6308C28.0486 28.9451 28.3211 29.2181 28.3211 29.6368V36.7729C28.3211 37.1916 28.0486 37.4646 27.6308 37.4646ZM23.4343 36.0629H26.9223V30.3286H23.4343V36.0629ZM35.5695 37.4646H30.7009C30.2831 37.4646 30.0106 37.1916 30.0106 36.7729V23.6294C30.0106 23.2107 30.2831 22.9377 30.7009 22.9377H35.5877C36.0055 22.9377 36.278 23.2107 36.278 23.6294V36.7729C36.278 37.1916 35.9873 37.4646 35.5695 37.4646ZM31.3912 36.0629H34.8792V24.3212H31.3912V36.0629ZM27.2129 22.0821C26.9404 22.0821 26.7951 21.9364 26.6498 21.809C26.5044 21.5359 26.5044 21.1172 26.7951 20.826L30.7009 18.3138C30.9734 18.1681 31.3912 18.1681 31.6819 18.4594C31.8272 18.7325 31.8272 19.1512 31.5366 19.4424L27.6308 21.9546C27.4854 22.0821 27.3401 22.0821 27.2129 22.0821ZM11.4445 25.0311C11.172 25.0311 11.0266 24.8855 10.8813 24.7581C10.736 24.485 10.736 24.0663 11.1538 23.775L15.0596 21.3903C15.3321 21.2447 15.7499 21.2447 16.0406 21.6634C16.1859 21.9364 16.1859 22.3551 15.7681 22.6464L11.8623 25.0311H11.4445ZM23.0165 22.792L19.3832 22.1003C18.9654 21.9546 18.82 21.6816 18.82 21.2629C18.9654 20.8442 19.2379 20.6985 19.6557 20.6985L23.1437 21.3903C23.5615 21.5359 23.7068 21.809 23.7068 22.2277C23.5796 22.5007 23.3071 22.792 23.0165 22.792Z" fill="#E793B8"/>
<path id="Vector_3" d="M33.0625 20.698C31.3912 20.698 29.9924 19.2962 29.9924 17.6214C29.9924 15.9466 31.3912 14.5449 33.0625 14.5449C34.7338 14.5449 36.1326 15.9466 36.1326 17.6214C36.1326 19.2962 34.7338 20.698 33.0625 20.698ZM33.0625 15.9466C32.0815 15.9466 31.3912 16.6384 31.3912 17.6214C31.3912 18.6045 32.0815 19.2962 33.0625 19.2962C34.0435 19.2962 34.7338 18.6045 34.7338 17.6214C34.7338 16.6384 34.0435 15.9466 33.0625 15.9466ZM25.2509 25.7223C23.5796 25.7223 22.1808 24.3206 22.1808 22.6458C22.1808 20.971 23.5796 19.5693 25.2509 19.5693C26.9222 19.5693 28.3211 20.971 28.3211 22.6458C28.3211 24.3206 26.9222 25.7223 25.2509 25.7223ZM25.2509 20.971C24.2699 20.971 23.5796 21.6628 23.5796 22.6458C23.5796 23.6288 24.2699 24.3206 25.2509 24.3206C26.2319 24.3206 26.9222 23.6288 26.9222 22.6458C26.9222 21.6628 26.2319 20.971 25.2509 20.971ZM17.294 23.9019C15.6227 23.9019 14.2239 22.5002 14.2239 20.8254C14.2239 19.1506 15.6227 17.7489 17.294 17.7489C18.9653 17.7489 20.3642 19.1506 20.3642 20.8254C20.3642 22.5002 18.9653 23.9019 17.294 23.9019ZM17.294 19.1506C16.313 19.1506 15.6227 19.8424 15.6227 20.8254C15.6227 21.8084 16.313 22.5002 17.294 22.5002C18.275 22.5002 18.9653 21.8084 18.9653 20.8254C18.9653 19.8606 18.275 19.1506 17.294 19.1506ZM9.35529 28.5258C7.68397 28.5258 6.28516 27.1241 6.28516 25.4493C6.28516 23.7745 7.68397 22.3728 9.35529 22.3728C11.0266 22.3728 12.4254 23.7745 12.4254 25.4493C12.4254 27.1241 11.0266 28.5258 9.35529 28.5258ZM9.35529 23.7745C8.3743 23.7745 7.68397 24.4662 7.68397 25.4493C7.68397 26.4323 8.3743 27.1241 9.35529 27.1241C10.3363 27.1241 11.0266 26.4323 11.0266 25.4493C11.0266 24.4662 10.3181 23.7745 9.35529 23.7745ZM44.2349 23.3558C42.2729 23.3558 40.6016 21.681 40.6016 19.7149C40.6016 17.7489 42.2729 16.0741 44.2349 16.0741C46.1968 16.0741 47.8682 17.7489 47.8682 19.7149C47.85 21.6628 46.1787 23.3558 44.2349 23.3558ZM44.2349 17.4758C42.9814 17.4758 42.0004 18.4588 42.0004 19.7149C42.0004 20.971 42.9814 21.9541 44.2349 21.9541C45.4884 21.9541 46.4693 20.971 46.4693 19.7149C46.4512 18.4588 45.4884 17.4758 44.2349 17.4758ZM44.2349 33.1315C42.2729 33.1315 40.6016 31.4567 40.6016 29.4906C40.6016 27.5246 42.2729 25.8498 44.2349 25.8498C46.1968 25.8498 47.8682 27.5246 47.8682 29.4906C47.85 31.4567 46.1787 33.1315 44.2349 33.1315ZM44.2349 27.2697C42.9814 27.2697 42.0004 28.2527 42.0004 29.5088C42.0004 30.7649 42.9814 31.7479 44.2349 31.7479C45.4884 31.7479 46.4693 30.7649 46.4693 29.5088C46.4512 28.2345 45.4884 27.2697 44.2349 27.2697ZM44.2349 42.9254C42.2729 42.9254 40.6016 41.2506 40.6016 39.2845C40.6016 37.3184 42.2729 35.6437 44.2349 35.6437C46.1968 35.6437 47.8682 37.3184 47.8682 39.2845C47.85 41.2506 46.1787 42.9254 44.2349 42.9254ZM44.2349 37.0454C42.9814 37.0454 42.0004 38.0284 42.0004 39.2845C42.0004 40.5406 42.9814 41.5236 44.2349 41.5236C45.4884 41.5236 46.4693 40.5406 46.4693 39.2845C46.4512 38.0284 45.4884 37.0454 44.2349 37.0454ZM44.2349 52.5736C42.2729 52.5736 40.6016 50.8988 40.6016 48.9328C40.6016 46.9667 42.2729 45.2919 44.2349 45.2919C46.1968 45.2919 47.8682 46.9667 47.8682 48.9328C47.85 50.8988 46.1787 52.5736 44.2349 52.5736ZM44.2349 46.6936C42.9814 46.6936 42.0004 47.6767 42.0004 48.9328C42.0004 50.1889 42.9814 51.1719 44.2349 51.1719C45.4884 51.1719 46.4693 50.1889 46.4693 48.9328C46.4512 47.6767 45.4884 46.6936 44.2349 46.6936ZM59.9852 19.1506H50.5023C50.0845 19.1506 49.812 18.8775 49.812 18.4588C49.812 18.0401 50.0845 17.7671 50.5023 17.7671H59.9852C60.403 17.7671 60.6755 18.0401 60.6755 18.4588C60.6937 18.8775 60.403 19.1506 59.9852 19.1506ZM57.4782 21.6628H50.5023C50.0845 21.6628 49.812 21.3897 49.812 20.971C49.812 20.5523 50.0845 20.2793 50.5023 20.2793H57.4782C57.896 20.2793 58.1685 20.5523 58.1685 20.971C58.1867 21.3897 57.896 21.6628 57.4782 21.6628ZM59.9852 28.9445H50.5023C50.0845 28.9445 49.812 28.6714 49.812 28.2527C49.812 27.834 50.0845 27.561 50.5023 27.561H59.9852C60.403 27.561 60.6755 27.834 60.6755 28.2527C60.6937 28.6532 60.403 28.9445 59.9852 28.9445ZM57.4782 31.4567H50.5023C50.0845 31.4567 49.812 31.1836 49.812 30.7649C49.812 30.3462 50.0845 30.0732 50.5023 30.0732H57.4782C57.896 30.0732 58.1685 30.3462 58.1685 30.7649C58.1867 31.1836 57.896 31.4567 57.4782 31.4567ZM59.9852 38.7202H50.5023C50.0845 38.7202 49.812 38.4471 49.812 38.0284C49.812 37.6097 50.0845 37.3367 50.5023 37.3367H59.9852C60.403 37.3367 60.6755 37.6097 60.6755 38.0284C60.6937 38.4471 60.403 38.7202 59.9852 38.7202ZM57.4782 41.2506H50.5023C50.0845 41.2506 49.812 40.9775 49.812 40.5588C49.812 40.1401 50.0845 39.867 50.5023 39.867H57.4782C57.896 39.867 58.1685 40.1401 58.1685 40.5588C58.1867 40.9593 57.896 41.2506 57.4782 41.2506ZM59.9852 48.3684H50.5023C50.0845 48.3684 49.812 48.0954 49.812 47.6767C49.812 47.258 50.0845 46.9849 50.5023 46.9849H59.9852C60.403 46.9849 60.6755 47.258 60.6755 47.6767C60.6755 48.0954 60.403 48.3684 59.9852 48.3684ZM57.4782 50.8988H50.5023C50.0845 50.8988 49.812 50.6258 49.812 50.2071C49.812 49.7884 50.0845 49.5153 50.5023 49.5153H57.4782C57.896 49.5153 58.1685 49.7884 58.1685 50.2071C58.1685 50.6258 57.896 50.8988 57.4782 50.8988ZM12.6979 54.2484C9.20996 54.2484 6.28516 51.3175 6.28516 47.8223C6.28516 45.5832 7.39331 43.6353 9.08279 42.5067C9.35529 42.361 9.77312 42.361 10.0638 42.7797L12.9886 47.3854L18.1478 49.0602C18.5657 49.2058 18.711 49.6245 18.5657 49.8976C17.8572 52.428 15.4774 54.2484 12.6979 54.2484ZM9.35529 44.0358C8.3743 44.8732 7.68397 46.2749 7.68397 47.8041C7.68397 50.6076 9.91845 52.8285 12.6979 52.8285C14.5146 52.8285 16.3312 51.718 17.0215 50.025L12.2801 48.4959C12.1348 48.4959 12.0076 48.3502 11.8623 48.2228L9.35529 44.0358Z" fill="#E793B8"/>
<path id="Vector_4" d="M12.553 48.6599C12.2805 48.6599 12.1351 48.5142 11.9898 48.3868L8.91968 43.6355C8.77435 43.3624 8.77435 42.9437 9.06501 42.6525C10.046 41.9607 11.4448 41.542 12.553 41.542C14.3696 41.542 16.0409 42.2338 17.1491 43.5081C17.4216 43.7811 17.4216 44.1998 17.1491 44.4911L13.098 48.5506C12.9708 48.5142 12.6983 48.6599 12.553 48.6599ZM10.4638 43.4716L12.6983 46.8212L15.6231 43.9085C14.3696 42.9255 12.2805 42.5068 10.4638 43.4716Z" fill="#E793B8"/>
<path id="Vector_5" d="M17.8582 50.3349H17.5857L12.2811 48.5145C12.0086 48.3689 11.8633 48.2414 11.8633 47.9502C11.8633 47.6589 11.8633 47.5315 12.0086 47.2584L15.9144 43.1988C16.0597 43.0532 16.1869 43.0532 16.4776 42.9258C16.6229 42.9258 16.8954 43.0714 17.0407 43.1988C18.2942 44.6006 18.8574 46.1297 18.8574 47.6771C18.8574 48.5145 18.712 49.0788 18.5849 49.6432C18.5849 49.7888 18.4395 50.0618 18.3124 50.0618C18.1307 50.3349 18.0035 50.3349 17.8582 50.3349ZM13.8071 47.5315L17.295 48.7876C17.295 48.5145 17.4404 48.2232 17.4404 47.9502C17.4404 46.6941 16.8772 45.711 16.4594 45.0193L13.8071 47.5315ZM27.6318 54.2488C27.2139 54.2488 26.9414 53.9758 26.9414 53.5571V50.2075C26.9414 49.7888 27.2139 49.5157 27.6318 49.5157C28.4674 49.5157 29.3031 48.6783 29.3031 47.8409C29.3031 47.4222 29.5756 47.1492 29.9934 47.1492H33.336C33.7539 47.1492 34.0264 47.4222 34.0264 47.8409C34.0445 51.4454 31.2469 54.2488 27.6318 54.2488ZM28.3221 50.7536V52.7197C30.5566 52.4466 32.3732 50.6262 32.6457 48.3871H30.7019C30.2841 49.6249 29.4302 50.4623 28.3221 50.7536Z" fill="#E793B8"/>
<path id="Vector_6" d="M27.4848 54.2487C24.1422 54.2487 21.1992 51.3178 21.1992 47.8226C21.1992 47.4039 21.4717 47.1309 21.8895 47.1309H25.2503C25.6682 47.1309 25.9407 47.4039 25.9407 47.8226C25.9407 48.9331 26.7763 49.4974 27.612 49.4974C28.0298 49.4974 28.3023 49.7705 28.3023 50.1892C28.3023 50.3348 28.3023 50.4622 28.157 50.6079V53.5388C28.1751 53.9575 27.9026 54.2487 27.4848 54.2487ZM22.598 48.5144C22.8705 50.7535 24.6872 52.4283 26.7763 52.847V50.8809C25.6682 50.6079 24.8143 49.7705 24.6872 48.6418H22.598V48.5144Z" fill="#E793B8"/>
<path id="Vector_7" d="M25.2515 48.5145L22.036 48.3689C21.6182 48.3689 21.3457 48.0958 21.3457 47.6771C21.3457 44.1819 24.1433 41.3784 27.6313 41.3784C28.0491 41.3784 28.3216 41.6515 28.3216 42.0702V45.4198C28.3216 45.8385 28.0491 46.1115 27.6313 46.1115C26.7956 46.1115 25.96 46.9489 25.96 47.7863C25.96 47.932 25.8146 48.205 25.6875 48.3506C25.6693 48.3689 25.3968 48.5145 25.2515 48.5145ZM22.7445 46.9671L24.5612 47.1128C24.8337 46.0023 25.8147 45.1467 26.7956 44.8736V42.9076C24.8337 43.1988 23.017 44.8736 22.7445 46.9671Z" fill="#E793B8"/>
<path id="Vector_8" d="M33.335 48.5142H29.9924C29.5745 48.5142 29.302 48.2412 29.302 47.8225C29.302 46.9851 28.7389 46.2933 28.0485 46.2933C27.9032 46.2933 27.6307 46.2933 27.4854 46.1477C27.3401 46.002 27.2129 45.8746 27.2129 45.5833V42.2338C27.2129 41.8151 27.4854 41.542 27.9032 41.542C31.2458 41.542 34.0435 44.1998 34.1888 47.695V47.8407C34.0435 48.2412 33.771 48.5142 33.335 48.5142ZM30.5555 47.1125H32.5175C32.245 45.019 30.5555 43.3442 28.3392 42.9255V44.8916C29.5745 45.1646 30.4102 46.002 30.5555 47.1125Z" fill="#E793B8"/>
</g>
</svg>
