<svg width="66" height="66" viewBox="0 0 66 66" fill="none" xmlns="http://www.w3.org/2000/svg">
<g id="Frame" clip-path="url(#clip0_1421_5503)">
<g id="Group">
<g id="Group_2">
<g id="Clip path group">
<mask id="mask0_1421_5503" style="mask-type:luminance" maskUnits="userSpaceOnUse" x="0" y="0" width="66" height="66">
<g id="SVGID_2_">
<path id="Vector" d="M66 0L0 0L0 66L66 66L66 0Z" fill="white"/>
</g>
</mask>
<g mask="url(#mask0_1421_5503)">
<path id="Vector_2" d="M32.8925 13.028C33.559 13.0065 34.2039 13.243 34.6769 13.716L49.5967 28.6358C50.6287 29.6893 50.6932 31.3016 49.7257 32.2691L47.5114 34.4834C46.544 35.4508 44.9316 35.3863 43.8997 34.3544L37.6651 28.1199L37.6651 50.6072C37.6651 51.8756 36.7192 52.886 35.5583 52.886H30.3342C29.1733 52.886 28.2059 51.8756 28.2059 50.6072L28.2059 28.1199L21.9713 34.3544C20.9179 35.3863 19.3055 35.4508 18.3381 34.4834L16.1238 32.2691C15.1563 31.3016 15.2208 29.6893 16.2743 28.6358L31.0436 13.845C31.5381 13.3505 32.2046 13.071 32.8925 13.028ZM32.9355 0C24.2072 0 15.8228 3.48274 9.65276 9.65277C-3.20326 22.5303 -3.20326 43.3837 9.65276 56.2612C15.8228 62.4313 24.2072 65.914 32.9355 65.914C41.6638 65.914 50.0482 62.4528 56.2182 56.2612C69.0743 43.3837 69.0743 22.5303 56.2182 9.65277C50.0482 3.48274 41.6638 0 32.9355 0Z" fill="white" fill-opacity="0.5"/>
</g>
</g>
</g>
</g>
</g>
<defs>
<clipPath id="clip0_1421_5503">
<rect width="66" height="66" fill="white"/>
</clipPath>
</defs>
</svg>
