<svg width="66" height="66" viewBox="0 0 66 66" fill="none" xmlns="http://www.w3.org/2000/svg">
<g id="Frame" clip-path="url(#clip0_1431_5889)">
<g id="Group">
<g id="Group_2">
<g id="Clip path group">
<mask id="mask0_1431_5889" style="mask-type:luminance" maskUnits="userSpaceOnUse" x="0" y="0" width="66" height="66">
<g id="SVGID_2_">
<path id="Vector" d="M0 66L66 66L66 0L5.7699e-06 -5.7699e-06L0 66Z" fill="white"/>
</g>
</mask>
<g mask="url(#mask0_1431_5889)">
<path id="Vector_2" d="M33.1075 52.972C32.441 52.9935 31.7961 52.757 31.3231 52.284L16.4033 37.3642C15.3713 36.3107 15.3068 34.6984 16.2743 33.7309L18.4886 31.5166C19.456 30.5492 21.0684 30.6137 22.1003 31.6456L28.3349 37.8801L28.3349 15.3928C28.3349 14.1244 29.2808 13.114 30.4417 13.114L35.6658 13.114C36.8267 13.114 37.7942 14.1244 37.7942 15.3928L37.7941 37.8801L44.0287 31.6456C45.0821 30.6137 46.6945 30.5492 47.6619 31.5166L49.8762 33.7309C50.8437 34.6984 50.7792 36.3107 49.7257 37.3642L34.9564 52.155C34.4619 52.6495 33.7954 52.929 33.1075 52.972ZM33.0645 66C41.7928 66 50.1772 62.5173 56.3472 56.3472C69.2033 43.4697 69.2033 22.6163 56.3472 9.73876C50.1772 3.56872 41.7928 0.0859888 33.0645 0.085988C24.3362 0.0859873 15.9518 3.54723 9.78177 9.73875C-3.07426 22.6163 -3.07426 43.4697 9.78176 56.3472C15.9518 62.5173 24.3362 66 33.0645 66Z" fill="white" fill-opacity="0.5"/>
</g>
</g>
</g>
</g>
</g>
<defs>
<clipPath id="clip0_1431_5889">
<rect width="66" height="66" fill="white" transform="translate(66 66) rotate(-180)"/>
</clipPath>
</defs>
</svg>
