<svg width="78" height="72" viewBox="0 0 78 72" fill="none" xmlns="http://www.w3.org/2000/svg">
<g id="Group">
<path id="Vector" d="M39.2037 16.709V23.8703C40.9241 23.8703 42.3129 22.5375 42.3129 20.8864V19.6929C42.3129 18.0418 40.9241 16.709 39.2037 16.709ZM14.33 16.709V23.8703C12.6095 23.8703 11.2207 22.5375 11.2207 20.8864V19.6929C11.2207 18.0418 12.6095 16.709 14.33 16.709ZM0.649414 64.4509H77.7579V71.6122H0.649414V64.4509ZM25.5231 56.1955V62.0638H31.6379C31.099 59.0601 28.6531 56.7127 25.5231 56.1955Z" fill="white" fill-opacity="0.5"/>
<path id="Vector_2" d="M61.59 47.7418C61.59 49.7111 59.9111 51.3224 57.859 51.3224C55.8069 51.3224 54.1279 49.7111 54.1279 47.7418C54.1279 45.7724 55.8069 44.1611 57.859 44.1611C59.9318 44.1611 61.59 45.7724 61.59 47.7418Z" fill="white" fill-opacity="0.5"/>
<path id="Vector_3" d="M71.5394 33.4199H44.1783C42.1263 33.4199 40.4473 35.0312 40.4473 37.0006V62.0651H71.5394C73.5915 62.0651 75.2705 60.4538 75.2705 58.4844V37.0006C75.2705 35.0312 73.6122 33.4199 71.5394 33.4199ZM57.8589 53.7102C55.3508 53.7102 53.0707 52.2581 52.1172 50.0301C51.1637 47.8022 51.6819 45.2361 53.4645 43.5253C55.2471 41.8145 57.9211 41.3172 60.2426 42.2323C62.5642 43.1473 64.0773 45.3355 64.0773 47.7425C64.0773 51.0447 61.2997 53.7102 57.8589 53.7102ZM38.0843 35.807C38.0428 35.807 38.0014 35.807 37.9599 35.807H33.607V36.4038C33.607 40.0242 30.5393 42.9683 26.7667 42.9683C22.9942 42.9683 19.9265 40.0242 19.9265 36.4038V35.807H15.5736C8.71258 35.807 3.13672 41.1581 3.13672 47.7425V57.2909C3.13672 59.9366 5.35462 62.0651 8.11146 62.0651H23.0357V56.0973H11.8425C11.1585 56.0973 10.5988 55.5602 10.5988 54.9038C10.5988 54.2473 11.1585 53.7102 11.8425 53.7102H24.2794C25.9583 53.7102 27.5959 54.128 29.0676 54.9038H37.9599V37.0006C37.9599 36.6027 38.0014 36.2049 38.0843 35.807Z" fill="white" fill-opacity="0.5"/>
<path id="Vector_4" d="M32.0307 57.2903C33.1708 58.6629 33.917 60.314 34.145 62.0645H37.959V57.2903H32.0307ZM42.3119 15.2376V14.9194C42.3119 6.68387 35.3472 0 26.7658 0C18.1844 0 11.2197 6.68387 11.2197 14.9194V15.2376C12.1318 14.6409 13.2304 14.3226 14.3289 14.3226H18.8891C23.1384 14.4618 27.284 13.0097 30.4347 10.2446C30.9114 9.80699 31.5333 9.54839 32.1966 9.54839C32.238 9.54839 32.2795 9.54839 32.3002 9.54839C32.9635 9.56828 33.5853 9.86667 34.0206 10.3242L37.8139 14.3226H39.2027C40.322 14.3226 41.3998 14.6409 42.3119 15.2376ZM22.4129 35.0306V36.4032C22.4129 38.7108 24.3613 40.5806 26.7658 40.5806C29.1703 40.5806 31.1187 38.7108 31.1187 36.4032V35.0306C28.3204 36.0651 25.2112 36.0651 22.4129 35.0306Z" fill="white" fill-opacity="0.5"/>
<path id="Vector_5" d="M32.1976 11.9355C28.7153 14.999 24.1344 16.7097 19.4084 16.7097H16.8174V23.871C16.8174 29.1425 21.2739 33.4194 26.7669 33.4194C32.2598 33.4194 36.7164 29.1425 36.7164 23.871V16.7097L32.1976 11.9355Z" fill="white" fill-opacity="0.5"/>
</g>
</svg>
