<svg width="13" height="11" viewBox="0 0 13 11" fill="none" xmlns="http://www.w3.org/2000/svg">
<g id="carbon:course">
<path id="Vector" d="M9.75 10.3125H3.25C3.03458 10.3123 2.82804 10.2398 2.67571 10.1109C2.52339 9.98204 2.43772 9.80728 2.4375 9.625V1.375C2.43772 1.19272 2.52339 1.01796 2.67571 0.889065C2.82804 0.760173 3.03458 0.687682 3.25 0.6875H9.75C9.96542 0.687682 10.172 0.760173 10.3243 0.889065C10.4766 1.01796 10.5623 1.19272 10.5625 1.375V7.08744L8.53125 6.22806L6.5 7.08744V1.375H3.25V9.625H9.75V8.25H10.5625V9.625C10.5622 9.80725 10.4765 9.98196 10.3242 10.1108C10.1719 10.2397 9.96539 10.3122 9.75 10.3125ZM8.53125 5.45944L9.75 5.97506V1.375H7.3125V5.97506L8.53125 5.45944Z" fill="black"/>
</g>
</svg>
