<svg width="13" height="13" viewBox="0 0 13 13" fill="none" xmlns="http://www.w3.org/2000/svg">
<g id="ph:certificate-fill">
<path id="Vector" d="M11.7812 4.51242V2.84375C11.7812 2.62826 11.6956 2.4216 11.5433 2.26923C11.3909 2.11685 11.1842 2.03125 10.9687 2.03125H2.03125C1.81576 2.03125 1.6091 2.11685 1.45673 2.26923C1.30435 2.4216 1.21875 2.62826 1.21875 2.84375V9.34375C1.21875 9.55924 1.30435 9.7659 1.45673 9.91827C1.6091 10.0706 1.81576 10.1563 2.03125 10.1563H7.71875V11.375C7.7187 11.4443 7.73637 11.5124 7.77008 11.573C7.80379 11.6335 7.85242 11.6844 7.91135 11.7208C7.97028 11.7573 8.03755 11.778 8.10676 11.7811C8.17598 11.7842 8.24484 11.7696 8.3068 11.7386L9.75 11.0165L11.1932 11.7386C11.2552 11.7696 11.324 11.7842 11.3932 11.7811C11.4624 11.778 11.5297 11.7573 11.5886 11.7208C11.6476 11.6844 11.6962 11.6335 11.7299 11.573C11.7636 11.5124 11.7813 11.4443 11.7812 11.375V8.48758C12.302 7.95709 12.5938 7.2434 12.5938 6.5C12.5938 5.75661 12.302 5.04291 11.7812 4.51242ZM6.5 7.3125H3.65625C3.54851 7.3125 3.44517 7.2697 3.36899 7.19351C3.2928 7.11733 3.25 7.01399 3.25 6.90625C3.25 6.79851 3.2928 6.69517 3.36899 6.61899C3.44517 6.5428 3.54851 6.5 3.65625 6.5H6.5C6.60774 6.5 6.71108 6.5428 6.78726 6.61899C6.86345 6.69517 6.90625 6.79851 6.90625 6.90625C6.90625 7.01399 6.86345 7.11733 6.78726 7.19351C6.71108 7.2697 6.60774 7.3125 6.5 7.3125ZM6.5 5.6875H3.65625C3.54851 5.6875 3.44517 5.6447 3.36899 5.56851C3.2928 5.49233 3.25 5.38899 3.25 5.28125C3.25 5.17351 3.2928 5.07017 3.36899 4.99399C3.44517 4.9178 3.54851 4.875 3.65625 4.875H6.5C6.60774 4.875 6.71108 4.9178 6.78726 4.99399C6.86345 5.07017 6.90625 5.17351 6.90625 5.28125C6.90625 5.38899 6.86345 5.49233 6.78726 5.56851C6.71108 5.6447 6.60774 5.6875 6.5 5.6875ZM10.9687 10.7179L9.9318 10.1989C9.87536 10.1707 9.81311 10.156 9.75 10.156C9.68689 10.156 9.62464 10.1707 9.5682 10.1989L8.53125 10.7179V9.06902C8.91208 9.2499 9.3284 9.34375 9.75 9.34375C10.1716 9.34375 10.5879 9.2499 10.9687 9.06902V10.7179ZM9.75 8.53125C9.34826 8.53125 8.95553 8.41212 8.6215 8.18892C8.28746 7.96573 8.02711 7.64849 7.87337 7.27733C7.71963 6.90616 7.6794 6.49775 7.75778 6.10372C7.83616 5.7097 8.02961 5.34777 8.31369 5.06369C8.59776 4.77961 8.9597 4.58616 9.35372 4.50778C9.74775 4.4294 10.1562 4.46963 10.5273 4.62337C10.8985 4.77711 11.2157 5.03746 11.4389 5.3715C11.6621 5.70554 11.7812 6.09826 11.7812 6.5C11.7812 7.03872 11.5672 7.55538 11.1863 7.93631C10.8054 8.31724 10.2887 8.53125 9.75 8.53125Z" fill="black"/>
</g>
</svg>
