<svg width="12" height="9" viewBox="0 0 12 9" fill="none" xmlns="http://www.w3.org/2000/svg">
<g id="Mask group">
<mask id="mask0_383_312" style="mask-type:luminance" maskUnits="userSpaceOnUse" x="0" y="0" width="12" height="8">
<g id="Group">
<path id="Vector" fill-rule="evenodd" clip-rule="evenodd" d="M0.730179 5.0981C0.327077 4.69556 0.327076 4.04231 0.730179 3.63977C1.13249 3.23801 1.78418 3.23801 2.18649 3.63977L2.96177 4.41397C3.74259 5.19371 5.00741 5.19371 5.78823 4.41397L9.48018 0.727145C9.88249 0.32539 10.5342 0.325391 10.9365 0.727145C11.3396 1.12969 11.3396 1.78293 10.9365 2.18548L5.78823 7.32659C5.00741 8.10634 3.74259 8.10633 2.96177 7.32659L0.730179 5.0981Z" fill="white"/>
</g>
</mask>
<g mask="url(#mask0_383_312)">
<path id="Vector_2" d="M-1.16666 -0.621339C-1.16666 -1.72591 -0.271226 -2.62134 0.833344 -2.62134H10.8333C11.9379 -2.62134 12.8333 -1.72591 12.8333 -0.621338V9.35925C12.8333 10.4638 11.9379 11.3592 10.8333 11.3592H0.833343C-0.271226 11.3592 -1.16666 10.4638 -1.16666 9.35925V-0.621339Z" fill="black"/>
</g>
</g>
</svg>
