<svg width="12" height="12" viewBox="0 0 12 12" fill="none" xmlns="http://www.w3.org/2000/svg">
<g id="clarity:certificate-solid" clip-path="url(#clip0_98_1514)">
<path id="Vector" d="M6.33333 10H1.33333C1.15652 10 0.986954 9.92976 0.86193 9.80474C0.736906 9.67971 0.666668 9.51014 0.666668 9.33333V2.66667C0.666668 2.48986 0.736906 2.32029 0.86193 2.19526C0.986954 2.07024 1.15652 2 1.33333 2H10.6667C10.8435 2 11.013 2.07024 11.1381 2.19526C11.2631 2.32029 11.3333 2.48986 11.3333 2.66667V6.12333C10.8893 5.55774 10.2433 5.18623 9.53111 5.08681C8.81893 4.9874 8.09592 5.16782 7.51394 5.59018C6.93195 6.01253 6.53627 6.64398 6.40998 7.35189C6.28369 8.05981 6.43663 8.78912 6.83667 9.38667L6.52667 9.76667L6.33333 10ZM2.33333 4V4.53333H8V4H2.33333ZM2.33333 5.86667H6V5.33333H2.33333V5.86667ZM2.33333 8.2H5.66667V7.66667H2.33333V8.2Z" fill="#757575"/>
<path id="Vector_2" d="M11.2767 7.86334C11.2776 7.51187 11.1912 7.16568 11.0253 6.85582C10.8594 6.54596 10.6192 6.28212 10.3263 6.08797C10.0333 5.89383 9.69668 5.77544 9.34667 5.74344C8.99667 5.71144 8.64419 5.76682 8.32086 5.90462C7.99753 6.04241 7.71346 6.25832 7.49414 6.53296C7.27482 6.8076 7.1271 7.13239 7.06424 7.47819C7.00138 7.82399 7.02534 8.17999 7.13398 8.51424C7.24261 8.8485 7.43252 9.15057 7.68667 9.39334L7.04 10.1833L7.34 11.3867L8.56 9.90001C8.94618 10.0142 9.35715 10.0142 9.74333 9.90001L10.9633 11.3867L11.2633 10.1833L10.6167 9.39334C10.8246 9.19635 10.9904 8.95915 11.1038 8.69613C11.2173 8.43312 11.2761 8.14978 11.2767 7.86334ZM7.69667 7.86334C7.6927 7.57442 7.77475 7.29085 7.93238 7.04868C8.09001 6.80652 8.3161 6.61671 8.58189 6.50338C8.84769 6.39006 9.14119 6.35834 9.42506 6.41227C9.70893 6.46619 9.97035 6.60333 10.1761 6.80623C10.3818 7.00913 10.5225 7.26862 10.5804 7.55172C10.6382 7.83482 10.6106 8.12873 10.5009 8.39606C10.3913 8.6634 10.2046 8.89209 9.96465 9.05306C9.72469 9.21402 9.44228 9.29998 9.15333 9.30001C8.77049 9.3009 8.40283 9.15036 8.13056 8.88121C7.8583 8.61207 7.70352 8.24617 7.7 7.86334H7.69667Z" fill="#757575"/>
</g>
<defs>
<clipPath id="clip0_98_1514">
<rect width="12" height="12" fill="white"/>
</clipPath>
</defs>
</svg>
