<svg width="12" height="12" viewBox="0 0 12 12" fill="none" xmlns="http://www.w3.org/2000/svg">
<g id="fluent:learning-app-24-filled">
<path id="Vector" d="M2.75 1H8.5C8.83152 1 9.14946 1.1317 9.38388 1.36612C9.6183 1.60054 9.75 1.91848 9.75 2.25V5.6565C9.18025 5.4719 8.57056 5.44833 7.98826 5.58838C7.40595 5.72844 6.87367 6.02668 6.45017 6.45017C6.02668 6.87367 5.72844 7.40595 5.58838 7.98826C5.44833 8.57056 5.4719 9.18025 5.6565 9.75H2.25C2.25 9.88261 2.30268 10.0098 2.39645 10.1036C2.49021 10.1973 2.61739 10.25 2.75 10.25H5.866C6.00915 10.5243 6.19064 10.7769 6.405 11H2.75C2.41848 11 2.10054 10.8683 1.86612 10.6339C1.6317 10.3995 1.5 10.0815 1.5 9.75V2.25C1.5 1.91848 1.6317 1.60054 1.86612 1.36612C2.10054 1.1317 2.41848 1 2.75 1ZM3.5 2.5C3.36739 2.5 3.24021 2.55268 3.14645 2.64645C3.05268 2.74021 3 2.86739 3 3V3.5C3 3.63261 3.05268 3.75979 3.14645 3.85355C3.24021 3.94732 3.36739 4 3.5 4H7.5C7.63261 4 7.75979 3.94732 7.85355 3.85355C7.94732 3.75979 8 3.63261 8 3.5V3C8 2.86739 7.94732 2.74021 7.85355 2.64645C7.75979 2.55268 7.63261 2.5 7.5 2.5H3.5ZM11.5 8.75C11.5 8.02065 11.2103 7.32118 10.6945 6.80546C10.1788 6.28973 9.47935 6 8.75 6C8.02065 6 7.32118 6.28973 6.80546 6.80546C6.28973 7.32118 6 8.02065 6 8.75C6 9.47935 6.28973 10.1788 6.80546 10.6945C7.32118 11.2103 8.02065 11.5 8.75 11.5C9.47935 11.5 10.1788 11.2103 10.6945 10.6945C11.2103 10.1788 11.5 9.47935 11.5 8.75ZM8.457 7.5485L9.86 8.4685C9.90347 8.4964 9.93914 8.53491 9.96363 8.58039C9.98812 8.62588 10.0006 8.67685 10 8.7285C10.0001 8.78049 9.98771 8.83174 9.964 8.878C9.94162 8.92379 9.90745 8.96279 9.865 8.991L8.4615 9.9485C8.43708 9.96493 8.41049 9.97789 8.3825 9.987C8.31751 10.0078 8.24714 10.0037 8.185 9.9755C8.14918 9.95873 8.11653 9.93589 8.0885 9.908C8.06142 9.87851 8.03946 9.84472 8.0235 9.808C8.00788 9.77045 7.99989 9.73017 8 9.6895V7.8105C7.99974 7.75034 8.01694 7.69139 8.04951 7.6408C8.08208 7.59022 8.12862 7.55016 8.1835 7.5255C8.22709 7.50507 8.27527 7.4964 8.32325 7.50035C8.37122 7.5043 8.41733 7.52072 8.457 7.548V7.5485Z" fill="#757575"/>
</g>
</svg>
