<svg width="14" height="14" viewBox="0 0 14 14" fill="none" xmlns="http://www.w3.org/2000/svg">
<g id="mdi:place-outline">
<path id="Vector" d="M6.99984 3.79163C7.38661 3.79163 7.75754 3.94527 8.03103 4.21876C8.30453 4.49225 8.45817 4.86319 8.45817 5.24996C8.45817 5.44147 8.42045 5.63111 8.34716 5.80804C8.27387 5.98497 8.16645 6.14574 8.03103 6.28116C7.89562 6.41658 7.73485 6.524 7.55792 6.59728C7.38098 6.67057 7.19135 6.70829 6.99984 6.70829C6.61306 6.70829 6.24213 6.55465 5.96864 6.28116C5.69515 6.00767 5.5415 5.63673 5.5415 5.24996C5.5415 4.86319 5.69515 4.49225 5.96864 4.21876C6.24213 3.94527 6.61306 3.79163 6.99984 3.79163ZM6.99984 1.16663C8.0828 1.16663 9.12142 1.59683 9.88719 2.36261C10.653 3.12838 11.0832 4.16699 11.0832 5.24996C11.0832 8.31246 6.99984 12.8333 6.99984 12.8333C6.99984 12.8333 2.9165 8.31246 2.9165 5.24996C2.9165 4.16699 3.34671 3.12838 4.11248 2.36261C4.87826 1.59683 5.91687 1.16663 6.99984 1.16663ZM6.99984 2.33329C6.22629 2.33329 5.48442 2.64058 4.93744 3.18756C4.39046 3.73455 4.08317 4.47641 4.08317 5.24996C4.08317 5.83329 4.08317 6.99996 6.99984 10.9141C9.9165 6.99996 9.9165 5.83329 9.9165 5.24996C9.9165 4.47641 9.60921 3.73455 9.06223 3.18756C8.51525 2.64058 7.77339 2.33329 6.99984 2.33329Z" fill="black"/>
</g>
</svg>
