<svg width="26" height="26" viewBox="0 0 26 26" fill="none" xmlns="http://www.w3.org/2000/svg">
<g id="iconamoon:search-bold">
<path id="Vector" d="M22.75 22.75L18.0451 18.0451M18.0451 18.0451C18.8499 17.2403 19.4883 16.2848 19.9238 15.2333C20.3594 14.1818 20.5835 13.0548 20.5835 11.9166C20.5835 10.7785 20.3594 9.65149 19.9238 8.59997C19.4883 7.54846 18.8499 6.59302 18.0451 5.78823C17.2403 4.98343 16.2848 4.34504 15.2333 3.90948C14.1818 3.47393 13.0548 3.24976 11.9166 3.24976C10.7785 3.24976 9.65149 3.47393 8.59997 3.90948C7.54846 4.34504 6.59302 4.98343 5.78823 5.78823C4.16287 7.41359 3.24976 9.61804 3.24976 11.9166C3.24976 14.2152 4.16287 16.4197 5.78823 18.0451C7.41359 19.6704 9.61804 20.5835 11.9166 20.5835C14.2152 20.5835 16.4197 19.6704 18.0451 18.0451Z" stroke="white" stroke-width="2.5" stroke-linecap="round" stroke-linejoin="round"/>
</g>
</svg>
