<svg width="16" height="16" viewBox="0 0 16 16" fill="none" xmlns="http://www.w3.org/2000/svg">
<g id="ic:round-warning">
<path id="Vector" d="M2.98 14H13.02C14.0467 14 14.6867 12.8867 14.1733 12L9.15333 3.32665C8.64 2.43998 7.36 2.43998 6.84667 3.32665L1.82667 12C1.31333 12.8867 1.95333 14 2.98 14ZM8 9.33332C7.63333 9.33332 7.33333 9.03332 7.33333 8.66665V7.33332C7.33333 6.96665 7.63333 6.66665 8 6.66665C8.36667 6.66665 8.66667 6.96665 8.66667 7.33332V8.66665C8.66667 9.03332 8.36667 9.33332 8 9.33332ZM8.66667 12H7.33333V10.6667H8.66667V12Z" fill="black"/>
</g>
</svg>
