<?xml version="1.0" encoding="UTF-8"?>
<svg id="Layer_2" data-name="Layer 2" xmlns="http://www.w3.org/2000/svg" viewBox="0 0 25.3 23">
  <g id="Layer_1-2" data-name="Layer 1">
    <g>
      <path d="m8.4,10.17h-3.48c-.33,0-.6-.27-.6-.6s.27-.6.6-.6h2.88v-4c0-.33.27-.6.6-.6s.6.27.6.6v4.6c0,.33-.27.6-.6.6Zm11.09,12.83h-5.84c-1.66,0-3.01-1.35-3.01-3.02v-9.83c0-.33.27-.6.6-.6h10.67c.33,0,.6.27.6.6v9.83c0,1.67-1.35,3.02-3.01,3.02Zm-7.65-12.24v9.22c0,1,.81,1.81,1.81,1.81h5.84c1,0,1.81-.81,1.81-1.81v-9.22h-9.46Z" style="fill: #f36e24;"/>
      <path d="m23.49,19.28h-1.59c-.33,0-.6-.27-.6-.6s.27-.6.6-.6h1.59c.33,0,.6-.27.6-.61v-2.42c0-.33-.27-.6-.6-.6h-1.59c-.33,0-.6-.27-.6-.6s.27-.61.6-.61h1.59c1,0,1.81.81,1.81,1.81v2.42c0,1-.81,1.81-1.81,1.81Zm-8.02-10.38c-.33,0-.6-.27-.6-.6v-1.95c0-1.66,1.35-3.01,3.01-3.01h2.22c.33,0,.6-.27.6-.6,0-1.51,1.23-2.74,2.74-2.74h1.25c.33,0,.6.27.6.6s-.27.61-.6.61h-1.25c-.85,0-1.53.68-1.53,1.53,0,1-.81,1.81-1.81,1.81h-2.22c-1,0-1.81.81-1.81,1.8v1.95c0,.33-.27.6-.6.6Z" style="fill: #f36e24;"/>
      <path d="m20.54,6.48h-2.76c-.33,0-.6-.27-.6-.6s.27-.61.6-.61h2.76c1.31,0,2.37-1.06,2.37-2.36,0-.34.27-.61.6-.61s.6.27.6.61c0,1.97-1.6,3.57-3.57,3.57Zm-12.14,11.48C3.76,17.96,0,14.2,0,9.57S3.76,1.17,8.4,1.17c2.14-.01,4.2.82,5.74,2.3.12.11.19.26.2.43,0,.16-.05.32-.17.44-.11.12-.27.18-.43.18s-.32-.06-.43-.18c-1.32-1.27-3.08-1.97-4.91-1.97-3.97.03-7.17,3.26-7.15,7.23.02,3.97,3.26,7.18,7.23,7.16.09,0,.17-.01.26-.02.16-.03.33,0,.46.1.13.09.22.23.25.39s-.01.33-.11.46c-.1.13-.24.22-.4.24-.18.02-.36.04-.53.03Zm14.97,5.04h-13.59c-.33,0-.6-.27-.6-.6s.27-.61.6-.61h13.59c.33,0,.6.27.6.61s-.27.6-.6.6Z" style="fill: #f36e24;"/>
    </g>
  </g>
</svg>