<svg width="28" height="29" viewBox="0 0 28 29" fill="none" xmlns="http://www.w3.org/2000/svg">
<g clip-path="url(#clip0_1_7701)">
<path d="M7.37158 0.36319C7.37158 1.37043 7.37158 2.36947 7.37158 3.37671C7.37158 4.53135 7.37158 5.68599 7.37158 6.84062" stroke="#757575" stroke-width="1.79235" stroke-miterlimit="10"/>
<path d="M10.8477 3.05731C13.4633 3.05731 16.0707 3.05731 18.6864 3.05731" stroke="#757575" stroke-width="1.79235" stroke-miterlimit="10"/>
<path d="M18.6865 0.158447C18.6865 2.45953 18.6865 4.75243 18.6865 7.05352" stroke="#757575" stroke-width="1.79235" stroke-miterlimit="10"/>
<path d="M21.6168 3.38489H23.1978C24.9691 3.38489 26.4011 4.80157 26.4011 6.554V23.7671C26.4011 26.1173 24.4808 28.0172 22.1051 28.0172H5.08663C2.92621 28.0172 1.17139 26.2811 1.17139 24.1438V12.3108V6.66046C1.17139 4.8507 2.65306 3.38489 4.48238 3.38489H7.36294" stroke="#757575" stroke-width="1.79235" stroke-miterlimit="10"/>
<path d="M26.4011 12.6302H1.17139" stroke="#757575" stroke-width="1.79235" stroke-miterlimit="10"/>
</g>
<defs>
<clipPath id="clip0_1_7701">
<rect width="26.8852" height="28.6776" fill="white" transform="translate(0.34375 0.158447)"/>
</clipPath>
</defs>
</svg>
