<svg width="29" height="29" viewBox="0 0 29 29" fill="none" xmlns="http://www.w3.org/2000/svg">
<g id="Group">
<path id="Vector" d="M4.34966 12.2079C4.4637 12.2744 4.59888 12.2933 4.72727 12.26C4.8549 12.2268 4.96365 12.1437 5.03011 12.0297C5.30123 11.566 5.61464 11.1287 5.96505 10.7224C6.14479 10.5147 6.12214 10.1998 5.91446 10.0201C5.70602 9.84033 5.39185 9.86375 5.21211 10.0707C4.82091 10.5238 4.47276 11.0117 4.17144 11.5282C4.10498 11.6423 4.0861 11.7774 4.12008 11.9058C4.15255 12.0327 4.23563 12.1422 4.34966 12.2079ZM8.89904 20.5983C9.0312 20.5983 9.15808 20.5454 9.25097 20.4525L12.9266 16.7769C13.0202 16.6833 13.0723 16.5572 13.0723 16.425V11.1733C13.0723 11.0411 13.0202 10.9142 12.9266 10.8213C12.8337 10.7277 12.7068 10.6756 12.5746 10.6756C12.4425 10.6756 12.3156 10.7277 12.2227 10.8213C12.1291 10.9142 12.077 11.0411 12.077 11.1733V16.2188L8.54711 19.7487C8.45347 19.8416 8.40136 19.9684 8.40136 20.1006C8.40136 20.2328 8.45422 20.3589 8.54711 20.4525C8.64076 20.5454 8.76688 20.5983 8.89904 20.5983Z" fill="#229A16"/>
<path id="Vector_2" d="M29 6.6194C29 2.96948 26.0305 0 22.3806 0C19.5199 0 17.0843 1.8276 16.1607 4.37341C15.0015 4.02904 13.7961 3.85005 12.575 3.85005C5.64065 3.8493 0 9.4907 0 16.4243C0 23.3586 5.64141 29 12.5757 29C19.5101 29 25.1507 23.3586 25.1507 16.4243C25.1507 15.2016 24.9695 13.9985 24.6243 12.8401C27.1716 11.9179 29 9.48164 29 6.6194ZM24.1553 16.425C24.1553 22.8103 18.961 28.0046 12.5757 28.0046C6.18969 28.0046 0.995365 22.8103 0.995365 16.425C0.995365 10.0397 6.18969 4.84542 12.5757 4.84542C13.7048 4.84542 14.8179 5.01156 15.8888 5.33102C15.8042 5.75544 15.7612 6.18742 15.7604 6.62016C15.7604 6.83313 15.7725 7.04307 15.7922 7.25076C15.1193 7.01589 14.4222 6.85049 13.7055 6.76667C11.5388 6.51292 9.40536 6.97586 7.54151 8.10414C7.30664 8.24688 7.23188 8.55273 7.37461 8.7876C7.46448 8.93638 7.62609 9.02776 7.80055 9.02776C7.88815 9.02776 7.97727 9.00435 8.05807 8.95526C9.29359 8.20685 10.662 7.78771 12.0773 7.70992V8.95904C12.0773 9.0912 12.1302 9.21807 12.223 9.31096C12.3167 9.40385 12.4428 9.45672 12.575 9.45672C12.7071 9.45672 12.8333 9.40385 12.9269 9.31096C13.0198 9.21807 13.0727 9.0912 13.0727 8.95904V7.71521C13.2448 7.72578 13.417 7.73409 13.59 7.75448C14.4305 7.85266 15.2424 8.07469 16.0112 8.40396C16.6342 10.622 18.3818 12.368 20.5998 12.9896C21.0001 13.9215 21.2297 14.9169 21.2863 15.9273H20.041C19.9088 15.9273 19.7819 15.9795 19.689 16.0731C19.5954 16.1667 19.5433 16.2929 19.5433 16.425C19.5433 16.5572 19.5954 16.6841 19.689 16.777C19.7819 16.8706 19.9088 16.9227 20.041 16.9227H21.2886C21.2788 17.0949 21.2659 17.2678 21.2455 17.44C21.0356 19.2352 20.2872 20.88 19.1121 22.2039L18.2277 21.3271C18.0321 21.1338 17.7172 21.1345 17.5239 21.3301C17.3305 21.5257 17.332 21.8399 17.5269 22.034L18.4074 22.907C18.2692 23.0308 18.1348 23.1577 17.9876 23.2733C16.5587 24.4023 14.8519 25.0359 13.0719 25.1341V23.891C13.0719 23.7589 13.0198 23.632 12.9261 23.5391C12.8333 23.4462 12.7064 23.3933 12.5742 23.3933C12.4421 23.3933 12.3152 23.4462 12.2223 23.5391C12.1286 23.6327 12.0765 23.7589 12.0765 23.891V25.1303C11.9043 25.1205 11.7322 25.1152 11.5592 25.0956C9.61984 24.8683 7.90854 24.0111 6.58995 22.762L7.48865 21.9131C7.58456 21.8225 7.64044 21.6971 7.64422 21.5657C7.648 21.4336 7.59891 21.3059 7.50828 21.21C7.41766 21.1141 7.29229 21.0582 7.16089 21.0545C7.02872 21.0507 6.90109 21.0998 6.80518 21.1904L5.90648 22.0392C4.71703 20.6255 3.97693 18.8447 3.86742 16.9235H5.10823C5.24039 16.9235 5.36727 16.8706 5.46016 16.7777C5.5538 16.6841 5.60591 16.5572 5.60591 16.425C5.60591 16.2929 5.5538 16.1667 5.46016 16.0731C5.36727 15.9802 5.24039 15.9273 5.10823 15.9273H3.86969C3.87951 15.7552 3.88328 15.583 3.90367 15.41C3.92935 15.1404 3.73526 14.8988 3.46565 14.8678C3.19604 14.8361 2.95135 15.0256 2.91435 15.2945C2.61227 17.8743 3.33349 20.4171 4.94435 22.4554C6.55521 24.4929 8.86313 25.7821 11.4429 26.0834C11.8273 26.1287 12.2117 26.1506 12.5931 26.1506C14.7704 26.1506 16.8698 25.4241 18.6046 24.0534C20.6421 22.4425 21.9313 20.1346 22.2333 17.5548C22.4048 16.0874 22.2401 14.6012 21.7515 13.2071C21.9584 13.2267 22.1676 13.2388 22.3791 13.2388C22.8201 13.2388 23.2491 13.1935 23.666 13.1112C23.9862 14.1821 24.1553 15.2945 24.1553 16.425ZM22.3806 12.2442C19.279 12.2442 16.7558 9.72104 16.7558 6.6194C16.7558 3.51852 19.279 0.995365 22.3806 0.995365C25.4815 0.995365 28.0046 3.51852 28.0046 6.6194C28.0046 9.72104 25.4815 12.2442 22.3806 12.2442Z" fill="#229A16"/>
<path id="Vector_3" d="M22.2358 3.31079C20.7253 3.31079 19.4506 4.32957 19.0556 5.71537L18.897 5.50543C18.7308 5.28717 18.4189 5.24261 18.1992 5.40876C17.9802 5.57491 17.9371 5.88681 18.1025 6.10582L18.9181 7.18577C19.048 7.3572 19.2723 7.42592 19.4747 7.3572L20.6974 6.94259C20.9579 6.85423 21.0969 6.57178 21.0093 6.31123C20.9209 6.05069 20.6385 5.91097 20.3779 5.99933L19.9739 6.13678C20.1967 5.09308 21.1249 4.30691 22.235 4.30691C23.5106 4.30691 24.549 5.34457 24.549 6.62087C24.549 7.89642 23.5106 8.93558 22.235 8.93558C21.9224 8.93558 21.6195 8.87441 21.3348 8.75358C21.0841 8.64785 20.7903 8.76415 20.6823 9.0179C20.5751 9.2709 20.6936 9.56241 20.9466 9.6704C21.3552 9.84334 21.7879 9.93095 22.235 9.93095C24.0596 9.93095 25.5443 8.44545 25.5443 6.62162C25.5458 4.79478 24.0603 3.31079 22.2358 3.31079Z" fill="#229A16"/>
</g>
</svg>
