<svg width="30" height="39" viewBox="0 0 30 39" fill="none" xmlns="http://www.w3.org/2000/svg">
<g id="Frame" clip-path="url(#clip0_1_7715)">
<path id="Vector" d="M15.2864 2.77774C15.7773 2.77774 16.257 2.81121 16.7367 2.87815C18.3432 3.10128 19.9275 3.67026 21.3109 4.54046C24.2785 6.38128 26.3871 9.53855 26.9672 12.9971C27.2349 14.6371 26.9783 16.3217 26.1639 18.1402C25.3495 19.981 24.0554 21.7772 22.9174 23.3056L22.5827 23.7519L14.5835 34.529L11.6717 30.3342C11.0135 29.3859 10.3552 28.4264 9.70815 27.467C8.45862 25.6373 7.17563 23.7519 5.84801 21.9222C4.16339 19.6017 3.24856 17.4373 2.96965 15.1168C2.6238 12.3723 3.56094 9.58318 5.60257 7.27379C8.05699 4.49583 11.7609 2.77774 15.2864 2.77774ZM15.2864 0.546448C7.56611 0.546448 -0.25457 7.30726 0.749511 15.3957C1.10652 18.3298 2.32257 20.8624 4.04067 23.2387C6.02652 25.9832 7.91196 28.8281 9.84202 31.6172C11.1362 33.4803 12.4303 35.3434 13.7245 37.2066C13.9253 37.4966 14.2377 37.6417 14.5501 37.6417C14.8513 37.6417 15.1525 37.5078 15.3533 37.24C18.466 33.0452 21.5898 28.8504 24.7024 24.6444C26.0077 22.8928 27.313 21.0409 28.1944 19.055C29.0758 17.0692 29.5443 14.9383 29.1539 12.64C28.4733 8.55679 25.9966 4.84168 22.4823 2.65502C20.8311 1.62862 18.968 0.94808 17.0379 0.680325C16.4578 0.591074 15.8777 0.546448 15.2864 0.546448Z" fill="white"/>
<path id="Vector_2" d="M15.3229 11.6472C16.762 11.6472 17.9335 12.8186 17.9335 14.2578C17.9335 15.6969 16.762 16.8684 15.3229 16.8684C13.8837 16.8684 12.7122 15.6969 12.7122 14.2578C12.7122 12.8186 13.8948 11.6472 15.3229 11.6472ZM15.3229 9.41586C12.6453 9.41586 10.481 11.5802 10.481 14.2578C10.481 16.9353 12.6453 19.0997 15.3229 19.0997C18.0004 19.0997 20.1648 16.9353 20.1648 14.2578C20.1648 11.5802 18.0004 9.41586 15.3229 9.41586Z" fill="white"/>
</g>
<defs>
<clipPath id="clip0_1_7715">
<rect width="28.6386" height="37.6393" fill="white" transform="translate(0.662109 0.546448)"/>
</clipPath>
</defs>
</svg>
