<?xml version="1.0" encoding="UTF-8"?>
<svg id="Layer_2" data-name="Layer 2" xmlns="http://www.w3.org/2000/svg" viewBox="0 0 14 14">
  <g id="Layer_1-2" data-name="Layer 1">
    <g>
      <path d="m.58,5.25c-.32,0-.58-.26-.58-.58V1.76C0,.79.79,0,1.76,0h3.49c.32,0,.58.26.58.58s-.26.58-.58.58H1.76c-.32,0-.59.26-.59.59v2.91c0,.32-.26.58-.58.58Zm11.7,8.75h-3.54c-.32,0-.58-.26-.58-.58s.26-.58.58-.58h3.54c.3,0,.55-.25.55-.55v-2.95c0-.32.26-.58.58-.58s.58.26.58.58v2.95c0,.95-.77,1.71-1.71,1.71h0Zm-7.04,0H1.73c-.95,0-1.73-.78-1.73-1.73v-2.93c0-.32.26-.58.58-.58s.58.26.58.58v2.93c0,.31.25.56.56.56h3.52c.32,0,.58.26.58.58s-.26.58-.58.58ZM13.41,5.25c-.32,0-.58-.26-.58-.58V1.73c0-.31-.25-.56-.56-.56h-3.52c-.32,0-.58-.26-.58-.58s.26-.58.58-.58h3.52c.95,0,1.73.77,1.73,1.73v2.94c0,.32-.26.58-.58.58Zm-8.16,2.34h-2.34c-.32,0-.58-.26-.58-.58s.26-.58.58-.58h2.34c.32,0,.58.26.58.58s-.26.58-.58.58Zm5.83-.01c-.32,0-.58-.26-.58-.58v-1.16c0-.32.26-.58.58-.58s.58.26.58.58v1.16c0,.32-.26.58-.58.58Z" style="fill: #249b47;"/>
      <path d="m11.08,4.66c-.32,0-.58-.26-.58-.58v-.57h-3.51c-.32,0-.58-.26-.58-.58s.26-.58.58-.58h4.09c.32,0,.58.26.58.58v1.16c0,.32-.26.58-.58.58Zm-5.83,1.16h-2.32c-.32,0-.58-.26-.58-.58v-2.32c0-.32.26-.58.58-.58h2.32c.32,0,.58.26.58.58v2.32c0,.32-.26.58-.58.58Zm-1.73-1.17h1.15v-1.15h-1.15v1.15Zm1.73,7h-2.32c-.32,0-.58-.26-.58-.58v-2.32c0-.32.26-.58.58-.58h2.32c.32,0,.58.26.58.58v2.32c0,.32-.26.58-.58.58Zm-1.73-1.17h1.15v-1.15h-1.15v1.15Z" style="fill: #249b47;"/>
      <path d="m9.33,7.58h-2.32c-.32,0-.58-.26-.58-.58v-2.32c0-.32.26-.58.58-.58h2.32c.32,0,.58.26.58.58v2.32c0,.32-.26.58-.58.58Zm-1.74-1.17h1.16v-1.16h-1.16v1.16Zm1.74,3.5h-2.32c-.32,0-.58-.26-.58-.58v-.58c0-.32.26-.58.58-.58s.58.26.58.58h1.15c0-.32.26-.58.58-.58.32,0,.58.26.58.58v.58c0,.32-.26.58-.58.58h0Zm1.75,1.75h-1.16c-.32,0-.58-.26-.58-.58s.26-.58.58-.58h.58v-1.69c0-.32.26-.58.58-.58s.58.26.58.58v2.28c0,.32-.26.58-.58.58Zm-2.91,0h-1.17c-.32,0-.58-.26-.58-.58s.26-.58.58-.58h1.17c.32,0,.58.26.58.58s-.26.58-.58.58Z" style="fill: #249b47;"/>
    </g>
  </g>
</svg>