<svg width="32" height="39" viewBox="0 0 32 39" fill="none" xmlns="http://www.w3.org/2000/svg">
<g id="Group 525">
<path id="Vector" d="M24.605 34.1041H3.14266C1.9642 34.1041 1 33.1399 1 31.9615V3.14266C1 1.9642 1.9642 1 3.14266 1H24.605C25.7835 1 26.7477 1.9642 26.7477 3.14266V31.9972C26.7119 33.1756 25.7835 34.1041 24.605 34.1041Z" fill="white" stroke="#BAB2B5" stroke-miterlimit="10"/>
<path id="Vector_2" d="M28.3994 37.9343H6.9371C5.75863 37.9343 4.79443 36.9701 4.79443 35.7916V6.9371C4.79443 5.75863 5.75863 4.79443 6.9371 4.79443H28.3994C29.5779 4.79443 30.5421 5.75863 30.5421 6.9371V35.7916C30.5064 36.9701 29.5779 37.9343 28.3994 37.9343Z" fill="white" stroke="#BAB2B5" stroke-miterlimit="10"/>
<path id="Vector_3" d="M14.1058 17.1054H8.39204C7.67782 17.1054 7.10645 16.5341 7.10645 15.8198V8.96333C7.10645 8.24911 7.67782 7.67773 8.39204 7.67773H14.1058C14.82 7.67773 15.3914 8.24911 15.3914 8.96333V15.8198C15.3914 15.8913 15.3557 16.4269 14.9272 16.784C14.6058 17.0697 14.2487 17.1054 14.1058 17.1054Z" fill="#FFD6E5" stroke="#BAB2B5" stroke-miterlimit="10"/>
<g id="Vector_4">
<path d="M7.71289 16.8916C8.3914 15.2846 9.78413 14.2847 11.284 14.249C12.7839 14.2133 14.2123 15.1775 14.9265 16.7845" fill="white"/>
<path d="M7.71289 16.8916C8.3914 15.2846 9.78413 14.2847 11.284 14.249C12.7839 14.2133 14.2123 15.1775 14.9265 16.7845" stroke="#BAB2B5" stroke-miterlimit="10"/>
</g>
<path id="Vector_5" d="M11.3913 14.2485C12.6141 14.2485 13.6054 13.2572 13.6054 12.0344C13.6054 10.8116 12.6141 9.82031 11.3913 9.82031C10.1685 9.82031 9.17725 10.8116 9.17725 12.0344C9.17725 13.2572 10.1685 14.2485 11.3913 14.2485Z" fill="white" stroke="#BAB2B5" stroke-miterlimit="10"/>
<path id="Vector_6" d="M19.4629 11.249H27.0693" stroke="#BAB2B5" stroke-miterlimit="10" stroke-linecap="round" stroke-linejoin="round"/>
<path id="Vector_7" d="M19.4629 13.9272H27.0693" stroke="#BAB2B5" stroke-miterlimit="10" stroke-linecap="round" stroke-linejoin="round"/>
<path id="Vector_8" d="M8.30518 21.0693H28.0177" stroke="#BAB2B5" stroke-miterlimit="10" stroke-linecap="round" stroke-linejoin="round"/>
<path id="Vector_9" d="M8.30518 24.605H27.6248" stroke="#BAB2B5" stroke-miterlimit="10" stroke-linecap="round" stroke-linejoin="round"/>
<path id="Vector_10" d="M8.37598 28.1401H27.6242" stroke="#BAB2B5" stroke-miterlimit="10" stroke-linecap="round" stroke-linejoin="round"/>
<path id="Vector_11" d="M8.37598 31.6753H27.6242" stroke="#BAB2B5" stroke-miterlimit="10" stroke-linecap="round" stroke-linejoin="round"/>
</g>
</svg>
