<svg width="36" height="34" viewBox="0 0 36 34" fill="none" xmlns="http://www.w3.org/2000/svg">
<g id="Group 528">
<path id="Vector" d="M31.828 26.2413H4.1728C2.58659 26.2413 1.34521 24.9999 1.34521 23.4137V4.17231C1.34521 2.58611 2.58659 1.34473 4.1728 1.34473H31.828C33.4142 1.34473 34.6556 2.58611 34.6556 4.17231V23.4137C34.6556 24.9999 33.4142 26.2413 31.828 26.2413Z" fill="white" stroke="#BAB2B5" stroke-miterlimit="10"/>
<path id="Vector_2" d="M1.20703 20.3794H34.6553" stroke="#BAB2B5" stroke-miterlimit="10"/>
<path id="Vector_3" d="M18.1038 23.8273C18.5228 23.8273 18.8625 23.4877 18.8625 23.0687C18.8625 22.6497 18.5228 22.3101 18.1038 22.3101C17.6849 22.3101 17.3452 22.6497 17.3452 23.0687C17.3452 23.4877 17.6849 23.8273 18.1038 23.8273Z" fill="white" stroke="#BAB2B5" stroke-miterlimit="10"/>
<path id="Vector_4" d="M13.0693 30.1722V26.2412" stroke="white" stroke-miterlimit="10"/>
<path id="Vector_5" d="M23.3452 30.1722V26.2412" stroke="white" stroke-miterlimit="10"/>
<path id="Vector_6" d="M24.0344 29.7585H12.1034C11.0689 29.7585 10.1724 30.5861 10.1724 31.6896V32.5172C10.1724 33.0689 10.5862 33.4827 11.1379 33.4827H24.9999C25.5517 33.4827 25.9655 33.0689 25.9655 32.5172V31.6896C25.9655 30.6551 25.1379 29.7585 24.0344 29.7585Z" fill="white" stroke="#BAB2B5" stroke-miterlimit="10"/>
<path id="Vector_7" d="M12.9316 9.89648V12.3103C12.9316 13.3448 13.4834 14.3103 14.3799 14.862C16.0351 15.8275 18.8627 16.793 22.1041 14.793C22.9316 14.2413 23.4144 13.3448 23.4144 12.3103V9.89648H12.9316Z" fill="white" stroke="#BAB2B5" stroke-miterlimit="10" stroke-linecap="round" stroke-linejoin="round"/>
<path id="Vector_8" d="M24.9313 6.99992L18.3106 3.27578C17.9658 3.06888 17.552 3.06888 17.2071 3.27578L10.9313 6.93095C10.1726 7.34474 10.1726 8.51716 10.9313 8.93095L12.7933 10.0344L17.2761 12.7241C17.6209 12.931 18.1037 12.931 18.4485 12.7241L25.0002 9.06888C25.7589 8.58612 25.7589 7.48267 24.9313 6.99992Z" fill="white" stroke="#BAB2B5" stroke-miterlimit="10" stroke-linecap="round" stroke-linejoin="round"/>
<path id="Vector_9" d="M17.9663 7.75854L21.4146 11.2068V16.3103" stroke="#BAB2B5" stroke-miterlimit="10" stroke-linecap="round" stroke-linejoin="round"/>
<path id="Vector_10" d="M21.414 18.517C22.0234 18.517 22.5174 18.0229 22.5174 17.4135C22.5174 16.8041 22.0234 16.3101 21.414 16.3101C20.8046 16.3101 20.3105 16.8041 20.3105 17.4135C20.3105 18.0229 20.8046 18.517 21.414 18.517Z" stroke="#BAB2B5" stroke-miterlimit="10" stroke-linecap="round" stroke-linejoin="round"/>
<path id="Vector_11" d="M23.3452 26.2412H13.0693V29.7585H23.3452V26.2412Z" fill="white" stroke="#BAB2B5" stroke-miterlimit="10"/>
</g>
</svg>
