<svg width="38" height="39" viewBox="0 0 38 39" fill="none" xmlns="http://www.w3.org/2000/svg">
<g id="Group 530">
<path id="Vector" d="M29.8416 33.0331H3.98362C2.32605 33.0331 1 31.7071 1 30.0495V6.10691C1 4.44934 2.32605 3.12329 3.98362 3.12329H29.8416C31.4992 3.12329 32.8252 4.44934 32.8252 6.10691V30.0495C32.7884 31.7071 31.4624 33.0331 29.8416 33.0331Z" fill="white" stroke="#BAB2B5" stroke-width="1.16135" stroke-miterlimit="10"/>
<path id="Vector_2" d="M29.6209 37.4531C33.6895 37.4531 36.9878 34.1548 36.9878 30.0862C36.9878 26.0175 33.6895 22.7192 29.6209 22.7192C25.5522 22.7192 22.2539 26.0175 22.2539 30.0862C22.2539 34.1548 25.5522 37.4531 29.6209 37.4531Z" fill="#FFE4F0" stroke="#BAB2B5" stroke-width="1.16135" stroke-miterlimit="10"/>
<path id="Vector_3" d="M8.2565 6.95405C7.22513 6.95405 6.37793 6.10685 6.37793 5.07548V2.86539C6.37793 1.83402 7.22513 0.986816 8.2565 0.986816C9.28788 0.986816 10.1351 1.83402 10.1351 2.86539V5.07548C10.1351 6.10685 9.28788 6.95405 8.2565 6.95405Z" fill="white" stroke="#BAB2B5" stroke-width="1.16135" stroke-miterlimit="10"/>
<path id="Vector_4" d="M25.3483 6.95405C24.3169 6.95405 23.4697 6.10685 23.4697 5.07548V2.86539C23.4697 1.83402 24.3169 0.986816 25.3483 0.986816C26.3797 0.986816 27.2269 1.83402 27.2269 2.86539V5.07548C27.2269 6.10685 26.3797 6.95405 25.3483 6.95405Z" fill="white" stroke="#BAB2B5" stroke-width="1.16135" stroke-miterlimit="10"/>
<path id="Vector_5" d="M9.06662 19.3305H7.33539C6.63553 19.3305 6.08301 18.778 6.08301 18.0781V16.3469C6.08301 15.647 6.63553 15.0945 7.33539 15.0945H9.06662C9.76648 15.0945 10.319 15.647 10.319 16.3469V18.0781C10.3558 18.778 9.76648 19.3305 9.06662 19.3305Z" fill="white" stroke="#BAB2B5" stroke-width="1.16135" stroke-miterlimit="10"/>
<path id="Vector_6" d="M17.6496 19.3305H15.9184C15.2185 19.3305 14.666 18.778 14.666 18.0781V16.3469C14.666 15.647 15.2185 15.0945 15.9184 15.0945H17.6496C18.3495 15.0945 18.902 15.647 18.902 16.3469V18.0781C18.902 18.778 18.3495 19.3305 17.6496 19.3305Z" fill="white" stroke="#BAB2B5" stroke-width="1.16135" stroke-miterlimit="10"/>
<path id="Vector_7" d="M9.06662 27.913H7.33539C6.63553 27.913 6.08301 27.3605 6.08301 26.6606V24.9294C6.08301 24.2295 6.63553 23.677 7.33539 23.677H9.06662C9.76648 23.677 10.319 24.2295 10.319 24.9294V26.6606C10.3558 27.3605 9.76648 27.913 9.06662 27.913Z" fill="white" stroke="#BAB2B5" stroke-width="1.16135" stroke-miterlimit="10"/>
<path id="Vector_8" d="M17.6496 27.913H15.9184C15.2185 27.913 14.666 27.3605 14.666 26.6606V24.9294C14.666 24.2295 15.2185 23.677 15.9184 23.677H17.6496C18.3495 23.677 18.902 24.2295 18.902 24.9294V26.6606C18.902 27.3605 18.3495 27.913 17.6496 27.913Z" fill="white" stroke="#BAB2B5" stroke-width="1.16135" stroke-miterlimit="10"/>
<path id="Vector_9" d="M26.195 19.3305H24.4638C23.7639 19.3305 23.2114 18.778 23.2114 18.0781V16.3469C23.2114 15.647 23.7639 15.0945 24.4638 15.0945H26.195C26.8949 15.0945 27.4474 15.647 27.4474 16.3469V18.0781C27.4843 18.778 26.8949 19.3305 26.195 19.3305Z" fill="white" stroke="#BAB2B5" stroke-width="1.16135" stroke-miterlimit="10"/>
<path id="Vector_10" d="M1 10.1953H32.7884" stroke="#BAB2B5" stroke-width="1.16135" stroke-miterlimit="10"/>
<path id="Vector_11" d="M25.7899 29.0917L26.1214 28.4655C26.2319 28.2445 26.1951 28.0235 26.0477 27.8394L25.9372 27.6552C25.7531 27.3973 25.7899 27.0658 26.0109 26.8448L26.3792 26.5133C26.6003 26.3291 26.8949 26.3291 27.1159 26.4765C27.3738 26.6606 27.8158 26.808 27.779 26.808C27.7421 26.7711 28.2578 26.5133 28.5525 26.3291C28.6998 26.2555 28.8103 26.1081 28.8103 25.9608L28.884 25.6293C28.9577 25.3714 29.1787 25.1873 29.4734 25.1873H29.9891C30.2837 25.1873 30.5047 25.4083 30.5784 25.6661L30.6152 25.924C30.6521 26.0713 30.7257 26.2186 30.8731 26.3291L31.4256 26.6975C31.6098 26.808 31.8676 26.8448 32.0518 26.6975L32.3465 26.5501C32.5675 26.4028 32.899 26.4396 33.0832 26.6606L33.3779 26.9553C33.562 27.1395 33.5989 27.4342 33.4515 27.6552L33.341 27.8025C33.2305 27.9499 33.2305 28.1709 33.3042 28.355L33.5989 28.9812C33.6725 29.1286 33.783 29.2391 33.9672 29.3127L34.2619 29.4233C34.5197 29.4969 34.6671 29.7179 34.6671 29.9758V30.4178C34.6671 30.7125 34.4461 30.9703 34.1514 31.0071H34.1145C33.9304 31.044 33.7462 31.1545 33.6357 31.3387L33.341 31.9649C33.2673 32.149 33.2673 32.3332 33.341 32.5174L33.4515 32.7384C33.562 32.9594 33.5252 33.2541 33.341 33.4382L32.8622 33.7329C32.678 33.9171 32.4201 33.9539 32.1991 33.8434L31.8308 33.6593C31.6835 33.5856 31.4624 33.5856 31.3151 33.6593L30.7994 33.9171C30.6521 33.9908 30.5047 34.1381 30.4679 34.3223L30.3942 34.617C30.3206 34.9116 30.0627 35.0958 29.768 35.059L29.2155 35.0221C28.9577 34.9853 28.7735 34.838 28.6998 34.5801L28.663 34.3591C28.6262 34.1749 28.4788 34.0276 28.2947 33.9539L27.7053 33.7329C27.5211 33.6593 27.3369 33.6961 27.1896 33.7698L27.0423 33.8434C26.8213 33.9908 26.4897 33.9539 26.3056 33.7329L25.9372 33.3646C25.7531 33.1804 25.7162 32.8857 25.8636 32.6647L25.9741 32.4805C26.0846 32.2964 26.0846 32.0385 25.9741 31.8175L25.532 31.1913C25.4584 31.0808 25.3479 31.0071 25.2374 30.9703L25.1269 30.9335C24.9059 30.8598 24.7217 30.6388 24.7217 30.381V30.0126C24.7217 29.7548 24.9059 29.5338 25.1637 29.4601L25.4584 29.3864C25.6057 29.3127 25.7162 29.2022 25.7899 29.0917Z" fill="white" stroke="#BAB2B5" stroke-width="0.580677" stroke-miterlimit="10"/>
<path id="Vector_12" d="M29.6202 32.6645C31.0239 32.6645 32.1618 31.5266 32.1618 30.1229C32.1618 28.7192 31.0239 27.5813 29.6202 27.5813C28.2165 27.5813 27.0786 28.7192 27.0786 30.1229C27.0786 31.5266 28.2165 32.6645 29.6202 32.6645Z" fill="white" stroke="#BAB2B5" stroke-width="0.580677" stroke-miterlimit="10"/>
</g>
</svg>
