<svg width="37" height="38" viewBox="0 0 37 38" fill="none" xmlns="http://www.w3.org/2000/svg">
<g id="Group">
<path id="Vector" d="M29.3208 32.4676H3.92973C2.3021 32.4676 1 31.1655 1 29.5378V6.02763C1 4.4 2.3021 3.0979 3.92973 3.0979H29.3208C30.9484 3.0979 32.2505 4.4 32.2505 6.02763V29.5378C32.2143 31.1655 30.9122 32.4676 29.3208 32.4676Z" fill="white" stroke="#BAB2B5" stroke-width="1.1303" stroke-miterlimit="10"/>
<path id="Vector_2" d="M29.1035 36.8077C33.0987 36.8077 36.3375 33.5689 36.3375 29.5738C36.3375 25.5786 33.0987 22.3398 29.1035 22.3398C25.1084 22.3398 21.8696 25.5786 21.8696 29.5738C21.8696 33.5689 25.1084 36.8077 29.1035 36.8077Z" fill="#FFE4F0" stroke="#BAB2B5" stroke-width="1.1303" stroke-miterlimit="10"/>
<path id="Vector_3" d="M8.12541 6.85947C7.11266 6.85947 6.28076 6.02757 6.28076 5.01482V2.84465C6.28076 1.8319 7.11266 1 8.12541 1C9.13816 1 9.97006 1.8319 9.97006 2.84465V5.01482C9.97006 6.02757 9.13816 6.85947 8.12541 6.85947Z" fill="#FFE4F0" stroke="#BAB2B5" stroke-width="1.1303" stroke-miterlimit="10"/>
<path id="Vector_4" d="M24.9076 6.85947C23.8949 6.85947 23.063 6.02757 23.063 5.01482V2.84465C23.063 1.8319 23.8949 1 24.9076 1C25.9204 1 26.7523 1.8319 26.7523 2.84465V5.01482C26.7523 6.02757 25.9204 6.85947 24.9076 6.85947Z" fill="#FFE4F0" stroke="#BAB2B5" stroke-width="1.1303" stroke-miterlimit="10"/>
<path id="Vector_5" d="M8.92046 19.0123H7.22049C6.53327 19.0123 5.99072 18.4697 5.99072 17.7825V16.0825C5.99072 15.3953 6.53327 14.8528 7.22049 14.8528H8.92046C9.60768 14.8528 10.1502 15.3953 10.1502 16.0825V17.7825C10.1864 18.4697 9.60768 19.0123 8.92046 19.0123Z" fill="white" stroke="#BAB2B5" stroke-width="1.1303" stroke-miterlimit="10"/>
<path id="Vector_6" d="M17.3482 19.0123H15.6482C14.961 19.0123 14.4185 18.4697 14.4185 17.7825V16.0825C14.4185 15.3953 14.961 14.8528 15.6482 14.8528H17.3482C18.0354 14.8528 18.578 15.3953 18.578 16.0825V17.7825C18.578 18.4697 18.0354 19.0123 17.3482 19.0123Z" fill="white" stroke="#BAB2B5" stroke-width="1.1303" stroke-miterlimit="10"/>
<path id="Vector_7" d="M8.92046 27.4398H7.22049C6.53327 27.4398 5.99072 26.8972 5.99072 26.21V24.51C5.99072 23.8228 6.53327 23.2803 7.22049 23.2803H8.92046C9.60768 23.2803 10.1502 23.8228 10.1502 24.51V26.21C10.1864 26.8972 9.60768 27.4398 8.92046 27.4398Z" fill="white" stroke="#BAB2B5" stroke-width="1.1303" stroke-miterlimit="10"/>
<path id="Vector_8" d="M17.3482 27.4398H15.6482C14.961 27.4398 14.4185 26.8972 14.4185 26.21V24.51C14.4185 23.8228 14.961 23.2803 15.6482 23.2803H17.3482C18.0354 23.2803 18.578 23.8228 18.578 24.51V26.21C18.578 26.8972 18.0354 27.4398 17.3482 27.4398Z" fill="white" stroke="#BAB2B5" stroke-width="1.1303" stroke-miterlimit="10"/>
<path id="Vector_9" d="M25.7398 19.0123H24.0398C23.3526 19.0123 22.8101 18.4697 22.8101 17.7825V16.0825C22.8101 15.3953 23.3526 14.8528 24.0398 14.8528H25.7398C26.427 14.8528 26.9696 15.3953 26.9696 16.0825V17.7825C27.0057 18.4697 26.427 19.0123 25.7398 19.0123Z" fill="white" stroke="#BAB2B5" stroke-width="1.1303" stroke-miterlimit="10"/>
<path id="Vector_10" d="M28.8145 26.7524V30.1162L32.5037 33.1545" stroke="#BAB2B5" stroke-width="1.1303" stroke-miterlimit="10" stroke-linecap="round" stroke-linejoin="round"/>
<path id="Vector_11" d="M1 10.042H32.2143" stroke="#BAB2B5" stroke-width="1.1303" stroke-miterlimit="10"/>
</g>
</svg>
