<svg width="30" height="36" viewBox="0 0 30 36" fill="none" xmlns="http://www.w3.org/2000/svg">
<g id="Group 526">
<path id="Vector" d="M6.09473 1.81493L9.64058 1.77417" stroke="#BAB2B5" stroke-miterlimit="10"/>
<path id="Vector_2" d="M3.16016 31.2417H5.72784" stroke="#BAB2B5" stroke-miterlimit="10"/>
<path id="Vector_3" d="M8.05053 30.9564V2.9564C8.05053 2.019 7.31691 1.24461 6.42026 1.20386H6.3795C5.44209 1.20386 4.62695 2.019 4.62695 2.9564V30.9564C4.62695 31.2417 4.87149 31.4455 5.11604 31.4455H7.52069C7.80599 31.4455 8.05053 31.2417 8.05053 30.9564Z" fill="white" stroke="#BAB2B5" stroke-miterlimit="10"/>
<path id="Vector_4" d="M1.20361 5.23861V30.0188C1.20361 30.7117 1.6927 31.323 2.38556 31.4453C2.71162 31.4861 3.03767 31.5268 3.44524 31.4453C4.13811 31.323 4.66795 30.7117 4.66795 30.0188V5.23861C4.66795 4.99407 4.46417 4.79028 4.21963 4.79028H1.65194C1.4074 4.79028 1.20361 4.99407 1.20361 5.23861Z" fill="white" stroke="#BAB2B5" stroke-miterlimit="10"/>
<path id="Vector_5" d="M8.05078 2.67111V33.9724C8.05078 34.38 8.58062 34.543 8.78441 34.1762L9.39576 33.1573C9.55879 32.9127 9.9256 32.9127 10.0886 33.1573L11.1075 34.8691C11.2706 35.1136 11.6374 35.1136 11.8004 34.8691L12.8193 33.198C12.9824 32.9535 13.3492 32.9535 13.5122 33.198L14.5311 34.9098C14.6942 35.1544 15.061 35.1544 15.224 34.9098L16.2429 33.198C16.4059 32.9535 16.7728 32.9535 16.9358 33.198L17.9547 34.9098C18.1177 35.1544 18.4846 35.1544 18.6476 34.9098L19.6665 33.198C19.8295 32.9535 20.1963 32.9535 20.3594 33.198L21.3783 34.9098C21.5413 35.1544 21.9081 35.1544 22.0712 34.9098L23.0901 33.198C23.2531 32.9535 23.6199 32.9535 23.783 33.198L24.8019 34.9098C24.9649 35.1544 25.3317 35.1544 25.4947 34.9098L26.5544 33.1573C26.7174 32.9127 27.0843 32.9127 27.2473 33.1165L28.0624 34.3392C28.307 34.6653 28.796 34.5023 28.796 34.0947V2.67111C28.796 1.85597 28.1439 1.20386 27.3288 1.20386H9.47727C8.70289 1.20386 8.05078 1.85597 8.05078 2.67111Z" fill="white" stroke="#BAB2B5" stroke-miterlimit="10"/>
<path id="Vector_6" d="M18.3218 14.6536C21.338 14.6536 23.7832 12.2084 23.7832 9.19214C23.7832 6.17588 21.338 3.73071 18.3218 3.73071C15.3055 3.73071 12.8604 6.17588 12.8604 9.19214C12.8604 12.2084 15.3055 14.6536 18.3218 14.6536Z" fill="#FFE4F0" stroke="#BAB2B5" stroke-miterlimit="10"/>
<path id="Vector_7" d="M18.1177 5.93157C18.1177 6.21687 18.1177 6.54292 18.1177 6.82822C18.1177 6.95049 18.1992 7.032 18.3215 7.032C18.4437 7.032 18.5252 6.95049 18.5252 6.82822C18.5252 6.54292 18.5252 6.21687 18.5252 5.93157C18.5252 5.8093 18.4437 5.72778 18.3215 5.72778C18.2399 5.76854 18.1177 5.85005 18.1177 5.93157Z" fill="#BAB2B5"/>
<path id="Vector_8" d="M18.5252 12.2489C18.5252 12.0044 18.5252 11.7598 18.5252 11.5153C18.5252 11.393 18.4437 11.3115 18.3215 11.3115C18.1992 11.3115 18.1177 11.393 18.1177 11.5153C18.1177 11.5561 18.1177 11.5968 18.1177 11.5968C18.1177 11.7191 18.1992 11.8006 18.3215 11.8006C18.4437 11.8006 18.5252 11.7191 18.5252 11.5968C18.5252 11.5561 18.5252 11.5153 18.5252 11.5153C18.403 11.5153 18.2399 11.5153 18.1177 11.5153C18.1177 11.7598 18.1177 12.0044 18.1177 12.2489C18.1177 12.3712 18.1992 12.4527 18.3215 12.4527C18.403 12.4527 18.5252 12.3712 18.5252 12.2489Z" fill="#BAB2B5"/>
<path id="Vector_9" d="M17.0175 10.4556C17.099 11.1892 17.7104 11.7191 18.444 11.6375C19.1369 11.556 19.6259 10.9447 19.6667 10.2518C19.6667 9.51818 19.0961 9.19213 18.4848 8.98834C18.1587 8.90683 17.8326 8.78456 17.6289 8.49926C17.4251 8.21396 17.4251 7.84715 17.5881 7.5211C17.7919 7.19504 18.1587 6.99125 18.5255 7.07277C18.9331 7.15428 19.2184 7.52109 19.2591 7.88791C19.2999 8.13245 19.7075 8.13245 19.6667 7.88791C19.6259 7.2358 19.0961 6.6652 18.444 6.62444C17.7919 6.58369 17.1805 7.07277 17.099 7.72488C17.0175 8.41775 17.4251 8.94759 18.0364 9.19213C18.3217 9.3144 18.6885 9.35516 18.9738 9.55894C19.2591 9.76273 19.3406 10.0888 19.2591 10.4148C19.1369 10.8224 18.8108 11.1485 18.4032 11.1485C17.9549 11.1892 17.5473 10.8224 17.4658 10.3741C17.3843 10.2111 16.9767 10.2111 17.0175 10.4556Z" fill="#BAB2B5"/>
<path id="Vector_10" d="M17.0174 16.8951C17.8325 16.8951 18.6477 16.8951 19.4628 16.8951C19.7073 16.8951 19.7073 16.4875 19.4628 16.4875C18.6477 16.4875 17.8325 16.4875 17.0174 16.4875C16.7728 16.4875 16.7728 16.8951 17.0174 16.8951Z" fill="#BAB2B5"/>
<path id="Vector_11" d="M10.7816 19.1368C13.553 19.1368 16.3652 19.1368 19.1367 19.1368C19.3813 19.1368 19.3813 18.7292 19.1367 18.7292C16.3652 18.7292 13.553 18.7292 10.7816 18.7292C10.537 18.7292 10.537 19.1368 10.7816 19.1368Z" fill="#BAB2B5"/>
<path id="Vector_12" d="M21.5416 19.1368C23.0904 19.1368 24.5984 19.1368 26.1471 19.1368C26.3917 19.1368 26.3917 18.7292 26.1471 18.7292C24.5984 18.7292 23.0904 18.7292 21.5416 18.7292C21.2563 18.7292 21.2563 19.1368 21.5416 19.1368Z" fill="#BAB2B5"/>
<path id="Vector_13" d="M10.7816 21.3783C13.553 21.3783 16.3652 21.3783 19.1367 21.3783C19.3813 21.3783 19.3813 20.9707 19.1367 20.9707C16.3652 20.9707 13.553 20.9707 10.7816 20.9707C10.537 20.9707 10.537 21.3783 10.7816 21.3783Z" fill="#BAB2B5"/>
<path id="Vector_14" d="M21.5416 21.3783C23.0904 21.3783 24.5984 21.3783 26.1471 21.3783C26.3917 21.3783 26.3917 20.9707 26.1471 20.9707C24.5984 20.9707 23.0904 20.9707 21.5416 20.9707C21.2563 20.9707 21.2563 21.3783 21.5416 21.3783Z" fill="#BAB2B5"/>
<path id="Vector_15" d="M10.7816 23.661C13.553 23.661 16.3652 23.661 19.1367 23.661C19.3813 23.661 19.3813 23.2534 19.1367 23.2534C16.3652 23.2534 13.553 23.2534 10.7816 23.2534C10.537 23.2534 10.537 23.661 10.7816 23.661Z" fill="#BAB2B5"/>
<path id="Vector_16" d="M21.5416 23.661C23.0904 23.661 24.5984 23.661 26.1471 23.661C26.3917 23.661 26.3917 23.2534 26.1471 23.2534C24.5984 23.2534 23.0904 23.2534 21.5416 23.2534C21.2563 23.2534 21.2563 23.661 21.5416 23.661Z" fill="#BAB2B5"/>
<path id="Vector_17" d="M10.7816 25.9432C13.553 25.9432 16.3652 25.9432 19.1367 25.9432C19.3813 25.9432 19.3813 25.5356 19.1367 25.5356C16.3652 25.5356 13.553 25.5356 10.7816 25.5356C10.537 25.5356 10.537 25.9432 10.7816 25.9432Z" fill="#BAB2B5"/>
<path id="Vector_18" d="M21.5416 25.9432C23.0904 25.9432 24.5984 25.9432 26.1471 25.9432C26.3917 25.9432 26.3917 25.5356 26.1471 25.5356C24.5984 25.5356 23.0904 25.5356 21.5416 25.5356C21.2563 25.5356 21.2563 25.9432 21.5416 25.9432Z" fill="#BAB2B5"/>
<path id="Vector_19" d="M10.7816 28.2257C13.553 28.2257 16.3652 28.2257 19.1367 28.2257C19.3813 28.2257 19.3813 27.8181 19.1367 27.8181C16.3652 27.8181 13.553 27.8181 10.7816 27.8181C10.537 27.8181 10.537 28.2257 10.7816 28.2257Z" fill="#BAB2B5"/>
<path id="Vector_20" d="M21.5416 28.2257C23.0904 28.2257 24.5984 28.2257 26.1471 28.2257C26.3917 28.2257 26.3917 27.8181 26.1471 27.8181C24.5984 27.8181 23.0904 27.8181 21.5416 27.8181C21.2563 27.8181 21.2563 28.2257 21.5416 28.2257Z" fill="#BAB2B5"/>
<path id="Vector_21" d="M21.5416 30.5079C23.0904 30.5079 24.5984 30.5079 26.1471 30.5079C26.3917 30.5079 26.3917 30.1003 26.1471 30.1003C24.5984 30.1003 23.0904 30.1003 21.5416 30.1003C21.2563 30.1003 21.2563 30.5079 21.5416 30.5079Z" fill="#BAB2B5"/>
</g>
</svg>
