<?xml version="1.0" encoding="UTF-8"?>
<svg id="Layer_2" data-name="Layer 2" xmlns="http://www.w3.org/2000/svg" viewBox="0 0 29 29">
  <g id="Layer_1-2" data-name="Layer 1">
    <g>
      <path d="m4.35,12.21c.11.07.25.09.38.05.13-.03.24-.12.3-.23.27-.46.58-.9.93-1.31.18-.21.16-.52-.05-.7-.21-.18-.52-.16-.7.05-.39.45-.74.94-1.04,1.46-.07.11-.09.25-.05.38.03.13.12.24.23.3Zm4.55,8.39c.13,0,.26-.05.35-.15l3.68-3.68c.09-.09.15-.22.15-.35v-5.25c0-.13-.05-.26-.15-.35-.09-.09-.22-.15-.35-.15s-.26.05-.35.15c-.09.09-.15.22-.15.35v5.05l-3.53,3.53c-.09.09-.15.22-.15.35s.05.26.15.35c.09.09.22.15.35.15Z" style="fill: #edac1f;"/>
      <path d="m29,6.62c0-3.65-2.97-6.62-6.62-6.62-2.86,0-5.3,1.83-6.22,4.37-1.16-.34-2.36-.52-3.59-.52-6.93,0-12.57,5.64-12.57,12.57s5.64,12.58,12.58,12.58,12.57-5.64,12.57-12.58c0-1.22-.18-2.43-.53-3.58,2.55-.92,4.38-3.36,4.38-6.22Zm-4.84,9.81c0,6.39-5.19,11.58-11.58,11.58S1,22.81,1,16.42,6.19,4.85,12.58,4.85c1.13,0,2.24.17,3.31.49-.08.42-.13.86-.13,1.29,0,.21.01.42.03.63-.67-.23-1.37-.4-2.09-.48-2.17-.25-4.3.21-6.16,1.34-.23.14-.31.45-.17.68.09.15.25.24.43.24.09,0,.18-.02.26-.07,1.24-.75,2.6-1.17,4.02-1.25v1.25c0,.13.05.26.15.35.09.09.22.15.35.15s.26-.05.35-.15c.09-.09.15-.22.15-.35v-1.24c.17.01.34.02.52.04.84.1,1.65.32,2.42.65.62,2.22,2.37,3.96,4.59,4.59.4.93.63,1.93.69,2.94h-1.25c-.13,0-.26.05-.35.15-.09.09-.15.22-.15.35s.05.26.15.35c.09.09.22.15.35.15h1.25c0,.17-.02.35-.04.52-.21,1.8-.96,3.44-2.13,4.76l-.88-.88c-.2-.19-.51-.19-.7,0-.19.2-.19.51,0,.7l.88.87c-.14.12-.27.25-.42.37-1.43,1.13-3.14,1.76-4.92,1.86v-1.24c0-.13-.05-.26-.15-.35-.09-.09-.22-.15-.35-.15s-.26.05-.35.15c-.09.09-.15.22-.15.35v1.24c-.17,0-.34-.02-.52-.03-1.94-.23-3.65-1.08-4.97-2.33l.9-.85c.1-.09.15-.22.16-.35,0-.13-.05-.26-.14-.36-.09-.1-.22-.15-.35-.16-.13,0-.26.05-.36.14l-.9.85c-1.19-1.41-1.93-3.19-2.04-5.12h1.24c.13,0,.26-.05.35-.15.09-.09.15-.22.15-.35s-.05-.26-.15-.35c-.09-.09-.22-.15-.35-.15h-1.24c0-.17.01-.34.03-.52.03-.27-.17-.51-.44-.54-.27-.03-.51.16-.55.43-.3,2.58.42,5.12,2.03,7.16,1.61,2.04,3.92,3.33,6.5,3.63.38.05.77.07,1.15.07,2.18,0,4.28-.73,6.01-2.1,2.04-1.61,3.33-3.92,3.63-6.5.17-1.47,0-2.95-.48-4.35.21.02.42.03.63.03.44,0,.87-.05,1.29-.13.32,1.07.49,2.18.49,3.31Zm-1.77-4.18c-3.1,0-5.62-2.52-5.62-5.62S19.28,1,22.38,1s5.62,2.52,5.62,5.62-2.52,5.62-5.62,5.62Z" style="fill: #edac1f;"/>
      <path d="m22.24,3.31c-1.51,0-2.79,1.02-3.18,2.4l-.16-.21c-.17-.22-.48-.26-.7-.1-.22.17-.26.48-.1.7l.82,1.08c.13.17.35.24.56.17l1.22-.41c.26-.09.4-.37.31-.63-.09-.26-.37-.4-.63-.31l-.4.14c.22-1.04,1.15-1.83,2.26-1.83,1.28,0,2.31,1.04,2.31,2.31s-1.04,2.31-2.31,2.31c-.31,0-.62-.06-.9-.18-.25-.11-.54.01-.65.26-.11.25.01.54.26.65.41.17.84.26,1.29.26,1.82,0,3.31-1.49,3.31-3.31,0-1.83-1.48-3.31-3.31-3.31Z" style="fill: #edac1f;"/>
    </g>
  </g>
</svg>