<svg width="32" height="30" viewBox="0 0 32 30" fill="none" xmlns="http://www.w3.org/2000/svg">
<g id="Group">
<path id="Vector" d="M1.4043 12.0641V21.5905C1.4043 25.5247 4.59468 28.724 8.53785 28.724H10.6439H23.2172C27.1514 28.724 30.3507 25.5336 30.3507 21.5905V11.9476C30.3507 10.0836 29.3829 8.34501 27.7966 7.35922L19.05 1.95528C17.1053 0.754408 14.6498 0.754408 12.7051 1.95528L4.06594 7.29648C2.40801 8.31812 1.4043 10.1194 1.4043 12.0641Z" stroke="#757575" stroke-width="1.79235" stroke-miterlimit="10"/>
<path id="Vector_2" d="M10.9941 23.1229V28.7151H20.6459V22.9079C20.6459 21.5009 20.0455 20.1656 18.988 19.2246C17.2136 17.6563 14.543 17.6832 12.8044 19.2873L12.5714 19.5024C11.5677 20.4434 10.9941 21.7518 10.9941 23.1229Z" stroke="#757575" stroke-width="1.79235" stroke-miterlimit="10"/>
</g>
</svg>
