<svg width="27" height="30" viewBox="0 0 27 30" fill="none" xmlns="http://www.w3.org/2000/svg">
<g clip-path="url(#clip0_45_6794)">
<path d="M1.56787 7.70786V25.3924C1.56787 27.1242 2.97242 28.5287 4.70417 28.5287H19.0529C20.7847 28.5287 22.1892 27.1242 22.1892 25.3924V12.6078C22.1892 11.2113 21.6306 9.87055 20.649 8.88098L17.9277 6.15967C16.9461 5.17808 15.6134 4.61945 14.2248 4.61945L4.72013 4.57157C2.9804 4.56359 1.56787 5.96814 1.56787 7.70786Z" stroke="#757575" stroke-width="1.59608" stroke-miterlimit="10"/>
<path d="M16.1958 5.25806V8.62578C16.1958 10.0144 17.321 11.1316 18.7016 11.1316H21.4868" stroke="#757575" stroke-width="1.59608" stroke-miterlimit="10"/>
<path d="M22.1888 24.9696H23.1305C24.7904 24.9696 26.1391 23.6209 26.1391 21.961V9.33597C26.1391 7.8596 25.5565 6.44707 24.5111 5.40962L21.7898 2.6883C20.7443 1.64287 19.3318 1.0603 17.8554 1.0603H9.53986C7.87994 1.0603 6.53125 2.40899 6.53125 4.06891" stroke="#757575" stroke-width="1.59608" stroke-miterlimit="10"/>
<path d="M6.53125 11.5466H12.2612" stroke="#757575" stroke-width="1.59608" stroke-miterlimit="10"/>
<path d="M5.76514 16.5422H11.0721" stroke="#757575" stroke-width="1.59608" stroke-miterlimit="10"/>
<path d="M5.76514 23.0063H18.845" stroke="#757575" stroke-width="1.59608" stroke-miterlimit="10"/>
</g>
<defs>
<clipPath id="clip0_45_6794">
<rect width="26.1677" height="29.0646" fill="white" transform="translate(0.769531 0.262207)"/>
</clipPath>
</defs>
</svg>
