<svg width="37" height="38" viewBox="0 0 37 38" fill="none" xmlns="http://www.w3.org/2000/svg">
<g id="Group">
<path id="Vector" d="M29.3682 32.536H4.09618C2.47618 32.536 1.18018 31.24 1.18018 29.62V6.21996C1.18018 4.59996 2.47618 3.30396 4.09618 3.30396H29.3682C30.9882 3.30396 32.2842 4.59996 32.2842 6.21996V29.62C32.2482 31.24 30.9522 32.536 29.3682 32.536Z" fill="white" stroke="#FF7AAA" stroke-miterlimit="10"/>
<path id="Vector_2" d="M29.1521 36.8561C33.1286 36.8561 36.3521 33.6325 36.3521 29.6561C36.3521 25.6796 33.1286 22.4561 29.1521 22.4561C25.1757 22.4561 21.9521 25.6796 21.9521 29.6561C21.9521 33.6325 25.1757 36.8561 29.1521 36.8561Z" fill="#FFE4F0" stroke="#FF7AAA" stroke-miterlimit="10"/>
<path id="Vector_3" d="M8.27204 7.04806C7.26404 7.04806 6.43604 6.22006 6.43604 5.21206V3.05206C6.43604 2.04406 7.26404 1.21606 8.27204 1.21606C9.28004 1.21606 10.108 2.04406 10.108 3.05206V5.21206C10.108 6.22006 9.28004 7.04806 8.27204 7.04806Z" fill="white" stroke="#FF7AAA" stroke-miterlimit="10"/>
<path id="Vector_4" d="M24.9761 7.04806C23.9681 7.04806 23.1401 6.22006 23.1401 5.21206V3.05206C23.1401 2.04406 23.9681 1.21606 24.9761 1.21606C25.9841 1.21606 26.8121 2.04406 26.8121 3.05206V5.21206C26.8121 6.22006 25.9841 7.04806 24.9761 7.04806Z" fill="white" stroke="#FF7AAA" stroke-miterlimit="10"/>
<path id="Vector_5" d="M9.06395 19.1439H7.37195C6.68795 19.1439 6.14795 18.6039 6.14795 17.9199V16.2279C6.14795 15.5439 6.68795 15.0039 7.37195 15.0039H9.06395C9.74795 15.0039 10.2879 15.5439 10.2879 16.2279V17.9199C10.3239 18.6039 9.74795 19.1439 9.06395 19.1439Z" fill="white" stroke="#FF7AAA" stroke-miterlimit="10"/>
<path id="Vector_6" d="M17.4521 19.1439H15.7601C15.0761 19.1439 14.5361 18.6039 14.5361 17.9199V16.2279C14.5361 15.5439 15.0761 15.0039 15.7601 15.0039H17.4521C18.1361 15.0039 18.6761 15.5439 18.6761 16.2279V17.9199C18.6761 18.6039 18.1361 19.1439 17.4521 19.1439Z" fill="white" stroke="#FF7AAA" stroke-miterlimit="10"/>
<path id="Vector_7" d="M9.06395 27.5321H7.37195C6.68795 27.5321 6.14795 26.9921 6.14795 26.3081V24.6161C6.14795 23.9321 6.68795 23.3921 7.37195 23.3921H9.06395C9.74795 23.3921 10.2879 23.9321 10.2879 24.6161V26.3081C10.3239 26.9921 9.74795 27.5321 9.06395 27.5321Z" fill="#FF7AAA" stroke="#FF7AAA" stroke-miterlimit="10"/>
<path id="Vector_8" d="M17.4521 27.5321H15.7601C15.0761 27.5321 14.5361 26.9921 14.5361 26.3081V24.6161C14.5361 23.9321 15.0761 23.3921 15.7601 23.3921H17.4521C18.1361 23.3921 18.6761 23.9321 18.6761 24.6161V26.3081C18.6761 26.9921 18.1361 27.5321 17.4521 27.5321Z" fill="white" stroke="#FF7AAA" stroke-miterlimit="10"/>
<path id="Vector_9" d="M25.8042 19.1439H24.1122C23.4282 19.1439 22.8882 18.6039 22.8882 17.9199V16.2279C22.8882 15.5439 23.4282 15.0039 24.1122 15.0039H25.8042C26.4882 15.0039 27.0282 15.5439 27.0282 16.2279V17.9199C27.0642 18.6039 26.4882 19.1439 25.8042 19.1439Z" fill="white" stroke="#FF7AAA" stroke-miterlimit="10"/>
<path id="Vector_10" d="M1.18018 10.2158H32.2482" stroke="#FF7AAA" stroke-miterlimit="10"/>
<path id="Vector_11" d="M26.5239 27L31.7799 32.256" stroke="#FF7AAA" stroke-miterlimit="10" stroke-linecap="round" stroke-linejoin="round"/>
<path id="Vector_12" d="M31.5997 27L26.3438 32.256" stroke="#FF7AAA" stroke-miterlimit="10" stroke-linecap="round" stroke-linejoin="round"/>
</g>
</svg>
