<svg width="34" height="39" viewBox="0 0 34 39" fill="none" xmlns="http://www.w3.org/2000/svg">
<g id="Group 527">
<path id="Vector" d="M31.6824 8.26922H2.91765C1.89193 8.26922 1 7.42189 1 6.35157V2.91765C1 1.89193 1.84733 1 2.91765 1H31.6824C32.7081 1 33.6 1.84733 33.6 2.91765V6.39617C33.6 7.42189 32.7527 8.26922 31.6824 8.26922Z" fill="white" stroke="#FF7AAA" stroke-width="0.465498" stroke-miterlimit="10"/>
<path id="Vector_2" d="M2.91765 8.22471H8.18003V1.04468H2.91765C1.89193 1.04468 1 1.89201 1 2.96232V6.35165C1 7.37737 1.84733 8.22471 2.91765 8.22471Z" fill="#FFE4F0" stroke="#FF7AAA" stroke-width="0.465498" stroke-miterlimit="10"/>
<path id="Vector_3" d="M3 4.80274L4.2041 6.00684L6.16635 4" stroke="#FF7AAA" stroke-miterlimit="10" stroke-linecap="round" stroke-linejoin="round"/>
<path id="Vector_4" d="M11.5693 3.72046H22.3171" stroke="#FF7AAA" stroke-width="0.465498" stroke-miterlimit="10" stroke-linecap="round" stroke-linejoin="round"/>
<path id="Vector_5" d="M11.5693 5.59326H28.8282" stroke="#FF7AAA" stroke-width="0.465498" stroke-miterlimit="10" stroke-linecap="round" stroke-linejoin="round"/>
<path id="Vector_6" d="M31.6824 18.1249H2.91765C1.89193 18.1249 1 17.2775 1 16.2072V12.7287C1 11.703 1.84733 10.811 2.91765 10.811H31.6824C32.7081 10.811 33.6 11.6584 33.6 12.7287V16.2072C33.6 17.2775 32.7527 18.1249 31.6824 18.1249Z" fill="white" stroke="#FF7AAA" stroke-width="0.465498" stroke-miterlimit="10"/>
<path id="Vector_7" d="M2.91765 18.0804H8.18003V10.9004H2.91765C1.89193 10.9004 1 11.7477 1 12.818V16.2074C1 17.2331 1.84733 18.0804 2.91765 18.0804Z" fill="#FFE4F0" stroke="#FF7AAA" stroke-width="0.465498" stroke-miterlimit="10"/>
<path id="Vector_8" d="M3 14.6584L4.2041 15.8626L6.16635 13.8557" stroke="#FF7AAA" stroke-miterlimit="10" stroke-linecap="round" stroke-linejoin="round"/>
<path id="Vector_9" d="M11.5693 13.5762H22.3171" stroke="#FF7AAA" stroke-width="0.465498" stroke-miterlimit="10" stroke-linecap="round" stroke-linejoin="round"/>
<path id="Vector_10" d="M11.5693 15.4492H28.8282" stroke="#FF7AAA" stroke-width="0.465498" stroke-miterlimit="10" stroke-linecap="round" stroke-linejoin="round"/>
<path id="Vector_11" d="M31.6824 28.0702H2.91765C1.89193 28.0702 1 27.2228 1 26.1525V22.674C1 21.6483 1.84733 20.7563 2.91765 20.7563H31.6824C32.7081 20.7563 33.6 21.6037 33.6 22.674V26.1525C33.6 27.2228 32.7527 28.0702 31.6824 28.0702Z" fill="white" stroke="#FF7AAA" stroke-width="0.465498" stroke-miterlimit="10"/>
<path id="Vector_12" d="M2.91765 27.9809H8.18003V20.8455H2.91765C1.89193 20.8455 1 21.6928 1 22.7631V26.1524C1 27.1336 1.84733 27.9809 2.91765 27.9809Z" fill="#FFE4F0" stroke="#FF7AAA" stroke-width="0.465498" stroke-miterlimit="10"/>
<path id="Vector_13" d="M3 24.6035L4.2041 25.763L6.16635 23.8008" stroke="#FF7AAA" stroke-miterlimit="10" stroke-linecap="round" stroke-linejoin="round"/>
<path id="Vector_14" d="M11.5693 23.4766H22.3171" stroke="#FF7AAA" stroke-width="0.465498" stroke-miterlimit="10" stroke-linecap="round" stroke-linejoin="round"/>
<path id="Vector_15" d="M11.5693 25.3496H28.8282" stroke="#FF7AAA" stroke-width="0.465498" stroke-miterlimit="10" stroke-linecap="round" stroke-linejoin="round"/>
<path id="Vector_16" d="M31.6824 37.9703H2.91765C1.89193 37.9703 1 37.123 1 36.0527V32.5741C1 31.5484 1.84733 30.6565 2.91765 30.6565H31.6824C32.7081 30.6565 33.6 31.5038 33.6 32.5741V36.0527C33.6 37.123 32.7527 37.9703 31.6824 37.9703Z" fill="white" stroke="#FF7AAA" stroke-width="0.465498" stroke-miterlimit="10"/>
<path id="Vector_17" d="M2.91765 37.9259H8.18003V30.7458H2.91765C1.89193 30.7458 1 31.5932 1 32.6635V36.0082C1 37.0785 1.84733 37.9259 2.91765 37.9259Z" fill="white" stroke="#FF7AAA" stroke-width="0.465498" stroke-miterlimit="10"/>
<path id="Vector_18" d="M11.5693 33.377H22.3171" stroke="#FF7AAA" stroke-width="0.465498" stroke-miterlimit="10" stroke-linecap="round" stroke-linejoin="round"/>
<path id="Vector_19" d="M11.5693 35.25H28.8282" stroke="#FF7AAA" stroke-width="0.465498" stroke-miterlimit="10" stroke-linecap="round" stroke-linejoin="round"/>
<path id="Vector_20" d="M3.45312 33L6.03972 35.5866" stroke="#FF7AAA" stroke-miterlimit="10" stroke-linecap="round" stroke-linejoin="round"/>
<path id="Vector_21" d="M5.90577 33L3.36377 35.5866" stroke="#FF7AAA" stroke-miterlimit="10" stroke-linecap="round" stroke-linejoin="round"/>
</g>
</svg>
