<?xml version="1.0" encoding="UTF-8"?>
<svg id="Layer_2" data-name="Layer 2" xmlns="http://www.w3.org/2000/svg" viewBox="0 0 84 24">
  <g id="Layer_1-2" data-name="Layer 1">
    <path d="m12,0h60c6.63,0,12,5.37,12,12h0c0,6.63-5.37,12-12,12H12C5.37,24,0,18.63,0,12h0C0,5.37,5.37,0,12,0Z" style="fill: rgba(239, 61, 79, .2);"/>
    <path d="m12,21.01c4.97,0,9-4.03,9-9S16.98,3,12,3,3,7.03,3,12s4.03,9,9,9Z" style="fill: #e46a76;"/>
    <path d="m9.4,9.4l5.2,5.2" style="fill: none; stroke: #fff; stroke-linecap: round; stroke-miterlimit: 10; stroke-width: 1.45px;"/>
    <path d="m14.6,9.4l-5.44,5.44" style="fill: none; stroke: #fff; stroke-linecap: round; stroke-miterlimit: 10; stroke-width: 1.45px;"/>
    <path d="m12,21.01c4.97,0,9-4.03,9-9S16.98,3,12,3,3,7.03,3,12s4.03,9,9,9Z" style="fill: #ef3d4f;"/>
    <path d="m9.4,9.4l5.2,5.2" style="fill: none; stroke: #fff; stroke-linecap: round; stroke-miterlimit: 10; stroke-width: 1.45px;"/>
    <path d="m14.6,9.4l-5.44,5.44" style="fill: none; stroke: #fff; stroke-linecap: round; stroke-miterlimit: 10; stroke-width: 1.45px;"/>
    <path d="m25.42,10.68v-2.06c0-.36.03-.64.1-.86.07-.23.16-.41.27-.55s.23-.26.35-.35v-.06h-2.2l.4-1.52h4.49v1.52c-.35,0-.65.11-.9.34-.25.23-.38.64-.38,1.24v2.3h-2.12Zm1.96,6.46c-.42,0-.78-.07-1.07-.2-.29-.13-.51-.33-.66-.59-.15-.27-.23-.61-.23-1.02v-6.07h2.12v5.81c0,.18.04.31.11.39.08.08.21.13.38.13.08,0,.16,0,.24-.03.08-.02.16-.04.24-.07l.2,1.35c-.18.09-.38.16-.61.21-.23.05-.47.07-.72.07Zm7.13,0c-.67,0-1.21-.13-1.62-.38-.4-.25-.69-.58-.86-.97h-.11l-.23,1.21h-1.61v-7.73h2.12v3.7c0,.54.06.98.18,1.33.12.34.3.59.54.76.24.17.52.25.85.25.4,0,.7-.12.9-.35.21-.24.31-.61.31-1.13v-4.56h2.12v5.02c0,.61-.1,1.13-.3,1.55-.19.42-.47.75-.86.97-.39.22-.86.32-1.42.32Zm.76-8.94v-3.2h1.95v3.2h-1.95Zm7.16,8.99c-1.15,0-2-.28-2.55-.83-.55-.56-.83-1.4-.83-2.5,0-.19,0-.41.01-.68.02-.27.04-.51.07-.72h3.39v1.34h-1.4v.2c0,.38.05.69.14.93.09.24.24.41.42.52.2.11.44.17.73.17.32,0,.59-.07.8-.21.23-.14.4-.38.51-.72.12-.34.18-.8.18-1.4,0-.56-.07-1.02-.2-1.38-.12-.38-.33-.66-.63-.85-.29-.19-.7-.28-1.21-.28-.28,0-.57.03-.87.1-.3.06-.59.13-.86.23-.26.09-.49.2-.69.31v-1.76c.21-.11.46-.21.76-.3.31-.08.64-.15,1-.2.36-.05.71-.07,1.06-.07.91,0,1.65.17,2.2.51.56.33.97.8,1.23,1.41.26.61.4,1.34.4,2.17s-.13,1.58-.38,2.19c-.24.59-.63,1.04-1.17,1.35-.54.31-1.24.47-2.1.47Zm8.07-.04c-.57,0-1.06-.11-1.45-.32-.39-.23-.68-.56-.89-1-.2-.44-.3-.98-.3-1.62v-4.92h2.12v4.56c0,.52.1.89.31,1.13.21.24.51.35.9.35.5,0,.88-.19,1.16-.56.27-.39.41-.98.41-1.78v-3.7h2.12v7.73h-1.61l-.23-1.19h-.13c-.16.38-.44.69-.83.95-.39.25-.91.38-1.58.38Zm2.72,3.54v-1.26c0-.24-.1-.35-.31-.35-.05,0-.09,0-.14.01-.05,0-.09.02-.14.04l-.1-1.02c.13-.05.32-.09.55-.14.23-.05.46-.07.69-.07.46,0,.79.09.97.27.19.19.28.44.28.76v1.75h-1.81Zm8.61-3.54c-.67,0-1.21-.13-1.62-.38-.4-.25-.69-.58-.86-.97h-.11l-.23,1.21h-1.61v-7.73h2.12v3.7c0,.54.06.98.18,1.33.12.34.3.59.54.76.24.17.52.25.85.25.4,0,.7-.12.9-.35.21-.24.31-.61.31-1.13v-4.56h2.12v5.02c0,.61-.1,1.13-.3,1.55-.19.42-.48.75-.86.97-.39.22-.86.32-1.42.32Zm.74-8.94c-.44,0-.79-.07-1.04-.2-.25-.13-.43-.3-.54-.49-.11-.21-.17-.42-.17-.65,0-.16.02-.33.07-.51.05-.19.12-.36.21-.52l1.54.2c-.02.07-.03.14-.04.21-.02.07-.03.13-.03.18,0,.13.04.24.13.31.08.07.21.1.39.1h3.03v1.37h-3.56Zm7.06,8.94c-.84,0-1.49-.17-1.96-.51-.46-.35-.79-.83-.97-1.44-.18-.62-.27-1.34-.27-2.16,0-.91.09-1.66.27-2.23.18-.57.45-1,.8-1.27.37-.27.81-.41,1.34-.41.33,0,.62.07.86.2.25.12.46.35.61.69h.06c.13-.35.35-.58.65-.71.3-.12.63-.18.97-.18.65,0,1.13.17,1.45.52.33.35.49.86.49,1.52v5.83h-2.12v-5.43c0-.29-.05-.49-.14-.59-.09-.1-.22-.16-.38-.16-.18,0-.32.05-.41.16-.08.1-.14.28-.17.52h-.83c-.04-.27-.11-.45-.21-.54-.1-.09-.23-.14-.37-.14-.24,0-.42.17-.55.51-.12.34-.18.91-.18,1.72,0,.53.04.98.11,1.35.08.37.23.65.42.85.2.19.48.28.85.28.11,0,.22,0,.31-.01.09-.02.17-.04.24-.07l.21,1.51c-.15.07-.32.11-.49.14-.18.03-.38.04-.59.04Zm-2.35-8.94v-.89l1.42-.59h5.04v1.48h-6.46Z" style="fill: #ef3d4f;"/>
  </g>
</svg>