<svg width="36" height="32" viewBox="0 0 36 32" fill="none" xmlns="http://www.w3.org/2000/svg">
<g id="Group">
<g id="Group 543">
<rect id="Rectangle 438" width="36" height="32" rx="4" fill="white"/>
<path id="Vector" d="M11.944 16.0643C11.0446 16.0643 10.315 15.3314 10.315 14.4399C10.315 13.5485 11.0446 12.8156 11.944 12.8156C12.8434 12.8156 13.583 13.5485 13.583 14.4399C13.583 15.3413 12.8534 16.0643 11.944 16.0643ZM11.944 13.5584C11.4543 13.5584 11.0446 13.9645 11.0446 14.4499C11.0446 14.9352 11.4543 15.3413 11.944 15.3413C12.4437 15.3413 12.8434 14.9352 12.8434 14.4499C12.8534 13.9546 12.4537 13.5584 11.944 13.5584ZM18.1101 8.79426C17.2107 8.79426 16.4711 8.06131 16.4711 7.16988C16.4711 6.27846 17.2107 5.55542 18.1101 5.55542C19.0095 5.55542 19.749 6.27846 19.749 7.16988C19.749 8.06131 19.0095 8.79426 18.1101 8.79426ZM18.1101 6.27846C17.6204 6.27846 17.2107 6.68455 17.2107 7.16988C17.2107 7.65522 17.6204 8.06131 18.1101 8.06131C18.5998 8.06131 19.0095 7.65522 19.0095 7.16988C19.0095 6.68455 18.6098 6.27846 18.1101 6.27846ZM24.2862 12.6868C23.3867 12.6868 22.6472 11.9539 22.6472 11.0624C22.6472 10.171 23.3867 9.44797 24.2862 9.44797C25.1856 9.44797 25.9151 10.1809 25.9151 11.0723C25.9151 11.9638 25.1856 12.6868 24.2862 12.6868ZM24.2862 10.171C23.7865 10.171 23.3867 10.5771 23.3867 11.0624C23.3867 11.5478 23.7865 11.9539 24.2862 11.9539C24.7758 11.9539 25.1856 11.5478 25.1856 11.0624C25.1856 10.5771 24.7758 10.171 24.2862 10.171ZM30.4422 6.23884C29.5428 6.23884 28.8033 5.50589 28.8033 4.61447C28.8033 3.72304 29.5428 3 30.4422 3C31.3417 3 32.0812 3.72304 32.0812 4.61447C32.0812 5.50589 31.3517 6.23884 30.4422 6.23884ZM30.4422 3.72304C29.9526 3.72304 29.5428 4.12914 29.5428 4.61447C29.5428 5.1097 29.9526 5.50589 30.4422 5.50589C30.9319 5.50589 31.3417 5.1097 31.3417 4.61447C31.3517 4.12914 30.9419 3.72304 30.4422 3.72304ZM19.6591 27.1576C19.4592 27.1576 19.2893 26.9991 19.2893 26.7911V12.974H16.9408V26.7911C16.9408 26.9892 16.7709 27.1576 16.5711 27.1576C16.3712 27.1576 16.2013 26.9991 16.2013 26.7911V12.9245C16.2013 12.5481 16.5111 12.2411 16.8909 12.2411H19.3293C19.7091 12.2411 20.0189 12.5481 20.0189 12.9245V26.7812C20.0289 26.9892 19.859 27.1576 19.6591 27.1576ZM25.8252 27.1576C25.6253 27.1576 25.4554 26.9991 25.4554 26.7911V16.9656H23.0969V26.7911C23.0969 26.9892 22.937 27.1576 22.7272 27.1576C22.5273 27.1576 22.3574 26.9991 22.3574 26.7911V16.9161C22.3574 16.5397 22.6672 16.2327 23.0469 16.2327H25.4854C25.8652 16.2327 26.175 16.5397 26.175 16.9161V26.7911C26.185 26.9892 26.0251 27.1576 25.8252 27.1576ZM13.493 27.1576C13.2931 27.1576 13.1233 26.9991 13.1233 26.7911V19.6003H10.7748V26.7911C10.7748 26.9892 10.6149 27.1576 10.405 27.1576C10.2051 27.1576 10.0352 26.9991 10.0352 26.7911V19.5607C10.0352 19.1843 10.345 18.8773 10.7248 18.8773H13.1632C13.543 18.8773 13.8528 19.1843 13.8528 19.5607V26.7911C13.8528 26.9892 13.6929 27.1576 13.493 27.1576ZM7.32694 27.1576C7.12707 27.1576 6.95718 26.9991 6.95718 26.7911V22.859H4.60867V26.7911C4.60867 26.9892 4.43878 27.1576 4.23891 27.1576C4.03903 27.1576 3.86914 26.9991 3.86914 26.7911V22.8193C3.86914 22.443 4.17894 22.1359 4.5587 22.1359H6.99715C7.37691 22.1359 7.68671 22.443 7.68671 22.8193V26.7911C7.68671 26.9892 7.53681 27.1576 7.32694 27.1576ZM31.9913 27.1576C31.7914 27.1576 31.6215 26.9991 31.6215 26.7911V10.171H29.273V26.7911C29.273 26.9892 29.1031 27.1576 28.9032 27.1576C28.7034 27.1576 28.5335 26.9991 28.5335 26.7911V10.1314C28.5335 9.75502 28.8433 9.44797 29.223 9.44797H31.6615C32.0412 9.44797 32.351 9.75502 32.351 10.1314V26.7911C32.361 26.9892 32.1911 27.1576 31.9913 27.1576Z" fill="#FF7AAA"/>
<path id="Vector_2" d="M12.7236 13.8158C12.6437 13.8158 12.5538 13.7861 12.4838 13.7267C12.3339 13.588 12.3139 13.3602 12.4438 13.2116L17.0509 7.92252C17.1808 7.77395 17.4207 7.75414 17.5706 7.8829C17.7205 8.02156 17.7405 8.24937 17.6105 8.39794L13.0035 13.6871C12.9335 13.7762 12.8336 13.8158 12.7236 13.8158ZM25.0758 10.4383C24.9858 10.4383 24.8859 10.3987 24.816 10.3294C24.676 10.1907 24.6661 9.95298 24.806 9.81432L29.2931 5.24824C29.433 5.10958 29.6729 5.09967 29.8128 5.23834C29.9527 5.37701 29.9627 5.61472 29.8228 5.75338L25.3356 10.3294C25.2557 10.4086 25.1657 10.4383 25.0758 10.4383ZM23.207 10.7553C23.137 10.7553 23.0671 10.7355 23.0171 10.6958L18.9897 8.16023C18.8198 8.05128 18.7698 7.82347 18.8797 7.66499C18.9897 7.49661 19.2195 7.44709 19.3794 7.55604L23.4069 10.1016C23.5767 10.2006 23.6267 10.4383 23.5168 10.5968C23.4468 10.6958 23.3269 10.7553 23.207 10.7553ZM6.93732 18.263C6.82739 18.263 6.71746 18.2135 6.64751 18.1244C6.52758 17.9659 6.55756 17.7381 6.71746 17.6093L10.575 14.6874C10.7349 14.5686 10.9648 14.5983 11.0947 14.7568C11.2146 14.9152 11.1846 15.1431 11.0247 15.2718L7.16718 18.2036C7.08723 18.2432 7.01727 18.263 6.93732 18.263Z" fill="#FF7AAA"/>
<path id="Vector_3" d="M5.78759 20.046C4.88816 20.046 4.14863 19.313 4.14863 18.4216C4.14863 17.5302 4.88816 16.8071 5.78759 16.8071C6.68702 16.8071 7.42655 17.5302 7.42655 18.4216C7.41656 19.3229 6.68702 20.046 5.78759 20.046ZM5.78759 17.5302C5.2979 17.5302 4.88816 17.9363 4.88816 18.4216C4.88816 18.9069 5.2979 19.313 5.78759 19.313C6.27728 19.313 6.68702 18.9069 6.68702 18.4216C6.68702 17.9363 6.27728 17.5302 5.78759 17.5302ZM32.9203 29.0097H3.30917C2.58963 29.0097 2 28.4353 2 27.7122C2 26.9991 2.58963 26.4246 3.30917 26.4246H32.9303C33.6499 26.4246 34.2395 26.9991 34.2395 27.7122C34.2295 28.4353 33.6399 29.0097 32.9203 29.0097ZM3.30917 27.1576C2.98937 27.1576 2.73953 27.4151 2.73953 27.7221C2.73953 28.0391 2.98937 28.2867 3.30917 28.2867H32.9303C33.2501 28.2867 33.5 28.0292 33.5 27.7221C33.5 27.4151 33.2501 27.1576 32.9303 27.1576H3.30917Z" fill="#FF7AAA"/>
</g>
</g>
</svg>
