<svg width="29" height="29" viewBox="0 0 29 29" fill="none" xmlns="http://www.w3.org/2000/svg">
<g clip-path="url(#clip0_45_6778)">
<path d="M14.5691 28.0274C22.0416 28.0274 28.0992 21.9698 28.0992 14.4974C28.0992 7.0249 22.0416 0.967285 14.5691 0.967285C7.09668 0.967285 1.03906 7.0249 1.03906 14.4974C1.03906 21.9698 7.09668 28.0274 14.5691 28.0274Z" stroke="#757575" stroke-width="1.79235" stroke-miterlimit="10"/>
<path d="M8.27734 26.1512V21.2179C8.27734 19.2204 9.40148 17.4007 11.1807 16.503C13.6473 15.2576 16.583 15.387 18.9283 16.8508L19.0335 16.9155C20.5862 17.8779 21.5244 19.5762 21.5244 21.404V26.1593" stroke="#757575" stroke-width="1.79235" stroke-miterlimit="10"/>
<path d="M14.9007 15.3465C17.326 15.3465 19.2921 13.3804 19.2921 10.9551C19.2921 8.52982 17.326 6.56372 14.9007 6.56372C12.4754 6.56372 10.5093 8.52982 10.5093 10.9551C10.5093 13.3804 12.4754 15.3465 14.9007 15.3465Z" stroke="#757575" stroke-width="1.79235" stroke-miterlimit="10"/>
</g>
<defs>
<clipPath id="clip0_45_6778">
<rect width="28.6776" height="28.6776" fill="white" transform="translate(0.230469 0.158447)"/>
</clipPath>
</defs>
</svg>
