<?xml version="1.0" encoding="UTF-8"?>
<svg id="Layer_2" data-name="Layer 2" xmlns="http://www.w3.org/2000/svg" xmlns:xlink="http://www.w3.org/1999/xlink" viewBox="0 0 17 16.99">
  <defs>
    <mask id="mask" x="0" y="0" width="17" height="17" maskUnits="userSpaceOnUse">
      <g id="mask0_0_1" data-name="mask0 0 1">
        <path d="m17,0H0v17h17V0Z" style="fill: #fff;"/>
      </g>
    </mask>
    <mask id="mask-1" x="0" y="0" width="17" height="17" maskUnits="userSpaceOnUse">
      <g id="mask1_0_1" data-name="mask1 0 1">
        <path d="m17,0H0v17h17V0Z" style="fill: #fff;"/>
      </g>
    </mask>
    <mask id="mask-2" x="0" y="0" width="17" height="17" maskUnits="userSpaceOnUse">
      <g id="mask2_0_1" data-name="mask2 0 1">
        <path d="m17,0H0v17h17V0Z" style="fill: #fff;"/>
      </g>
    </mask>
    <mask id="mask-3" x="0" y="0" width="17" height="17" maskUnits="userSpaceOnUse">
      <g id="mask3_0_1" data-name="mask3 0 1">
        <path d="m17,0H0v17h17V0Z" style="fill: #fff;"/>
      </g>
    </mask>
  </defs>
  <g id="Layer_1-2" data-name="Layer 1">
    <g>
      <g style="mask: url(#mask);">
        <path d="m16.73,8.76c-.15,0-.26-.12-.26-.27,0-1.77-.58-3.5-1.68-4.89-.05-.05-.07-.13-.07-.2,0-.07.04-.14.1-.19.06-.05.13-.06.21-.05.07.01.14.05.18.11,1.17,1.49,1.8,3.33,1.79,5.22,0,.15-.12.27-.27.27Zm-3.67-6.85c-.05,0-.1-.02-.15-.04-2.67-1.78-6.14-1.78-8.81,0-.06.04-.13.05-.2.04-.07-.01-.13-.05-.17-.11-.08-.12-.05-.29.07-.37,2.85-1.89,6.56-1.88,9.4.02.1.07.14.19.11.3-.03.11-.14.19-.25.19h0s0,0,0,0ZM.27,8.76C.12,8.76,0,8.64,0,8.49,0,6.19.92,3.99,2.58,2.39c.11-.1.28-.1.38,0,.1.11.1.28,0,.38-1.55,1.49-2.42,3.56-2.42,5.71,0,.15-.12.27-.26.27Zm13,6.72c-.1,0-.2-.06-.24-.15-.04-.09-.03-.2.04-.28.64-.77,1.1-1.88,1.38-3.32,0-.07.05-.14.11-.18.06-.04.13-.06.2-.04.07.01.13.06.17.12s.05.14.03.21c-.3,1.53-.8,2.73-1.5,3.56-.05.06-.13.09-.2.09Zm1.71-5.67h-.01c-.15,0-.26-.13-.25-.28.03-.48.03-.84.03-1.02,0-2.44-1.42-4.66-3.63-5.68-.13-.07-.18-.22-.12-.35.06-.13.21-.19.34-.14,2.4,1.11,3.94,3.51,3.95,6.15,0,.19,0,.56-.03,1.06,0,.14-.13.26-.27.25Z" style="fill: #b72137;"/>
      </g>
      <path d="m1.05,11.58c-.12,0-.22-.08-.26-.19-.03-.11,0-.23.11-.3.74-.49.83-1.64.83-2.59,0-3.74,3.03-6.77,6.77-6.77.15,0,.26.12.26.27s-.12.27-.26.27c-3.45,0-6.24,2.79-6.24,6.24,0,1.09-.12,2.41-1.07,3.04-.04.03-.09.05-.14.05Z" style="fill: #b72137;"/>
      <g style="mask: url(#mask-1);">
        <path d="m10.7,16.61c-.11,0-.2-.06-.24-.16-.04-.1-.02-.21.05-.29,2.17-2.23,2.5-5.76,2.5-7.66,0-1.61-.86-3.1-2.26-3.9-1.4-.8-3.12-.8-4.51.02-.12.06-.27.01-.35-.11-.07-.12-.03-.27.08-.35,1.56-.91,3.48-.92,5.04-.02,1.56.9,2.53,2.56,2.53,4.36,0,1.98-.34,5.66-2.65,8.03-.05.05-.12.08-.19.08Zm-6.96-7.85c-.15,0-.27-.12-.27-.27,0-1.17.41-2.3,1.15-3.2.04-.06.11-.1.18-.11.07,0,.15.01.2.06.06.05.09.11.1.19,0,.07-.02.14-.07.2-.66.81-1.03,1.82-1.03,2.86,0,.15-.12.27-.26.27Zm-2.07,4.6c-.13,0-.25-.1-.27-.23-.02-.13.06-.26.19-.29,1.12-.31,1.57-1.92,1.74-2.85.03-.14.17-.24.31-.21.15.03.24.17.21.31-.19,1.05-.71,2.88-2.12,3.27-.02,0-.05,0-.07,0Z" style="fill: #b72137;"/>
      </g>
      <g style="mask: url(#mask-2);">
        <path d="m8.22,16.99c-.12,0-.22-.07-.25-.18-.04-.11,0-.23.1-.3,2.3-1.7,2.99-4.53,3.15-6.61.01-.15.14-.26.29-.24.15.01.26.14.24.29-.18,2.18-.91,5.18-3.37,6.99-.05.03-.1.05-.16.05Zm-5.46-2.32c-.15.01-.28-.09-.29-.24-.01-.15.09-.28.24-.29,2.36-.43,2.48-4.78,2.48-5.65,0-1.54,1.07-2.88,2.58-3.21,1.5-.34,3.04.41,3.7,1.8.03.06.04.14.01.21-.02.07-.07.12-.14.15-.06.03-.14.03-.21,0s-.12-.08-.15-.14c-.56-1.17-1.85-1.8-3.11-1.51-1.26.28-2.16,1.4-2.16,2.7,0,1.33-.21,5.68-2.92,6.17-.01,0-.03,0-.04,0Zm3.11,1.9c-.13,0-.24-.09-.26-.21-.03-.12.04-.25.16-.3.95-.4,1.74-1.12,2.21-2.03.07-.13.23-.18.36-.11.13.07.18.23.1.36-.54,1.02-1.41,1.82-2.48,2.27-.03.01-.06.02-.1.02Z" style="fill: #b72137;"/>
      </g>
      <g style="mask: url(#mask-3);">
        <path d="m8.88,12.99s-.08,0-.11-.02c-.07-.03-.12-.08-.14-.15-.03-.07-.02-.14,0-.2.58-1.3.88-2.7.9-4.12,0-.57-.46-1.03-1.03-1.03s-1.03.46-1.03,1.03c0,.15-.12.27-.26.27s-.27-.12-.27-.27c0-.87.7-1.57,1.57-1.57s1.57.7,1.57,1.57c-.02,1.49-.34,2.97-.95,4.34-.04.1-.14.16-.24.16Zm-4.92,2.64c-.15,0-.27-.11-.27-.26,0-.15.11-.27.26-.27,1.78-.09,2.5-2.36,2.79-4.26,0-.07.05-.14.11-.18.06-.04.13-.06.2-.05.14.02.24.16.22.3-.47,3-1.61,4.63-3.3,4.71h-.01Zm12.22-3.89s-.07,0-.1-.02c-.06-.03-.12-.08-.15-.14-.03-.06-.03-.14,0-.2.36-.92.54-1.9.54-2.89,0-.15.12-.27.27-.27s.26.12.26.27c0,1.05-.19,2.1-.57,3.08-.04.1-.14.17-.25.17Z" style="fill: #b72137;"/>
      </g>
    </g>
  </g>
</svg>