<svg width="36" height="36" viewBox="0 0 36 36" fill="none" xmlns="http://www.w3.org/2000/svg">
<g id="Group">
<path id="Vector" d="M35.4373 18.8342C35.4373 28.0029 28.0029 35.4373 18.8342 35.4373C9.65605 35.4373 2.22168 28.0029 2.22168 18.8342C2.22168 9.66543 9.65605 2.22168 18.8342 2.22168C28.0029 2.23105 35.4373 9.66543 35.4373 18.8342Z" fill="white"/>
<g id="Group_2">
<g id="Clip path group">
<mask id="mask0_146_5489" style="mask-type:luminance" maskUnits="userSpaceOnUse" x="0" y="0" width="36" height="36">
<g id="SVGID_2_">
<path id="Vector_2" d="M36 0H0V36H36V0Z" fill="white"/>
</g>
</mask>
<g mask="url(#mask0_146_5489)">
<path id="Vector_3" d="M20.409 18.8344C20.409 19.7062 19.7059 20.4094 18.834 20.4094C17.9621 20.4094 17.259 19.7062 17.259 18.8344C17.259 17.9625 17.9621 17.2594 18.834 17.2594C19.7059 17.2594 20.409 17.9625 20.409 18.8344ZM13.9871 7.275C13.9871 10.9875 10.9777 13.9875 7.26524 13.9875C3.56211 13.9875 0.552734 10.9875 0.552734 7.275C0.552734 3.5625 3.56211 0.5625 7.26524 0.5625C10.9777 0.5625 13.9871 3.5625 13.9871 7.275Z" fill="#FFE4F0"/>
</g>
</g>
<g id="Clip path group_2">
<mask id="mask1_146_5489" style="mask-type:luminance" maskUnits="userSpaceOnUse" x="0" y="0" width="36" height="36">
<g id="SVGID_2__2">
<path id="Vector_4" d="M36 0H0V36H36V0Z" fill="white"/>
</g>
</mask>
<g mask="url(#mask1_146_5489)">
<path id="Vector_5" d="M18.8434 1.66875C16.7715 1.66875 14.784 2.04375 12.9371 2.72813C11.5965 1.06875 9.55274 0 7.26524 0C3.25273 0 -0.00976562 3.2625 -0.00976562 7.275C-0.00976562 9.5625 1.05898 11.6063 2.71836 12.9469C2.04336 14.7844 1.66836 16.7719 1.66836 18.8438C1.66836 28.3031 9.37461 36.0094 18.8434 36.0094C28.3027 36.0094 36.009 28.3125 36.009 18.8438C35.9996 9.36563 28.3027 1.66875 18.8434 1.66875ZM1.11523 7.275C1.11523 3.88125 3.87148 1.125 7.26524 1.125C10.659 1.125 13.4246 3.88125 13.4246 7.275C13.4246 10.6687 10.659 13.425 7.26524 13.425C3.87148 13.425 1.11523 10.6687 1.11523 7.275ZM18.8434 34.875C9.99336 34.875 2.79336 27.6844 2.79336 18.8344C2.79336 17.0531 3.09336 15.2812 3.67461 13.5938C4.73398 14.1938 5.95273 14.55 7.26524 14.55C11.2777 14.55 14.5496 11.2875 14.5496 7.275C14.5496 5.97187 14.1934 4.74375 13.5934 3.68437C15.2434 3.1125 17.0059 2.79375 18.8434 2.79375C27.684 2.79375 34.884 9.99375 34.884 18.8438C34.8746 27.6844 27.684 34.875 18.8434 34.875Z" fill="#FF7AAA"/>
</g>
</g>
</g>
<path id="Vector_6" d="M19.3973 16.7812V10.4718C19.3973 10.1624 19.1441 9.90928 18.8348 9.90928C18.5254 9.90928 18.2723 10.1624 18.2723 10.4718V16.7812C17.5504 16.978 16.9785 17.5499 16.7816 18.2718H11.4473C11.1379 18.2718 10.8848 18.5249 10.8848 18.8343C10.8848 19.1437 11.1379 19.3968 11.4473 19.3968H16.7816C17.0348 20.3062 17.8504 20.9718 18.8348 20.9718C20.016 20.9718 20.9723 20.0155 20.9723 18.8343C20.9723 17.8499 20.3066 17.0249 19.3973 16.7812ZM18.8348 19.8468C18.2723 19.8468 17.8223 19.3874 17.8223 18.8343C17.8223 18.2718 18.2816 17.8218 18.8348 17.8218C19.3973 17.8218 19.8473 18.2812 19.8473 18.8343C19.8473 19.3968 19.3973 19.8468 18.8348 19.8468ZM18.8348 6.06553C19.1441 6.06553 19.3973 5.8124 19.3973 5.50303V5.11865C19.3973 4.80928 19.1441 4.55615 18.8348 4.55615C18.5254 4.55615 18.2723 4.80928 18.2723 5.11865V5.50303C18.2723 5.8124 18.5254 6.06553 18.8348 6.06553ZM18.8348 31.603C18.5254 31.603 18.2723 31.8562 18.2723 32.1655V32.5499C18.2723 32.8593 18.5254 33.1124 18.8348 33.1124C19.1441 33.1124 19.3973 32.8593 19.3973 32.5499V32.1655C19.3973 31.8562 19.1441 31.603 18.8348 31.603ZM28.1348 8.7374L27.8629 9.00928C27.6473 9.2249 27.6473 9.58115 27.8629 9.80615C28.0785 10.0218 28.4348 10.0218 28.6598 9.80615L28.9316 9.53428C29.0348 9.43115 29.1004 9.28115 29.1004 9.13115C29.1004 8.98115 29.0441 8.84053 28.9316 8.72803C28.8191 8.61553 28.6785 8.55928 28.5285 8.55928C28.3879 8.56865 28.2379 8.63428 28.1348 8.7374ZM9.00977 27.8624L8.73789 28.1343C8.52227 28.3499 8.52227 28.7062 8.73789 28.9312C8.95352 29.1468 9.30977 29.1468 9.53477 28.9312L9.80664 28.6593C10.0223 28.4437 10.0223 28.0874 9.80664 27.8624C9.59102 27.6468 9.23477 27.6468 9.00977 27.8624ZM32.5504 18.2718H32.166C31.8566 18.2718 31.6035 18.5249 31.6035 18.8343C31.6035 19.1437 31.8566 19.3968 32.166 19.3968H32.5504C32.8598 19.3968 33.1129 19.1437 33.1129 18.8343C33.1129 18.5249 32.8598 18.2718 32.5504 18.2718ZM5.50352 18.2718H5.11914C4.80977 18.2718 4.55664 18.5249 4.55664 18.8343C4.55664 19.1437 4.80977 19.3968 5.11914 19.3968H5.50352C5.81289 19.3968 6.06602 19.1437 6.06602 18.8343C6.06602 18.5249 5.81289 18.2718 5.50352 18.2718ZM28.6598 27.8624C28.4441 27.6468 28.0879 27.6468 27.8629 27.8624C27.6473 28.078 27.6473 28.4343 27.8629 28.6593L28.1348 28.9312C28.3504 29.1468 28.7066 29.1468 28.9316 28.9312C29.1473 28.7155 29.1473 28.3593 28.9316 28.1343L28.6598 27.8624ZM7.37852 9.36553H5.83164C5.52227 9.36553 5.26914 9.61865 5.26914 9.92803C5.26914 10.2374 5.52227 10.4905 5.83164 10.4905H6.71289V10.8562C6.71289 11.1655 6.96602 11.4187 7.27539 11.4187C7.58477 11.4187 7.83789 11.1655 7.83789 10.8562V10.4343C8.66289 10.228 9.27227 9.4874 9.27227 8.60615C9.27227 7.56553 8.42852 6.72178 7.38789 6.72178H7.16289C6.74102 6.72178 6.40352 6.3749 6.40352 5.9624C6.40352 5.54053 6.75039 5.20303 7.16289 5.20303H8.70977C9.01914 5.20303 9.27227 4.9499 9.27227 4.64053C9.27227 4.33115 9.01914 4.07803 8.70977 4.07803H7.83789V3.7124C7.83789 3.40303 7.58477 3.1499 7.27539 3.1499C6.96602 3.1499 6.71289 3.40303 6.71289 3.7124V4.13428C5.88789 4.32178 5.26914 5.0624 5.26914 5.94365C5.26914 6.98428 6.11289 7.82803 7.15352 7.82803H7.37852C7.80039 7.82803 8.13789 8.1749 8.13789 8.5874C8.14727 9.01865 7.80039 9.36553 7.37852 9.36553Z" fill="#FF7AAA"/>
</g>
</svg>
