<svg width="156" height="156" viewBox="0 0 156 156" fill="none" xmlns="http://www.w3.org/2000/svg">
<g id="Group 542">
<path id="Ellipse 110" d="M155.875 77.9375C155.875 120.981 120.981 155.875 77.9375 155.875C34.8938 155.875 0 120.981 0 77.9375C0 34.8938 34.8938 0 77.9375 0C120.981 0 155.875 34.8938 155.875 77.9375ZM15.5875 77.9375C15.5875 112.372 43.5025 140.288 77.9375 140.288C112.372 140.288 140.288 112.372 140.288 77.9375C140.288 43.5025 112.372 15.5875 77.9375 15.5875C43.5025 15.5875 15.5875 43.5025 15.5875 77.9375Z" fill="#6FC9E4"/>
<path id="Line 37" d="M46 82L68.7143 104" stroke="#6FC9E4" stroke-width="15" stroke-linecap="round"/>
<path id="Line 38" d="M68.7144 104L110 55" stroke="#6FC9E4" stroke-width="15" stroke-linecap="round"/>
</g>
</svg>
