<svg width="45" height="37" viewBox="0 0 45 37" fill="none" xmlns="http://www.w3.org/2000/svg">
<path d="M44.0219 32.6395H1V10.4719H29.8537V16.6804H37.6542L43.3851 24.2819V30.0925H44.0219V32.6395Z" fill="white" stroke="#FF7AAA" stroke-miterlimit="10"/>
<path d="M36.1417 36.5C38.5375 36.5 40.4797 34.5578 40.4797 32.162C40.4797 29.7662 38.5375 27.824 36.1417 27.824C33.7459 27.824 31.8037 29.7662 31.8037 32.162C31.8037 34.5578 33.7459 36.5 36.1417 36.5Z" fill="white" stroke="#FF7AAA" stroke-miterlimit="10"/>
<path d="M10.1139 36.5C12.5097 36.5 14.4519 34.5578 14.4519 32.162C14.4519 29.7662 12.5097 27.824 10.1139 27.824C7.71807 27.824 5.77588 29.7662 5.77588 32.162C5.77588 34.5578 7.71807 36.5 10.1139 36.5Z" fill="white" stroke="#FF7AAA" stroke-miterlimit="10"/>
<path d="M29.8535 16.6804V32.6395" stroke="#FF7AAA" stroke-miterlimit="10"/>
<path d="M36.142 33.7937C37.0432 33.7937 37.7737 33.0632 37.7737 32.162C37.7737 31.2608 37.0432 30.5303 36.142 30.5303C35.2408 30.5303 34.5103 31.2608 34.5103 32.162C34.5103 33.0632 35.2408 33.7937 36.142 33.7937Z" fill="white" stroke="#FF7AAA" stroke-miterlimit="10"/>
<path d="M10.1137 33.7937C11.0148 33.7937 11.7454 33.0632 11.7454 32.162C11.7454 31.2608 11.0148 30.5303 10.1137 30.5303C9.21248 30.5303 8.48193 31.2608 8.48193 32.162C8.48193 33.0632 9.21248 33.7937 10.1137 33.7937Z" fill="white" stroke="#FF7AAA" stroke-miterlimit="10"/>
<path d="M15.1681 16.1233C19.3443 16.1233 22.7298 12.7379 22.7298 8.56166C22.7298 4.38547 19.3443 1 15.1681 1C10.9919 1 7.60645 4.38547 7.60645 8.56166C7.60645 12.7379 10.9919 16.1233 15.1681 16.1233Z" fill="#FFE4F0" stroke="#FF7AAA" stroke-miterlimit="10"/>
<path d="M14.2924 12.4221C14.0934 12.1435 13.9342 11.9047 13.7352 11.6261C13.377 11.1087 13.0586 10.6311 12.7004 10.1138C12.2229 9.43719 11.9443 8.80042 11.8647 8.12385C11.7453 7.28808 12.0637 6.45232 12.6606 5.73595C13.377 4.90019 14.4914 4.38281 15.5261 4.38281C15.6853 4.38281 15.8047 4.38281 15.9639 4.42261C16.4415 4.50221 16.9191 4.6614 17.3568 4.90019C18.2324 5.45736 18.8692 6.41252 19.0284 7.40748C19.108 7.92485 19.0284 8.44223 18.7896 8.99941C18.5508 9.51678 18.1926 10.0342 17.8742 10.4719L15.3271 13.9344L14.2924 12.4221Z" fill="white"/>
<path d="M15.0043 4.63677C15.1237 4.63677 15.2829 4.63677 15.4023 4.67657C15.8401 4.75617 16.2778 4.87556 16.6758 5.11435C17.4718 5.63173 18.0688 6.46749 18.2279 7.42265C18.3075 7.86043 18.2279 8.33801 17.9892 8.81559C17.7504 9.33296 17.432 9.81054 17.1136 10.2483L15.8003 11.9994L14.8053 13.3526L14.0093 12.1984C13.8103 11.9198 13.6511 11.6811 13.4522 11.4025C13.094 10.8851 12.7756 10.3677 12.3776 9.89014C11.9 9.25337 11.6612 8.65639 11.5816 8.01962C11.502 7.26345 11.7408 6.50729 12.298 5.87052C13.0144 5.11435 14.0491 4.63677 15.0043 4.63677ZM15.0043 4.0398C12.895 4.0398 10.7459 5.91032 11.0245 8.09922C11.1041 8.89518 11.4622 9.61155 11.9398 10.2483C12.497 11.0045 13.0144 11.7607 13.5318 12.5566C13.8899 13.074 14.2481 13.5914 14.6063 14.069C14.6461 14.1485 14.7655 14.1883 14.8451 14.1883C14.9247 14.1883 15.0043 14.1485 15.0839 14.069C15.9196 12.9148 16.7952 11.7607 17.631 10.6065C17.9892 10.1289 18.3473 9.61155 18.5861 9.05438C18.8249 8.4972 18.9443 7.94002 18.8647 7.30325C18.6657 6.1889 17.9892 5.15415 17.034 4.55718C16.5962 4.27859 16.0788 4.0796 15.5217 4C15.3227 4.0398 15.1635 4.0398 15.0043 4.0398Z" fill="#FF7AAA"/>
<path d="M15.4469 8.88005C14.8897 8.88005 14.4121 8.44227 14.4121 7.8453C14.4121 7.28813 14.8499 6.81055 15.4469 6.81055C16.0438 6.81055 16.4816 7.24833 16.4816 7.8453C16.4418 8.40248 16.004 8.88005 15.4469 8.88005Z" fill="white"/>
<path d="M14.9247 7.0645C15.3227 7.0645 15.641 7.38289 15.641 7.78087C15.641 8.17885 15.3227 8.49724 14.9247 8.49724C14.5267 8.49724 14.2083 8.17885 14.2083 7.78087C14.2083 7.38289 14.5267 7.0645 14.9247 7.0645ZM14.9247 6.46753C14.2083 6.46753 13.6113 7.0645 13.6113 7.78087C13.6113 8.49724 14.2083 9.09421 14.9247 9.09421C15.641 9.09421 16.238 8.49724 16.238 7.78087C16.238 7.0247 15.641 6.46753 14.9247 6.46753Z" fill="#FF7AAA"/>
</svg>
