<?xml version="1.0" encoding="UTF-8"?>
<svg id="Layer_2" data-name="Layer 2" xmlns="http://www.w3.org/2000/svg" viewBox="0 0 24.84 24.84">
  <g id="Layer_2-2" data-name="Layer 2">
    <circle cx="12.42" cy="12.42" r="12.42" style="fill: #ffcb12;"/>
    <path d="m8.44,17.1v-2.04c1.94-.84,3.39-1.71,4.34-2.61.95-.91,1.43-1.84,1.43-2.81,0-.49-.15-.85-.44-1.09-.29-.24-.74-.36-1.34-.36-.53,0-1.08.12-1.65.35-.57.23-1.07.55-1.48.94l-1.43-1.34c.46-.55,1.11-.99,1.95-1.33s1.73-.5,2.65-.5c1.44,0,2.53.27,3.24.8s1.08,1.34,1.08,2.41c0,1.01-.37,1.97-1.1,2.89-.73.92-1.84,1.81-3.34,2.66v2.04h-3.91Zm.56,0v-1.76h8.35v1.76h-8.35Z" style="fill: #fff; stroke: #fff; stroke-miterlimit: 10; stroke-width: .25px;"/>
  </g>
</svg>