<svg width="614" height="308" viewBox="0 0 614 308" fill="none" xmlns="http://www.w3.org/2000/svg">
<path d="M489.821 167.067V304.485H471.466H452.835V167.067H489.821ZM471.42 123.034C476.413 123.034 480.759 124.791 484.411 128.307C488.064 131.822 489.913 136.031 489.913 140.841C489.913 145.975 488.202 150.231 484.735 153.515C481.268 156.799 476.829 158.464 471.42 158.464C466.011 158.464 461.573 156.799 458.105 153.515C454.638 150.231 452.927 145.975 452.927 140.841C452.927 136.031 454.777 131.868 458.429 128.307C462.081 124.791 466.381 123.034 471.42 123.034Z" fill="white"/>
<path d="M411.041 173.773C398.05 158.14 380.759 150.323 359.169 150.323C340.306 150.323 324.402 157.076 311.411 170.536C298.42 183.995 291.901 200.554 291.901 220.212V304.3H328.748V226.039C328.748 201.248 339.752 190.563 359.215 190.563C378.679 190.563 389.867 201.248 389.867 226.039V304.3H426.298V224.744C426.344 202.959 421.212 185.984 411.041 173.773Z" fill="white"/>
<path d="M89.4059 0.27763L104.894 8.00191L124.542 17.8076L151.68 31.3135L170.543 40.7029L135.73 54.8101L121.398 40.1479L105.68 24.0518L95.8321 13.9686L86.4008 4.34791C84.4591 2.26652 86.8631 -0.971206 89.4059 0.27763Z" fill="url(#paint0_linear_5_1544)"/>
<path opacity="0.7" d="M136.378 36.355C141.602 34.5974 149.646 33.5798 159.632 35.1987L170.543 40.7028L135.73 54.8101L121.398 40.1478L124.404 43.2005C127.455 40.6103 131.2 38.0664 136.378 36.355Z" fill="url(#paint1_linear_5_1544)"/>
<path d="M33.6035 260.868C41.463 270.026 50.663 278.259 61.1577 285.244C123.293 326.733 207.251 309.943 248.721 247.825C289.405 186.817 274.01 104.717 214.694 62.4882C214.602 62.442 214.555 62.3957 214.463 62.3032C213.585 63.5058 212.66 64.6159 211.689 65.6335C209.609 67.8074 207.251 69.6575 204.754 71.1376C204.061 71.5539 203.321 71.9239 202.581 72.2939C202.674 72.4327 202.813 72.5714 202.905 72.6639C204.384 74.3753 205.818 76.0867 207.158 77.8905C212.105 84.2735 216.358 91.0265 219.965 98.1032C240.214 137.881 238.966 187.141 212.429 226.872C173.317 285.475 94.1674 301.293 35.5915 262.163C34.898 261.747 34.2508 261.284 33.6035 260.868Z" fill="url(#paint2_linear_5_1544)"/>
<path d="M101.148 52.1275C99.8999 59.8981 102.813 67.5298 108.453 72.4789C108.592 72.6177 108.776 72.7565 108.915 72.8952C109.794 73.6353 110.718 74.2828 111.735 74.8841C113.631 75.9942 115.711 76.873 117.93 77.428C126.899 79.6019 135.915 76.0404 141.093 69.1024C141.231 68.8712 141.37 68.6862 141.509 68.4549L141.786 68.0849C141.832 67.9924 141.925 67.8999 141.971 67.8074C142.064 67.6686 142.202 67.4836 142.295 67.3448C142.387 67.2061 142.48 67.0673 142.572 66.9748C142.711 66.7898 142.849 66.5585 143.034 66.3735C143.266 66.0497 143.543 65.726 143.774 65.4022C143.867 65.2634 144.005 65.1247 144.098 64.9859C144.283 64.7547 144.421 64.5696 144.606 64.3846C144.791 64.1996 144.93 63.9683 145.115 63.7833C145.3 63.5983 145.485 63.3671 145.623 63.182C145.808 62.997 145.947 62.812 146.132 62.627L146.178 62.5808C146.317 62.442 146.409 62.3032 146.548 62.2107L146.872 61.8407C146.964 61.7019 147.103 61.6094 147.242 61.4707C147.658 61.0544 148.074 60.6844 148.49 60.2681C148.629 60.1293 148.767 59.9906 148.906 59.8981C149.137 59.6668 149.414 59.4818 149.646 59.2505C149.784 59.1118 149.969 58.973 150.108 58.8805C150.2 58.788 150.293 58.6955 150.432 58.6492C150.524 58.603 150.57 58.5105 150.663 58.4642C150.801 58.3717 150.94 58.2329 151.079 58.1404C151.217 58.0017 151.402 57.9092 151.541 57.7704C151.726 57.6317 151.911 57.4929 152.096 57.3541C152.42 57.1229 152.697 56.8916 153.021 56.7066C153.159 56.6141 153.298 56.5216 153.39 56.4291C153.529 56.3366 153.668 56.2441 153.806 56.1516C153.945 56.0591 154.084 55.9665 154.223 55.874C154.315 55.8278 154.408 55.7815 154.5 55.689C154.685 55.5965 155.887 54.8102 156.349 54.5789C156.534 54.4864 157.089 54.1627 157.181 54.1164C157.32 54.0239 160.788 52.405 160.972 52.3125C164.486 50.8324 168.231 49.8149 172.068 49.3061C172.253 49.2598 172.438 49.2598 172.623 49.2598C173.548 49.1673 174.472 49.0748 175.443 49.0286C176.599 48.9823 181.684 49.9536 183.071 50.3699C185.29 51.0175 187.51 51.48 189.729 51.85C191.254 52.0813 192.826 52.2663 194.352 52.4051C195.6 52.4976 196.848 52.5438 198.097 52.5438C171.56 35.8002 149.83 37.4653 139.521 41.443C125.836 46.7159 122.739 57.2616 115.665 60.0831C112.937 61.1469 111.088 61.4707 108.499 60.8231C104.385 59.6668 101.518 56.1516 101.148 52.1275Z" fill="url(#paint3_linear_5_1544)"/>
<path d="M87.6028 138.575C93.9828 142.83 106.28 143.755 115.157 141.35C122.832 139.269 130.414 138.991 138.874 140.656C141.417 141.257 146.364 142.969 149.045 143.478C157.506 145.004 164.995 144.356 173.086 141.766C179.096 139.824 184.829 136.771 189.868 132.701C193.844 129.463 197.404 125.624 200.409 121.137C201.472 119.518 202.489 117.853 203.368 116.142C202.813 105.55 200.548 95.0505 196.664 85.1523C196.479 84.6435 196.294 84.181 196.063 83.6722C196.063 83.6722 196.063 83.626 196.017 83.626C194.815 80.897 193.52 78.1681 192.087 75.5317C192.041 75.4392 191.995 75.3004 191.902 75.2079C191.948 75.2079 191.995 75.2079 192.041 75.2079C193.428 75.0691 194.815 74.8841 196.202 74.5603C198.375 74.0516 200.501 73.3115 202.535 72.3402C203.275 71.9702 204.015 71.6001 204.708 71.1839C207.251 69.7038 209.563 67.8999 211.643 65.6797C212.614 64.6622 213.539 63.5058 214.417 62.3495C214.879 61.702 215.295 61.0544 215.712 60.3606C218.069 56.4753 219.549 52.3126 220.104 48.1035C213.123 50.9712 205.633 52.4513 198.051 52.3588C196.803 52.3588 195.554 52.3126 194.306 52.2201C192.78 52.1275 191.209 51.9425 189.683 51.665C187.464 51.295 185.245 50.8325 183.026 50.1849C181.639 49.7686 176.599 48.7973 175.397 48.8436C174.473 48.8898 173.502 48.9823 172.577 49.0748C172.392 49.0748 172.207 49.1211 172.022 49.1211C168.185 49.6299 164.44 50.6474 160.927 52.1275C160.742 52.22 160.557 52.2663 160.372 52.3588C160.187 52.4513 160.048 52.4976 159.863 52.5901C159.678 52.6826 159.54 52.7288 159.355 52.8213C159.17 52.9138 159.031 52.9601 158.846 53.0526C158.661 53.1451 158.476 53.2376 158.291 53.3301C158.06 53.4689 157.829 53.5614 157.598 53.7002C157.459 53.7927 157.274 53.8389 157.136 53.9314C156.997 53.9777 156.904 54.0702 156.766 54.1164C156.581 54.2089 156.442 54.3014 156.257 54.3939C155.795 54.6715 155.379 54.9027 154.917 55.1803C154.732 55.2728 154.593 55.4115 154.408 55.504C154.316 55.5503 154.223 55.5965 154.131 55.689C153.992 55.7815 153.853 55.8741 153.715 55.9666C153.576 56.0591 153.437 56.1516 153.298 56.2441C153.16 56.3366 153.021 56.4291 152.929 56.5216C152.605 56.7529 152.328 56.9379 152.004 57.1691C151.819 57.3079 151.634 57.4467 151.449 57.5854C151.31 57.7242 151.125 57.8167 150.987 57.9554C150.848 58.048 150.709 58.1867 150.571 58.2792C150.478 58.3255 150.432 58.418 150.34 58.4642C150.247 58.5567 150.155 58.6492 150.016 58.6955C149.877 58.8343 149.692 58.973 149.554 59.0655C149.323 59.2968 149.045 59.4818 148.814 59.7131C148.675 59.8518 148.537 59.9906 148.398 60.0831C147.982 60.4531 147.566 60.8694 147.15 61.2857C147.011 61.4244 146.918 61.5169 146.78 61.6557L146.456 62.0257C146.317 62.1645 146.225 62.3032 146.086 62.3957L146.04 62.442C145.855 62.627 145.716 62.812 145.531 62.997C145.346 63.1821 145.162 63.4133 145.023 63.5983C144.838 63.7833 144.653 64.0146 144.514 64.1996C144.329 64.3846 144.191 64.6159 144.006 64.8009C143.913 64.9397 143.775 65.0784 143.682 65.2172C143.451 65.541 143.174 65.8647 142.942 66.1885C142.804 66.3735 142.665 66.6048 142.48 66.7898C141.925 67.5299 141.047 69.01 141.047 69.01C135.869 75.9479 126.854 79.5094 117.885 77.3355C115.666 76.7805 113.585 75.9017 111.69 74.7916C110.673 74.1903 109.748 73.5428 108.87 72.8027C108.731 72.664 108.546 72.5252 108.407 72.3864C103.969 78.1681 97.0803 84.551 92.041 88.5288C85.0138 94.0792 74.9352 97.5019 72.5312 101.063C69.2487 106.151 79.0499 132.839 87.6028 138.575Z" fill="url(#paint4_linear_5_1544)"/>
<path d="M138.874 213.69C139.336 213.505 139.799 213.366 140.261 213.181C141.74 212.626 143.22 212.025 144.653 211.377C144.884 211.285 145.115 211.192 145.347 211.053C146.502 210.545 147.612 210.036 148.721 209.481C148.999 209.342 149.322 209.203 149.6 209.018C149.831 208.926 150.016 208.787 150.247 208.695C150.663 208.51 151.033 208.278 151.449 208.093C151.819 207.908 152.235 207.677 152.651 207.446C152.79 207.353 152.975 207.261 153.113 207.168C153.946 206.706 154.778 206.197 155.61 205.734C156.026 205.503 156.396 205.272 156.812 204.994C157.274 204.717 157.737 204.393 158.199 204.115C158.384 204.023 158.523 203.884 158.707 203.792C158.754 203.745 158.846 203.699 158.892 203.653C159.124 203.514 159.309 203.375 159.54 203.237C159.771 203.052 160.048 202.913 160.279 202.728C160.511 202.543 160.788 202.404 161.019 202.219C161.574 201.849 162.175 201.433 162.73 201.017C162.868 200.924 163.053 200.785 163.192 200.693L163.238 200.647C163.469 200.461 163.701 200.323 163.932 200.138C164.348 199.814 164.764 199.49 165.226 199.166C165.55 198.889 165.92 198.658 166.243 198.38C168.971 196.206 171.606 193.894 174.103 191.396C174.611 190.887 175.12 190.378 175.628 189.87C176.646 188.852 177.616 187.742 178.587 186.678C178.957 186.308 179.281 185.892 179.604 185.475C180.021 185.013 180.39 184.55 180.806 184.042C180.945 183.903 181.038 183.764 181.176 183.579C181.546 183.163 181.87 182.7 182.24 182.238C182.425 182.006 182.609 181.775 182.794 181.544C183.442 180.758 184.043 179.925 184.644 179.093C185.43 178.029 186.169 176.919 186.909 175.809C193.474 165.957 198.051 155.318 200.686 144.449C200.779 144.125 200.825 143.755 200.917 143.431C201.01 143.015 201.102 142.599 201.195 142.136C201.241 141.951 201.287 141.766 201.333 141.581C201.38 141.35 201.426 141.165 201.472 140.934C201.565 140.564 201.611 140.194 201.703 139.87C201.842 139.037 202.027 138.205 202.166 137.372C202.212 137.095 202.258 136.817 202.304 136.493C202.397 135.985 202.443 135.476 202.535 134.967C202.582 134.643 202.628 134.273 202.674 133.949C202.905 132.146 203.09 130.295 203.229 128.492C203.275 128.214 203.275 127.89 203.275 127.613C203.321 126.965 203.368 126.364 203.368 125.716C203.46 123.681 203.506 121.6 203.46 119.565C203.46 119.148 203.46 118.732 203.414 118.27C203.414 117.53 203.368 116.743 203.321 116.003C202.443 117.715 201.472 119.38 200.363 120.999C197.357 125.485 193.798 129.37 189.822 132.562C184.782 136.632 179.096 139.685 173.039 141.627C174.935 148.242 175.675 155.133 175.259 162.025C174.611 172.247 171.329 182.469 165.226 191.627C158.523 201.849 149.276 209.25 138.874 213.69Z" fill="url(#paint5_linear_5_1544)"/>
<path d="M4.24609 202.219C9.00799 223.588 18.9479 243.801 33.6034 260.868C34.2506 261.331 34.8979 261.747 35.5451 262.209C94.121 301.34 173.316 285.521 212.382 226.918C238.92 187.141 240.168 137.881 219.918 98.1494C216.312 91.0726 212.059 84.3197 207.112 77.9367C205.725 76.1791 204.338 74.4215 202.859 72.7101C202.766 72.5714 202.627 72.4326 202.535 72.3401C200.501 73.3114 198.374 74.0515 196.201 74.5602C194.814 74.884 193.242 75.1153 191.855 75.2078C191.902 75.3003 196.802 85.5685 196.802 85.5685C196.987 86.031 202.627 100.462 204.477 113.829C204.523 114.338 204.615 114.801 204.662 115.309C204.708 115.679 204.754 116.049 204.8 116.419V116.466C204.847 116.882 204.893 117.298 204.939 117.714C205.032 118.501 205.078 119.241 205.17 120.027C205.17 120.258 205.216 120.536 205.216 120.767C205.263 121.507 205.309 122.247 205.355 123.034C205.355 123.45 205.401 123.82 205.401 124.236V124.282C205.401 124.791 205.448 125.3 205.448 125.763C205.448 126.086 205.448 126.41 205.494 126.688C205.54 128.491 205.54 130.295 205.494 132.099C205.494 132.469 205.494 132.886 205.448 133.302C205.448 133.487 205.448 133.626 205.448 133.811C205.448 133.996 205.448 134.134 205.448 134.319C205.448 134.643 205.401 134.967 205.401 135.291C205.355 136.031 205.309 136.725 205.263 137.465C205.263 137.742 205.216 138.066 205.216 138.343C205.17 138.945 205.124 139.546 205.078 140.147C204.985 140.934 204.939 141.72 204.847 142.46C204.8 142.83 204.754 143.2 204.708 143.57C204.615 144.171 204.569 144.726 204.477 145.328C204.43 145.651 204.384 145.975 204.338 146.299C204.292 146.484 204.292 146.669 204.246 146.854C204.199 146.993 204.199 147.178 204.153 147.317C204.153 147.363 204.153 147.363 204.153 147.409C204.061 148.057 203.922 148.704 203.83 149.352C203.83 149.398 203.829 149.444 203.783 149.537C203.737 149.675 203.737 149.814 203.691 149.953C203.645 150.138 203.645 150.323 203.598 150.508C203.413 151.526 203.228 152.543 202.997 153.514C202.951 153.653 202.951 153.792 202.905 153.931C202.72 154.717 202.535 155.503 202.35 156.336C202.258 156.798 202.119 157.215 202.027 157.677C201.749 158.787 201.425 159.897 201.102 161.054C200.871 161.84 200.64 162.626 200.408 163.413C200.362 163.551 200.316 163.644 200.316 163.783C200.223 164.106 200.085 164.476 199.992 164.8C199.992 164.846 199.946 164.939 199.946 164.985C199.854 165.263 199.761 165.494 199.669 165.772C199.437 166.465 199.206 167.159 198.929 167.853C198.836 168.084 198.79 168.315 198.698 168.5C198.513 169.056 198.282 169.611 198.051 170.212C197.958 170.397 197.912 170.628 197.819 170.813C197.542 171.461 197.311 172.154 197.033 172.802C196.895 173.126 196.756 173.403 196.664 173.727C196.155 174.93 195.6 176.132 195.045 177.335C194.907 177.612 194.814 177.844 194.676 178.121C194.676 178.167 194.629 178.167 194.629 178.214C194.583 178.26 194.583 178.352 194.537 178.399C194.398 178.676 194.26 179 194.121 179.277C194.028 179.509 193.89 179.74 193.797 179.971C193.751 180.064 193.705 180.203 193.612 180.295C193.473 180.526 193.381 180.758 193.242 181.035V181.081C193.15 181.313 193.011 181.544 192.873 181.775C192.364 182.746 191.855 183.718 191.301 184.689C191.162 184.92 191.023 185.152 190.885 185.383C190.515 186.03 190.145 186.678 189.775 187.326C189.59 187.696 189.359 188.019 189.128 188.389C188.897 188.759 188.712 189.083 188.481 189.453C188.296 189.731 188.157 190.008 187.972 190.286C187.926 190.378 187.833 190.471 187.787 190.609C187.648 190.841 187.51 191.072 187.371 191.303C187.232 191.535 187.093 191.766 186.909 191.997C186.909 192.043 186.862 192.09 186.862 192.09C186.724 192.321 186.585 192.552 186.4 192.783C186.076 193.292 185.707 193.801 185.337 194.31C185.198 194.541 185.059 194.726 184.874 194.957C184.736 195.142 184.643 195.327 184.505 195.466C184.366 195.651 184.273 195.836 184.135 195.975C183.903 196.299 183.672 196.622 183.441 196.946C182.84 197.732 182.285 198.519 181.684 199.305C181.315 199.768 180.991 200.184 180.621 200.646C180.251 201.109 179.928 201.525 179.558 201.988C179.327 202.265 179.095 202.589 178.818 202.867C178.633 203.098 178.448 203.329 178.263 203.514C177.2 204.763 176.09 206.012 174.981 207.214C174.842 207.353 174.75 207.492 174.611 207.584C174.287 207.908 174.01 208.232 173.686 208.556C173.27 208.972 172.854 209.435 172.392 209.851C172.068 210.175 171.744 210.498 171.421 210.822C171.19 211.053 170.959 211.238 170.727 211.47C170.496 211.701 170.219 211.978 169.941 212.21C169.017 213.089 168.046 213.967 167.121 214.8C166.983 214.939 166.844 215.031 166.705 215.17C166.659 215.216 166.659 215.216 166.613 215.262C166.428 215.447 166.243 215.632 166.012 215.771C165.873 215.91 165.734 216.002 165.596 216.141C165.457 216.234 165.365 216.373 165.226 216.465C165.18 216.465 165.18 216.511 165.133 216.511C164.764 216.835 164.44 217.113 164.07 217.39L164.024 217.436C163.885 217.529 163.793 217.621 163.654 217.76C163.145 218.176 162.637 218.593 162.128 218.963C161.943 219.101 161.712 219.286 161.527 219.425C161.157 219.703 160.788 219.98 160.418 220.258C160.094 220.535 159.724 220.767 159.401 221.044C159.354 221.09 159.308 221.09 159.262 221.137C159.031 221.322 158.753 221.507 158.522 221.692C157.413 222.524 156.257 223.311 155.101 224.097C154.777 224.282 154.5 224.513 154.176 224.698C153.622 225.068 153.067 225.438 152.466 225.808C152.188 225.993 151.911 226.178 151.587 226.363C151.31 226.548 151.033 226.733 150.709 226.918C149.507 227.658 148.305 228.352 147.103 229.046C146.826 229.185 146.548 229.37 146.271 229.508C146.178 229.555 146.132 229.601 146.04 229.647C145.67 229.832 145.3 230.063 144.93 230.248C144.56 230.433 144.19 230.665 143.82 230.85C143.774 230.896 143.682 230.896 143.635 230.942C143.358 231.081 143.127 231.22 142.85 231.312C142.526 231.497 142.202 231.636 141.879 231.821C141.555 231.96 141.231 232.145 140.954 232.284C138.781 233.347 136.608 234.273 134.389 235.198C134.158 235.29 133.927 235.383 133.742 235.475C133.418 235.614 133.141 235.706 132.817 235.845C132.586 235.938 132.401 236.03 132.17 236.076C131.8 236.215 131.43 236.354 131.107 236.493C130.459 236.724 129.812 236.955 129.165 237.186C128.148 237.556 127.084 237.88 126.021 238.25C125.697 238.343 125.328 238.482 125.004 238.574C124.68 238.667 124.311 238.805 123.987 238.898C123.71 238.99 123.386 239.083 123.108 239.175C122.692 239.268 122.276 239.407 121.906 239.499C121.583 239.592 121.259 239.684 120.936 239.777C118.162 240.517 115.388 241.164 112.568 241.673C112.198 241.719 111.874 241.812 111.504 241.858C111.366 241.904 111.227 241.904 111.088 241.951C110.996 241.951 110.949 241.997 110.857 241.997C110.718 241.997 110.58 242.043 110.487 242.043C110.349 242.089 110.164 242.089 110.025 242.136C109.47 242.228 108.915 242.321 108.36 242.413C107.991 242.459 107.667 242.506 107.297 242.552C106.604 242.644 105.864 242.737 105.171 242.829C104.847 242.876 104.477 242.922 104.153 242.968C102.674 243.153 101.195 243.246 99.7151 243.384C99.3915 243.431 99.1141 243.431 98.7905 243.431C98.097 243.477 97.3573 243.523 96.6638 243.569C96.3401 243.569 96.0166 243.616 95.693 243.616C95.3231 243.616 94.9532 243.662 94.5372 243.662C94.1673 243.662 93.7974 243.662 93.4738 243.708C93.104 243.708 92.7803 243.708 92.4104 243.708C91.717 243.708 90.9772 243.708 90.2837 243.708C89.2204 243.708 88.1571 243.662 87.0475 243.616C86.6776 243.616 86.3541 243.569 85.9843 243.569C85.7069 243.569 85.4756 243.523 85.1982 243.523C84.9671 243.523 84.7359 243.477 84.5047 243.477C84.2736 243.477 84.0424 243.431 83.8113 243.431C83.3489 243.384 82.8866 243.384 82.4243 243.338C82.2856 243.338 82.1469 243.338 81.962 243.292C81.4997 243.246 81.0373 243.199 80.575 243.153C80.1589 243.107 79.7429 243.061 79.3268 243.014C78.9107 242.968 78.4946 242.922 78.0785 242.876C77.7087 242.829 77.3389 242.783 76.969 242.737C76.4605 242.691 75.9981 242.598 75.4895 242.552C75.2583 242.506 75.0272 242.506 74.796 242.459C74.6111 242.413 74.38 242.413 74.1951 242.367C74.1026 242.367 73.9638 242.321 73.8714 242.321C73.4091 242.228 72.9467 242.182 72.4844 242.089C72.2995 242.043 72.1146 242.043 71.9297 241.997C71.5136 241.904 71.0976 241.858 70.7277 241.766C70.4503 241.719 70.1728 241.673 69.9417 241.627C69.7105 241.581 69.4332 241.534 69.202 241.488C69.0171 241.442 68.8322 241.396 68.6473 241.396C63.7467 240.378 58.8923 239.037 54.0842 237.371C53.2982 237.094 52.5585 236.816 51.7726 236.539C50.9866 236.261 50.2469 235.938 49.461 235.66C46.4097 234.458 43.3583 233.07 40.3995 231.59C39.2899 231.035 38.1804 230.433 37.0708 229.832C36.3311 229.416 35.5914 229 34.8516 228.583C33.7421 227.936 32.6787 227.288 31.5691 226.641C30.5058 225.947 29.3962 225.253 28.3329 224.559C19.179 217.76 11.0884 210.406 4.24609 202.219Z" fill="url(#paint6_linear_5_1544)"/>
<path d="M175.305 162.118C175.721 155.226 174.981 148.334 173.086 141.72C179.096 139.777 184.829 136.725 189.868 132.654C193.844 129.417 197.404 125.578 200.409 121.091C201.472 119.472 202.489 117.807 203.368 116.096C203.414 116.836 203.46 117.622 203.46 118.362C203.46 118.778 203.507 119.195 203.507 119.657C203.553 121.692 203.507 123.774 203.414 125.809C194.075 155.226 175.213 163.32 175.305 162.118Z" fill="#E5E4E6"/>
<path opacity="0.7" d="M175.305 162.118C175.721 155.226 174.981 148.334 173.086 141.72C179.096 139.777 184.829 136.725 189.868 132.654C193.844 129.417 197.404 125.578 200.409 121.091C201.472 119.472 202.489 117.807 203.368 116.096C203.414 116.836 203.46 117.622 203.46 118.362C203.46 118.778 203.507 119.195 203.507 119.657C203.553 121.692 203.507 123.774 203.414 125.809C194.075 155.226 175.213 163.32 175.305 162.118Z" fill="url(#paint7_linear_5_1544)"/>
<path opacity="0.7" d="M196.849 85.5685C196.849 85.5685 191.949 75.3003 191.902 75.2078C193.289 75.069 194.861 74.884 196.248 74.5602C198.421 74.0514 200.548 73.3114 202.582 72.34C203.322 71.97 204.061 71.6 204.755 71.1837C207.298 69.7036 209.609 67.8997 211.69 65.6796C212.661 64.662 213.585 63.5057 214.464 62.3494C214.556 62.3956 214.602 62.4419 214.695 62.5344C216.359 63.737 217.977 64.9395 219.595 66.1884C211.643 79.1855 204.061 82.5158 196.849 85.5685Z" fill="url(#paint8_linear_5_1544)"/>
<path d="M205.494 126.641C205.494 126.318 205.494 125.994 205.448 125.716C205.448 125.208 205.402 124.699 205.402 124.236V124.19C205.402 123.774 205.356 123.404 205.356 122.987C205.309 122.247 205.263 121.507 205.217 120.721C205.217 120.49 205.171 120.212 205.171 119.981C205.124 119.195 205.032 118.455 204.939 117.668C204.893 117.252 204.847 116.836 204.801 116.419V116.373C204.755 116.003 204.708 115.633 204.662 115.263C204.616 114.754 204.523 114.292 204.477 113.783C203.136 103.931 200.501 94.2642 196.618 85.0598C196.618 85.1061 196.618 85.1061 196.618 85.1523C200.501 95.0505 202.766 105.504 203.321 116.142C203.367 116.882 203.414 117.668 203.414 118.408C203.414 118.825 203.46 119.241 203.46 119.703C203.506 121.739 203.46 123.82 203.368 125.855C203.321 126.503 203.321 127.104 203.275 127.752C203.275 128.029 203.229 128.353 203.229 128.63C203.09 130.434 202.905 132.284 202.674 134.088C202.628 134.412 202.582 134.782 202.535 135.106C202.443 135.615 202.397 136.123 202.304 136.632C202.258 136.91 202.212 137.187 202.165 137.511C202.027 138.343 201.888 139.176 201.703 140.009C201.611 140.379 201.564 140.749 201.472 141.072C201.426 141.304 201.38 141.489 201.333 141.72C201.287 141.905 201.241 142.09 201.195 142.275C201.102 142.691 201.01 143.108 200.917 143.57C200.825 143.894 200.779 144.264 200.686 144.588C198.051 155.457 193.474 166.095 186.909 175.947C186.169 177.057 185.383 178.167 184.644 179.231C184.043 180.064 183.442 180.896 182.794 181.683C182.609 181.914 182.424 182.145 182.24 182.377C181.87 182.839 181.546 183.255 181.176 183.718C181.037 183.857 180.945 183.995 180.806 184.18C180.436 184.643 180.02 185.105 179.604 185.614C179.281 186.031 178.911 186.401 178.587 186.817C177.616 187.927 176.645 188.991 175.628 190.008C175.12 190.517 174.611 191.026 174.103 191.535C171.606 194.032 168.971 196.345 166.243 198.519C165.92 198.796 165.55 199.074 165.226 199.305C164.81 199.629 164.394 199.953 163.932 200.277C163.7 200.462 163.469 200.6 163.238 200.785C163.238 200.785 163.192 200.785 163.192 200.832C163.053 200.924 162.868 201.063 162.73 201.155C162.175 201.572 161.62 201.942 161.019 202.358C160.788 202.543 160.511 202.682 160.279 202.867C160.048 203.052 159.771 203.19 159.54 203.375C159.308 203.514 159.124 203.653 158.892 203.792C158.846 203.838 158.754 203.884 158.707 203.931C158.569 204.023 158.384 204.162 158.199 204.254C157.737 204.532 157.274 204.856 156.812 205.133C156.396 205.364 156.026 205.642 155.61 205.873C154.778 206.382 153.946 206.844 153.113 207.307C152.975 207.4 152.79 207.492 152.651 207.585C152.235 207.816 151.865 208.001 151.449 208.232C151.033 208.463 150.663 208.648 150.247 208.833C150.016 208.926 149.831 209.065 149.6 209.157C149.322 209.296 148.999 209.435 148.721 209.62C147.612 210.175 146.456 210.683 145.346 211.192C145.115 211.285 144.884 211.424 144.653 211.516C143.22 212.164 141.74 212.765 140.261 213.32C139.799 213.505 139.336 213.644 138.874 213.829C133.742 216.049 128.287 217.483 122.785 218.176C121.629 218.408 120.474 218.593 119.364 218.732C119.179 218.778 118.994 218.778 118.763 218.824C118.162 218.917 117.561 219.009 116.96 219.055C116.729 219.102 116.498 219.102 116.22 219.148C114.279 219.379 112.337 219.518 110.395 219.657C110.118 219.657 109.84 219.703 109.563 219.703C109.239 219.703 108.869 219.749 108.546 219.749C108.222 219.749 107.899 219.749 107.575 219.795C107.251 219.795 106.881 219.795 106.558 219.795C106.28 219.795 106.049 219.795 105.772 219.795C105.494 219.795 105.263 219.795 104.986 219.795C104.708 219.795 104.477 219.795 104.2 219.795C103.738 219.795 103.275 219.795 102.813 219.749C102.489 219.749 102.212 219.749 101.888 219.703C101.796 219.703 101.703 219.703 101.657 219.703C101.334 219.703 101.056 219.703 100.733 219.657C100.64 219.657 100.594 219.657 100.501 219.657C100.178 219.657 99.8541 219.61 99.5305 219.61C98.7908 219.564 98.0511 219.518 97.3114 219.472C97.2652 219.472 97.034 219.425 96.7104 219.425C96.6179 219.425 96.5717 219.425 96.4792 219.425C96.3868 219.425 96.3405 219.425 96.2481 219.425C95.7395 219.379 95.1385 219.333 94.8611 219.287C94.5837 219.24 94.26 219.24 93.9826 219.194C93.9364 219.194 93.8903 219.194 93.844 219.194C93.5204 219.148 93.1967 219.102 92.8268 219.055C92.272 219.009 91.7635 218.917 91.255 218.824C91.0238 218.778 90.8389 218.778 90.6078 218.732C90.3304 218.685 90.053 218.639 89.7756 218.593C89.5444 218.547 89.3132 218.547 89.1283 218.5C88.5273 218.408 87.9262 218.315 87.279 218.176C87.2328 218.176 87.2328 218.176 87.1865 218.176C86.7242 218.084 86.3082 217.991 85.8459 217.945C85.3835 217.853 84.9674 217.76 84.5051 217.668C84.2277 217.621 83.9504 217.529 83.673 217.483C76.9231 215.956 70.2657 213.736 63.7932 210.73C63.4696 210.591 63.1459 210.406 62.8223 210.267C58.6152 208.278 54.5006 205.919 50.4784 203.237C25.3282 186.447 4.06152 150.046 0.91775 122.062C0.871518 121.924 0.825195 121.831 0.825195 121.831C0.825195 121.831 0.825195 137.372 0.825195 172.247V172.293C0.825195 182.608 1.98102 192.598 4.20015 202.219C4.20015 202.265 4.20015 202.312 4.20015 202.312C11.0425 210.498 19.1331 217.853 28.4258 224.051C29.4891 224.744 30.5524 225.438 31.662 226.132C32.7253 226.826 33.8349 227.473 34.9444 228.075C35.6841 228.491 36.4239 228.907 37.1636 229.324C38.2731 229.925 39.3827 230.526 40.4923 231.081C43.4511 232.607 46.5025 233.949 49.5538 235.151C50.3397 235.475 51.0794 235.753 51.8654 236.03C52.6513 236.308 53.391 236.585 54.177 236.863C58.9851 238.528 63.8394 239.869 68.74 240.887C68.925 240.933 69.1099 240.979 69.2948 240.979C69.526 241.026 69.8034 241.072 70.0346 241.118C70.3119 241.164 70.5893 241.211 70.8205 241.257C71.2366 241.349 71.6064 241.396 72.0224 241.488C72.2074 241.534 72.3924 241.534 72.5773 241.581C73.0396 241.673 73.502 241.719 73.9643 241.812C74.0567 241.812 74.1954 241.858 74.2879 241.858C74.4728 241.904 74.704 241.904 74.8889 241.951C75.1201 241.997 75.3512 242.043 75.5824 242.043C76.0909 242.089 76.5532 242.182 77.0618 242.228C77.4316 242.274 77.8015 242.321 78.1713 242.367C78.5874 242.413 79.0035 242.459 79.4196 242.506C79.8356 242.552 80.2518 242.598 80.6679 242.644C81.1302 242.691 81.5925 242.737 82.0549 242.783C82.1936 242.783 82.3323 242.829 82.5172 242.829C82.9795 242.876 83.4418 242.922 83.9041 242.922C84.1353 242.922 84.3665 242.968 84.5976 242.968C84.8288 242.968 85.0599 243.014 85.2911 243.014C85.5685 243.014 85.7996 243.061 86.077 243.061C86.4469 243.061 86.8168 243.107 87.1404 243.107C88.2037 243.153 89.2671 243.153 90.3766 243.199C91.0701 243.199 91.8097 243.199 92.5032 243.199C92.8731 243.199 93.1967 243.199 93.5666 243.199C93.9364 243.199 94.3063 243.199 94.6299 243.153C94.9998 243.153 95.3697 243.107 95.7857 243.107C96.1094 243.107 96.4329 243.061 96.7565 243.061C97.45 243.014 98.1898 243.014 98.8833 242.922C99.2069 242.922 99.4843 242.876 99.8079 242.876C101.287 242.783 102.767 242.644 104.246 242.459C104.57 242.413 104.94 242.367 105.263 242.321C105.957 242.228 106.696 242.136 107.39 242.043C107.76 241.997 108.083 241.951 108.453 241.904C109.008 241.812 109.563 241.719 110.118 241.627C110.256 241.581 110.441 241.581 110.58 241.534C110.719 241.534 110.857 241.488 110.95 241.488C111.042 241.488 111.135 241.442 111.181 241.442C111.227 241.442 111.32 241.442 111.366 241.396C111.458 241.396 111.505 241.396 111.597 241.349C111.967 241.303 112.291 241.211 112.66 241.164C115.481 240.656 118.254 240.008 121.028 239.268C121.352 239.175 121.676 239.083 121.999 238.99C122.415 238.898 122.831 238.759 123.201 238.667C123.479 238.574 123.802 238.482 124.08 238.389C124.403 238.297 124.773 238.204 125.097 238.065C125.42 237.973 125.79 237.834 126.114 237.742C127.177 237.418 128.194 237.048 129.258 236.678C129.905 236.447 130.552 236.215 131.199 235.984C131.569 235.845 131.893 235.706 132.263 235.568C132.494 235.475 132.679 235.383 132.91 235.336C133.234 235.244 133.511 235.105 133.835 234.966C134.066 234.874 134.297 234.781 134.482 234.689C136.701 233.81 138.874 232.839 141.047 231.775C141.37 231.636 141.694 231.451 141.971 231.312C142.295 231.127 142.619 230.989 142.942 230.804C143.22 230.665 143.451 230.526 143.728 230.434C143.775 230.387 143.867 230.387 143.913 230.341C144.283 230.156 144.653 229.971 145.023 229.74C145.393 229.555 145.762 229.324 146.132 229.139C146.225 229.092 146.271 229.046 146.363 229C146.641 228.861 146.918 228.676 147.196 228.537C148.398 227.843 149.6 227.15 150.802 226.41C151.079 226.225 151.403 226.04 151.68 225.855C151.958 225.67 152.235 225.484 152.559 225.299C153.113 224.929 153.714 224.559 154.269 224.189C154.593 224.004 154.87 223.773 155.194 223.588C156.35 222.802 157.505 222.016 158.615 221.183C158.892 220.998 159.124 220.813 159.355 220.628C159.401 220.582 159.447 220.582 159.493 220.535C159.817 220.304 160.187 220.027 160.511 219.749C160.88 219.472 161.25 219.194 161.62 218.917C161.805 218.778 162.036 218.593 162.221 218.454C162.73 218.038 163.238 217.668 163.747 217.251C163.885 217.159 163.978 217.066 164.117 216.928L164.163 216.881C164.533 216.604 164.856 216.28 165.226 216.003C165.272 216.003 165.272 215.956 165.319 215.956C165.457 215.864 165.596 215.725 165.688 215.633C165.827 215.494 165.966 215.401 166.105 215.263C166.289 215.078 166.521 214.939 166.706 214.754C166.752 214.708 166.752 214.708 166.798 214.661C166.937 214.522 167.075 214.43 167.214 214.291C168.185 213.459 169.11 212.58 170.034 211.701C170.312 211.47 170.543 211.192 170.82 210.961C171.051 210.73 171.283 210.545 171.514 210.313C171.837 209.99 172.161 209.666 172.485 209.342C172.901 208.926 173.317 208.463 173.779 208.047C174.103 207.723 174.38 207.4 174.704 207.076C174.842 206.937 174.935 206.798 175.074 206.706C176.183 205.503 177.293 204.254 178.356 203.005C178.541 202.774 178.726 202.543 178.911 202.358C179.142 202.08 179.373 201.757 179.65 201.479C180.02 201.063 180.344 200.6 180.714 200.138C181.084 199.675 181.407 199.259 181.777 198.796C182.378 198.01 182.979 197.27 183.534 196.438C183.765 196.114 183.996 195.79 184.228 195.466C184.366 195.281 184.459 195.096 184.597 194.957C184.736 194.772 184.828 194.587 184.967 194.449C185.106 194.217 185.245 194.032 185.43 193.801C185.799 193.292 186.123 192.784 186.493 192.275C186.632 192.043 186.77 191.812 186.955 191.581C186.955 191.535 187.001 191.535 187.001 191.488C187.14 191.257 187.279 191.026 187.464 190.795C187.602 190.563 187.741 190.332 187.88 190.101C187.926 190.008 188.018 189.916 188.065 189.777C188.25 189.5 188.388 189.222 188.573 188.944C188.804 188.621 188.989 188.251 189.221 187.881C189.452 187.511 189.637 187.187 189.868 186.817C190.238 186.169 190.607 185.522 190.977 184.874C191.116 184.643 191.255 184.412 191.393 184.18C191.948 183.209 192.457 182.238 192.965 181.266C193.104 181.035 193.197 180.804 193.335 180.573V180.526C193.474 180.295 193.566 180.064 193.705 179.786C193.751 179.694 193.798 179.555 193.89 179.463C193.982 179.231 194.121 179 194.214 178.769C194.352 178.491 194.491 178.167 194.63 177.89C194.676 177.844 194.676 177.751 194.722 177.705C194.722 177.659 194.768 177.659 194.768 177.612C194.907 177.335 195 177.104 195.138 176.826C195.693 175.624 196.248 174.421 196.756 173.218C196.895 172.895 197.034 172.617 197.126 172.293C197.404 171.646 197.681 170.952 197.912 170.304C198.005 170.119 198.051 169.888 198.143 169.703C198.374 169.148 198.559 168.593 198.791 167.992C198.883 167.761 198.929 167.576 199.022 167.344C199.253 166.65 199.53 165.957 199.761 165.263C199.854 164.985 199.946 164.754 200.039 164.477C200.039 164.43 200.085 164.384 200.085 164.292C200.177 163.968 200.316 163.598 200.409 163.274C200.455 163.181 200.501 163.043 200.501 162.904C200.732 162.118 200.963 161.331 201.195 160.545C201.518 159.435 201.842 158.325 202.119 157.169C202.212 156.706 202.35 156.29 202.443 155.827C202.628 155.041 202.813 154.255 202.998 153.422C203.044 153.283 203.044 153.145 203.09 153.006C203.321 151.988 203.506 151.017 203.691 149.999C203.737 149.814 203.737 149.629 203.784 149.444C203.83 149.306 203.83 149.167 203.876 149.028C203.876 148.982 203.876 148.935 203.922 148.843C204.015 148.195 204.153 147.548 204.246 146.9C204.246 146.854 204.246 146.854 204.246 146.808C204.292 146.669 204.292 146.484 204.338 146.345C204.385 146.16 204.385 145.975 204.431 145.79C204.477 145.466 204.523 145.143 204.57 144.819C204.662 144.218 204.708 143.663 204.801 143.061C204.847 142.691 204.893 142.321 204.939 141.951C205.032 141.165 205.124 140.379 205.171 139.639C205.217 139.037 205.263 138.436 205.309 137.835C205.355 137.557 205.356 137.233 205.356 136.956C205.402 136.216 205.448 135.522 205.494 134.782C205.494 134.458 205.54 134.134 205.54 133.811C205.54 133.626 205.54 133.487 205.54 133.302C205.54 133.117 205.54 132.978 205.54 132.793C205.54 132.377 205.587 132.007 205.587 131.591C205.54 130.249 205.54 128.445 205.494 126.641Z" fill="url(#paint9_linear_5_1544)"/>
<path d="M85.1988 112.21C85.7536 113.182 87.4643 113.32 88.9899 112.442C90.5156 111.563 91.3477 110.083 90.7929 109.111C90.2381 108.14 88.5276 108.001 87.0019 108.88C85.4763 109.713 84.644 111.239 85.1988 112.21Z" fill="#181447"/>
<path d="M166.198 87.9736C168.694 92.4139 165.366 99.0281 158.801 102.775C152.189 106.521 144.792 105.966 142.296 101.526C139.799 97.0855 143.128 90.4713 149.693 86.7248C156.304 82.9783 163.701 83.5333 166.198 87.9736Z" fill="#181447"/>
<path d="M181.684 109.111C182.1 110.73 184.551 111.424 187.14 110.73C189.729 110.036 191.439 108.14 191.023 106.567C190.607 104.949 188.157 104.255 185.568 104.949C182.979 105.642 181.268 107.492 181.684 109.111Z" fill="#F4B0C5"/>
<path d="M0.917371 121.553C3.92245 149.583 25.2353 186.262 50.5242 203.144C54.5001 205.827 58.6611 208.139 62.8682 210.175C63.1918 210.313 63.5154 210.498 63.839 210.637C70.2653 213.644 76.9689 215.864 83.7188 217.39C83.9962 217.436 84.2736 217.529 84.551 217.575C84.9671 217.668 85.4293 217.76 85.8917 217.853C86.354 217.945 86.7701 218.038 87.2325 218.084C87.2787 218.084 87.2787 218.084 87.3249 218.084C87.9259 218.176 88.5269 218.315 89.1742 218.408C89.4053 218.454 89.5902 218.5 89.8214 218.5C90.0988 218.546 90.3762 218.593 90.6536 218.639C90.8385 218.685 91.0697 218.685 91.3009 218.731C91.8094 218.824 92.3642 218.87 92.8727 218.963C93.1964 219.009 93.52 219.055 93.8898 219.101C93.936 219.101 93.9823 219.101 94.0285 219.101C94.3059 219.148 94.6295 219.148 94.9069 219.194C95.4617 219.24 95.9702 219.286 96.525 219.333C96.6175 219.333 96.6637 219.333 96.7562 219.333C79.4654 207.631 70.0803 185.845 70.0803 152.127V49.9072L0.871094 49.9535C0.871094 49.9535 0.871094 81.2669 0.871094 121.692C0.871094 121.646 0.917371 121.6 0.917371 121.553Z" fill="#5C468A"/>
<path d="M158.569 93.9405C160.177 93.9405 161.481 92.6358 161.481 91.0265C161.481 89.4172 160.177 88.1125 158.569 88.1125C156.96 88.1125 155.656 89.4172 155.656 91.0265C155.656 92.6358 156.96 93.9405 158.569 93.9405Z" fill="white"/>
<path d="M555.47 252.219V304.346H543.403V282.977H519.733V304.346H507.666V252.219H519.733V272.801H543.403V252.219H555.47Z" fill="#5C468A"/>
<path d="M601.055 304.346L591.023 289.823H590.422H579.927V304.346H567.86V252.219H590.422C604.337 252.219 613.075 259.434 613.075 271.136C613.075 278.953 609.146 284.688 602.349 287.602L614.046 304.346H601.055ZM589.728 262.024H579.881V280.202H589.728C597.079 280.202 600.824 276.779 600.824 271.09C600.824 265.401 597.079 262.024 589.728 262.024Z" fill="#5C468A"/>
<defs>
<linearGradient id="paint0_linear_5_1544" x1="149.687" y1="45.7573" x2="87.1823" y2="10.1298" gradientUnits="userSpaceOnUse">
<stop stop-color="#FECE98"/>
<stop offset="0.1844" stop-color="#FBBA8A"/>
<stop offset="0.4178" stop-color="#F9A67B"/>
<stop offset="0.5552" stop-color="#F89E76"/>
<stop offset="1" stop-color="#FFDC60"/>
</linearGradient>
<linearGradient id="paint1_linear_5_1544" x1="156.982" y1="49.9192" x2="128.089" y2="33.4504" gradientUnits="userSpaceOnUse">
<stop stop-color="#F8B4BA" stop-opacity="0"/>
<stop offset="0.0258016" stop-color="#F7B3B9" stop-opacity="0.0258016"/>
<stop offset="0.655" stop-color="#E596A5" stop-opacity="0.655"/>
<stop offset="1" stop-color="#E08C9E"/>
</linearGradient>
<linearGradient id="paint2_linear_5_1544" x1="266.515" y1="209.394" x2="58.4686" y2="158.707" gradientUnits="userSpaceOnUse">
<stop stop-color="#F494B7"/>
<stop offset="0.0468597" stop-color="#E993B8"/>
<stop offset="0.2743" stop-color="#C591BE"/>
<stop offset="0.4513" stop-color="#AE90C2"/>
<stop offset="0.5552" stop-color="#A68FC4"/>
<stop offset="1" stop-color="#D9A6CC"/>
</linearGradient>
<linearGradient id="paint3_linear_5_1544" x1="193.565" y1="70.9627" x2="101.987" y2="48.651" gradientUnits="userSpaceOnUse">
<stop stop-color="#F494B7"/>
<stop offset="0.0468597" stop-color="#E993B8"/>
<stop offset="0.2743" stop-color="#C591BE"/>
<stop offset="0.4513" stop-color="#AE90C2"/>
<stop offset="0.5552" stop-color="#A68FC4"/>
<stop offset="1" stop-color="#D9A6CC"/>
</linearGradient>
<linearGradient id="paint4_linear_5_1544" x1="72.8228" y1="111.598" x2="226.347" y2="87.2929" gradientUnits="userSpaceOnUse">
<stop stop-color="#E5E4E6"/>
<stop offset="0.3452" stop-color="#F2F1F2"/>
<stop offset="0.7385" stop-color="white"/>
</linearGradient>
<linearGradient id="paint5_linear_5_1544" x1="155.666" y1="173.19" x2="182.193" y2="159.681" gradientUnits="userSpaceOnUse">
<stop stop-color="#E5E4E6"/>
<stop offset="0.3092" stop-color="#F2F1F2"/>
<stop offset="0.6615" stop-color="white"/>
</linearGradient>
<linearGradient id="paint6_linear_5_1544" x1="227.479" y1="197.673" x2="17.7954" y2="146.586" gradientUnits="userSpaceOnUse">
<stop stop-color="#FECE98"/>
<stop offset="0.1844" stop-color="#FBBA8A"/>
<stop offset="0.4178" stop-color="#F9A67B"/>
<stop offset="0.5552" stop-color="#F89E76"/>
<stop offset="1" stop-color="#FFDC60"/>
</linearGradient>
<linearGradient id="paint7_linear_5_1544" x1="196.049" y1="142.68" x2="177.667" y2="133.035" gradientUnits="userSpaceOnUse">
<stop stop-color="#F8B4BA" stop-opacity="0"/>
<stop offset="0.0216998" stop-color="#F7B3B9" stop-opacity="0.0258016"/>
<stop offset="0.5509" stop-color="#E596A5" stop-opacity="0.655"/>
<stop offset="0.841" stop-color="#E08C9E"/>
</linearGradient>
<linearGradient id="paint8_linear_5_1544" x1="214.596" y1="80.6381" x2="205.233" y2="73.6125" gradientUnits="userSpaceOnUse">
<stop stop-color="#F8B4BA" stop-opacity="0"/>
<stop offset="0.0258016" stop-color="#F7B3B9" stop-opacity="0.0258016"/>
<stop offset="0.655" stop-color="#E596A5" stop-opacity="0.655"/>
<stop offset="1" stop-color="#E08C9E"/>
</linearGradient>
<linearGradient id="paint9_linear_5_1544" x1="0.871427" y1="164.106" x2="205.537" y2="164.106" gradientUnits="userSpaceOnUse">
<stop stop-color="#99D4BE"/>
<stop offset="0.0100253" stop-color="#99D4BE"/>
<stop offset="0.3533" stop-color="#88D1D0"/>
<stop offset="0.5552" stop-color="#81D0D7"/>
<stop offset="1" stop-color="#69C7E8"/>
</linearGradient>
</defs>
</svg>
