<svg width="614" height="308" viewBox="0 0 614 308" fill="none" xmlns="http://www.w3.org/2000/svg">
<path d="M488.949 167.066V304.485H470.595H451.964V167.066H488.949ZM470.549 123.033C475.542 123.033 479.888 124.791 483.54 128.306C487.193 131.822 489.042 136.031 489.042 140.841C489.042 145.975 487.331 150.23 483.864 153.514C480.397 156.798 475.958 158.463 470.549 158.463C465.14 158.463 460.702 156.798 457.234 153.514C453.767 150.23 452.056 145.975 452.056 140.841C452.056 136.031 453.906 131.868 457.558 128.306C461.21 124.791 465.51 123.033 470.549 123.033Z" fill="#181447"/>
<path d="M410.17 173.773C397.179 158.14 379.888 150.323 358.298 150.323C339.435 150.323 323.531 157.076 310.54 170.535C297.549 183.995 291.03 200.554 291.03 220.211V304.3H327.877V226.039C327.877 201.248 338.88 190.563 358.344 190.563C377.808 190.563 388.996 201.248 388.996 226.039V304.3H425.427V224.744C425.473 202.959 420.341 185.984 410.17 173.773Z" fill="#181447"/>
<path d="M88.5344 0.277385L104.022 8.00167L123.671 17.8073L150.809 31.3133L169.671 40.7027L134.859 54.8099L120.527 40.1476L104.808 24.0515L94.9606 13.9683L85.5755 4.34767C83.5875 2.26627 85.9916 -0.971451 88.5344 0.277385Z" fill="url(#paint0_linear_5_1516)"/>
<path opacity="0.7" d="M135.506 36.3548C140.73 34.5972 148.774 33.5796 158.76 35.1985L169.671 40.7026L134.858 54.8098L120.526 40.1476L123.531 43.2003C126.583 40.6101 130.328 38.0662 135.506 36.3548Z" fill="url(#paint1_linear_5_1516)"/>
<path d="M32.7324 260.868C40.5919 270.026 49.792 278.259 60.2867 285.243C122.422 326.732 206.38 309.943 247.85 247.825C288.534 186.817 273.139 104.717 213.823 62.488C213.731 62.4417 213.684 62.3955 213.592 62.303C212.714 63.5056 211.789 64.6156 210.818 65.6332C208.738 67.8071 206.38 69.6572 203.883 71.1373C203.19 71.5536 202.45 71.9236 201.71 72.2937C201.803 72.4324 201.941 72.5712 202.034 72.6637C203.513 74.3751 204.947 76.0864 206.287 77.8903C211.234 84.2732 215.487 91.0262 219.094 98.103C239.343 137.881 238.095 187.14 211.558 226.872C172.445 285.475 93.2501 301.293 34.6742 262.163C34.0269 261.747 33.3797 261.284 32.7324 260.868Z" fill="url(#paint2_linear_5_1516)"/>
<path d="M100.277 52.1273C99.0288 59.8978 101.941 67.5296 107.582 72.4787C107.72 72.6174 107.905 72.7562 108.044 72.895C108.922 73.635 109.847 74.2826 110.864 74.8839C112.76 75.9939 114.84 76.8727 117.059 77.4278C126.028 79.6017 135.044 76.0402 140.222 69.1022C140.36 68.8709 140.499 68.6859 140.638 68.4547L140.915 68.0846C140.961 67.9921 141.054 67.8996 141.1 67.8071C141.192 67.6684 141.331 67.4833 141.424 67.3446C141.516 67.2058 141.608 67.0671 141.701 66.9746C141.84 66.7895 141.978 66.5583 142.163 66.3733C142.394 66.0495 142.672 65.7257 142.903 65.4019C142.995 65.2632 143.134 65.1244 143.227 64.9857C143.412 64.7544 143.55 64.5694 143.735 64.3844C143.92 64.1994 144.059 63.9681 144.244 63.7831C144.429 63.5981 144.614 63.3668 144.752 63.1818C144.937 62.9968 145.076 62.8118 145.261 62.6268L145.307 62.5805C145.446 62.4417 145.538 62.303 145.677 62.2105L146.001 61.8405C146.093 61.7017 146.232 61.6092 146.37 61.4704C146.786 61.0541 147.203 60.6841 147.619 60.2678C147.757 60.1291 147.896 59.9903 148.035 59.8978C148.266 59.6666 148.543 59.4815 148.774 59.2503C148.913 59.1115 149.098 58.9728 149.237 58.8803C149.329 58.7877 149.422 58.6952 149.56 58.649C149.653 58.6027 149.699 58.5102 149.792 58.464C149.93 58.3715 150.069 58.2327 150.208 58.1402C150.346 58.0014 150.531 57.9089 150.67 57.7702C150.855 57.6314 151.04 57.4927 151.225 57.3539C151.548 57.1226 151.826 56.8914 152.149 56.7064C152.288 56.6138 152.427 56.5213 152.519 56.4288C152.658 56.3363 152.797 56.2438 152.935 56.1513C153.074 56.0588 153.213 55.9663 153.351 55.8738C153.444 55.8275 153.536 55.7813 153.629 55.6888C153.814 55.5963 155.016 54.81 155.478 54.5787C155.663 54.4862 156.218 54.1624 156.31 54.1162C156.449 54.0237 159.916 52.4048 160.101 52.3123C163.615 50.8322 167.36 49.8146 171.197 49.3058C171.382 49.2596 171.567 49.2596 171.752 49.2596C172.676 49.1671 173.601 49.0746 174.572 49.0283C175.728 48.9821 180.813 49.9534 182.2 50.3697C184.419 51.0172 186.638 51.4797 188.858 51.8498C190.383 52.081 191.955 52.266 193.481 52.4048C194.729 52.4973 195.977 52.5436 197.226 52.5436C170.688 35.7999 148.959 37.465 138.65 41.4428C124.965 46.7157 121.867 57.2614 114.794 60.0828C112.066 61.1467 110.217 61.4704 107.628 60.8229C103.513 59.6666 100.647 56.1513 100.277 52.1273Z" fill="url(#paint3_linear_5_1516)"/>
<path d="M86.7307 138.575C93.1107 142.83 105.408 143.755 114.285 141.35C121.959 139.268 129.542 138.991 138.002 140.656C140.545 141.257 145.492 142.969 148.173 143.477C156.633 145.004 164.123 144.356 172.214 141.766C178.224 139.823 183.957 136.771 188.996 132.7C192.972 129.463 196.532 125.624 199.537 121.137C200.6 119.518 201.617 117.853 202.496 116.142C201.941 105.55 199.675 95.0503 195.792 85.1521C195.607 84.6433 195.422 84.1808 195.191 83.672C195.191 83.672 195.191 83.6257 195.145 83.6257C193.943 80.8968 192.648 78.1678 191.215 75.5314C191.169 75.4389 191.123 75.3001 191.03 75.2076C191.076 75.2076 191.123 75.2076 191.169 75.2076C192.556 75.0689 193.943 74.8839 195.33 74.5601C197.503 74.0513 199.629 73.3113 201.663 72.3399C202.403 71.9699 203.143 71.5999 203.836 71.1836C206.379 69.7035 208.691 67.8996 210.771 65.6795C211.742 64.6619 212.667 63.5056 213.545 62.3493C214.007 61.7017 214.423 61.0542 214.84 60.3604C217.197 56.4751 218.677 52.3123 219.232 48.1033C212.251 50.971 204.761 52.4511 197.179 52.3586C195.931 52.3586 194.682 52.3123 193.434 52.2198C191.908 52.1273 190.337 51.9423 188.811 51.6648C186.592 51.2947 184.373 50.8322 182.154 50.1847C180.767 49.7684 175.727 48.7971 174.525 48.8433C173.601 48.8896 172.63 48.9821 171.705 49.0746C171.52 49.0746 171.335 49.1208 171.15 49.1208C167.313 49.6296 163.568 50.6472 160.055 52.1273C159.87 52.2198 159.685 52.2661 159.5 52.3586C159.315 52.4511 159.176 52.4973 158.991 52.5898C158.806 52.6823 158.668 52.7286 158.483 52.8211C158.298 52.9136 158.159 52.9599 157.974 53.0524C157.789 53.1449 157.604 53.2374 157.419 53.3299C157.188 53.4686 156.957 53.5611 156.726 53.6999C156.587 53.7924 156.402 53.8387 156.264 53.9312C156.125 53.9774 156.032 54.0699 155.894 54.1162C155.709 54.2087 155.57 54.3012 155.385 54.3937C154.923 54.6712 154.507 54.9025 154.044 55.18C153.86 55.2725 153.721 55.4113 153.536 55.5038C153.443 55.55 153.351 55.5963 153.259 55.6888C153.12 55.7813 152.981 55.8738 152.842 55.9663C152.704 56.0588 152.565 56.1513 152.426 56.2438C152.288 56.3363 152.149 56.4288 152.056 56.5214C151.733 56.7526 151.455 56.9376 151.132 57.1689C150.947 57.3077 150.762 57.4464 150.577 57.5852C150.438 57.7239 150.253 57.8164 150.115 57.9552C149.976 58.0477 149.837 58.1865 149.699 58.279C149.606 58.3252 149.56 58.4177 149.467 58.464C149.375 58.5565 149.283 58.649 149.144 58.6953C149.005 58.834 148.82 58.9728 148.682 59.0653C148.45 59.2965 148.173 59.4816 147.942 59.7128C147.803 59.8516 147.664 59.9903 147.526 60.0828C147.11 60.4529 146.694 60.8692 146.277 61.2854C146.139 61.4242 146.046 61.5167 145.908 61.6555L145.584 62.0255C145.445 62.1642 145.353 62.303 145.214 62.3955L145.168 62.4418C144.983 62.6268 144.844 62.8118 144.659 62.9968C144.474 63.1818 144.29 63.4131 144.151 63.5981C143.966 63.7831 143.781 64.0144 143.642 64.1994C143.457 64.3844 143.319 64.6157 143.134 64.8007C143.041 64.9394 142.903 65.0782 142.81 65.217C142.579 65.5407 142.302 65.8645 142.07 66.1883C141.932 66.3733 141.793 66.6045 141.608 66.7896C141.053 67.5296 140.175 69.0097 140.175 69.0097C134.997 75.9477 125.982 79.5092 117.013 77.3353C114.794 76.7802 112.713 75.9014 110.818 74.7914C109.8 74.1901 108.876 73.5425 107.997 72.8025C107.859 72.6637 107.674 72.525 107.535 72.3862C103.097 78.1678 96.2083 84.5508 91.169 88.5286C84.1417 94.0789 74.0632 97.5017 71.6591 101.063C68.3766 106.151 78.1778 132.839 86.7307 138.575Z" fill="url(#paint4_linear_5_1516)"/>
<path d="M138.003 213.69C138.465 213.505 138.928 213.366 139.39 213.181C140.869 212.626 142.349 212.025 143.782 211.377C144.013 211.285 144.244 211.192 144.475 211.053C145.631 210.544 146.741 210.036 147.85 209.481C148.128 209.342 148.451 209.203 148.729 209.018C148.96 208.926 149.145 208.787 149.376 208.694C149.792 208.509 150.162 208.278 150.578 208.093C150.948 207.908 151.364 207.677 151.78 207.445C151.919 207.353 152.104 207.26 152.242 207.168C153.075 206.705 153.907 206.197 154.739 205.734C155.155 205.503 155.525 205.272 155.941 204.994C156.403 204.717 156.866 204.393 157.328 204.115C157.513 204.023 157.652 203.884 157.836 203.791C157.883 203.745 157.975 203.699 158.021 203.653C158.253 203.514 158.437 203.375 158.669 203.236C158.9 203.051 159.177 202.913 159.408 202.728C159.639 202.543 159.917 202.404 160.148 202.219C160.703 201.849 161.304 201.433 161.859 201.016C161.997 200.924 162.182 200.785 162.321 200.693L162.367 200.646C162.598 200.461 162.83 200.322 163.061 200.137C163.477 199.814 163.893 199.49 164.355 199.166C164.679 198.889 165.049 198.657 165.372 198.38C168.1 196.206 170.735 193.893 173.232 191.396C173.74 190.887 174.249 190.378 174.757 189.869C175.774 188.852 176.745 187.742 177.716 186.678C178.086 186.308 178.41 185.891 178.733 185.475C179.149 185.013 179.519 184.55 179.935 184.041C180.074 183.903 180.166 183.764 180.305 183.579C180.675 183.163 180.999 182.7 181.369 182.237C181.553 182.006 181.738 181.775 181.923 181.544C182.571 180.757 183.172 179.925 183.773 179.092C184.559 178.028 185.298 176.918 186.038 175.808C192.603 165.956 197.18 155.318 199.815 144.449C199.908 144.125 199.954 143.755 200.046 143.431C200.139 143.015 200.231 142.599 200.324 142.136C200.37 141.951 200.416 141.766 200.462 141.581C200.509 141.35 200.555 141.165 200.601 140.933C200.693 140.563 200.74 140.193 200.832 139.87C200.971 139.037 201.156 138.204 201.295 137.372C201.341 137.094 201.387 136.817 201.433 136.493C201.526 135.984 201.572 135.476 201.664 134.967C201.711 134.643 201.757 134.273 201.803 133.949C202.034 132.145 202.219 130.295 202.358 128.491C202.404 128.214 202.404 127.89 202.404 127.612C202.45 126.965 202.497 126.364 202.497 125.716C202.589 123.681 202.635 121.6 202.589 119.564C202.589 119.148 202.589 118.732 202.543 118.269C202.543 117.529 202.497 116.743 202.45 116.003C201.572 117.714 200.601 119.379 199.491 120.998C196.486 125.485 192.927 129.37 188.951 132.562C183.911 136.632 178.225 139.685 172.168 141.627C174.064 148.241 174.804 155.133 174.388 162.025C173.74 172.247 170.458 182.469 164.355 191.627C157.652 201.849 148.405 209.249 138.003 213.69Z" fill="url(#paint5_linear_5_1516)"/>
<path d="M3.375 202.219C8.13689 223.588 18.0305 243.8 32.7323 260.868C33.3796 261.33 34.0268 261.747 34.674 262.209C93.25 301.339 172.445 285.521 211.511 226.918C238.049 187.14 239.297 137.881 219.047 98.1491C215.441 91.0724 211.188 84.3194 206.241 77.9365C204.854 76.1789 203.467 74.4212 201.988 72.7099C201.895 72.5711 201.756 72.4324 201.664 72.3398C199.63 73.3112 197.503 74.0512 195.33 74.56C193.943 74.8838 192.371 75.115 190.984 75.2075C191.031 75.3001 195.931 85.5683 195.931 85.5683C196.116 86.0308 201.756 100.462 203.606 113.829C203.652 114.338 203.744 114.8 203.791 115.309C203.837 115.679 203.883 116.049 203.929 116.419V116.465C203.976 116.882 204.022 117.298 204.068 117.714C204.16 118.501 204.207 119.241 204.299 120.027C204.299 120.258 204.345 120.536 204.345 120.767C204.392 121.507 204.438 122.247 204.484 123.033C204.484 123.45 204.53 123.82 204.53 124.236V124.282C204.53 124.791 204.577 125.3 204.577 125.762C204.577 126.086 204.577 126.41 204.623 126.687C204.669 128.491 204.669 130.295 204.623 132.099C204.623 132.469 204.623 132.885 204.577 133.302C204.577 133.487 204.577 133.625 204.577 133.81C204.577 133.995 204.577 134.134 204.577 134.319C204.577 134.643 204.53 134.967 204.53 135.29C204.484 136.03 204.438 136.724 204.392 137.464C204.392 137.742 204.345 138.066 204.345 138.343C204.299 138.944 204.253 139.546 204.207 140.147C204.114 140.933 204.068 141.72 203.976 142.46C203.929 142.83 203.883 143.2 203.837 143.57C203.744 144.171 203.698 144.726 203.606 145.327C203.559 145.651 203.513 145.975 203.467 146.299C203.421 146.484 203.421 146.669 203.375 146.854C203.328 146.992 203.328 147.178 203.282 147.316C203.282 147.363 203.282 147.363 203.282 147.409C203.19 148.056 203.051 148.704 202.958 149.351C202.958 149.398 202.958 149.444 202.912 149.536C202.866 149.675 202.866 149.814 202.82 149.953C202.774 150.138 202.774 150.323 202.727 150.508C202.542 151.525 202.357 152.543 202.126 153.514C202.08 153.653 202.08 153.792 202.034 153.93C201.849 154.717 201.664 155.503 201.479 156.336C201.387 156.798 201.248 157.214 201.155 157.677C200.878 158.787 200.554 159.897 200.231 161.053C200 161.84 199.768 162.626 199.537 163.412C199.491 163.551 199.445 163.644 199.445 163.782C199.352 164.106 199.214 164.476 199.121 164.8C199.121 164.846 199.075 164.939 199.075 164.985C198.982 165.263 198.89 165.494 198.798 165.771C198.566 166.465 198.335 167.159 198.058 167.853C197.965 168.084 197.919 168.315 197.827 168.5C197.642 169.055 197.411 169.61 197.179 170.212C197.087 170.397 197.041 170.628 196.948 170.813C196.671 171.46 196.44 172.154 196.162 172.802C196.024 173.126 195.885 173.403 195.792 173.727C195.284 174.929 194.729 176.132 194.174 177.335C194.036 177.612 193.943 177.843 193.805 178.121C193.805 178.167 193.758 178.167 193.758 178.213C193.712 178.26 193.712 178.352 193.666 178.398C193.527 178.676 193.388 179 193.25 179.277C193.157 179.508 193.019 179.74 192.926 179.971C192.88 180.064 192.834 180.202 192.741 180.295C192.602 180.526 192.51 180.757 192.371 181.035V181.081C192.279 181.312 192.14 181.544 192.001 181.775C191.493 182.746 190.984 183.718 190.43 184.689C190.291 184.92 190.152 185.151 190.013 185.383C189.644 186.03 189.274 186.678 188.904 187.325C188.719 187.695 188.488 188.019 188.257 188.389C188.026 188.759 187.841 189.083 187.609 189.453C187.424 189.73 187.286 190.008 187.101 190.285C187.055 190.378 186.962 190.47 186.916 190.609C186.777 190.841 186.639 191.072 186.5 191.303C186.361 191.534 186.222 191.766 186.038 191.997C186.038 192.043 185.991 192.089 185.991 192.089C185.853 192.321 185.714 192.552 185.529 192.783C185.205 193.292 184.836 193.801 184.466 194.31C184.327 194.541 184.188 194.726 184.003 194.957C183.865 195.142 183.772 195.327 183.633 195.466C183.495 195.651 183.402 195.836 183.264 195.975C183.032 196.298 182.801 196.622 182.57 196.946C181.969 197.732 181.414 198.519 180.813 199.305C180.443 199.767 180.12 200.184 179.75 200.646C179.38 201.109 179.057 201.525 178.687 201.988C178.456 202.265 178.224 202.589 177.947 202.866C177.762 203.098 177.577 203.329 177.392 203.514C176.329 204.763 175.219 206.012 174.11 207.214C173.971 207.353 173.879 207.492 173.74 207.584C173.416 207.908 173.139 208.232 172.815 208.555C172.399 208.972 171.983 209.434 171.521 209.851C171.197 210.174 170.873 210.498 170.55 210.822C170.319 211.053 170.088 211.238 169.856 211.469C169.625 211.701 169.348 211.978 169.07 212.209C168.146 213.088 167.175 213.967 166.25 214.8C166.112 214.938 165.973 215.031 165.834 215.17C165.788 215.216 165.788 215.216 165.742 215.262C165.557 215.447 165.372 215.632 165.141 215.771C165.002 215.91 164.863 216.002 164.725 216.141C164.586 216.234 164.493 216.372 164.355 216.465C164.309 216.465 164.309 216.511 164.262 216.511C163.892 216.835 163.569 217.112 163.199 217.39L163.153 217.436C163.014 217.529 162.922 217.621 162.783 217.76C162.274 218.176 161.766 218.592 161.257 218.962C161.072 219.101 160.841 219.286 160.656 219.425C160.286 219.702 159.916 219.98 159.547 220.258C159.223 220.535 158.853 220.766 158.53 221.044C158.483 221.09 158.437 221.09 158.391 221.136C158.16 221.321 157.882 221.506 157.651 221.691C156.542 222.524 155.386 223.31 154.23 224.097C153.906 224.282 153.629 224.513 153.305 224.698C152.751 225.068 152.196 225.438 151.595 225.808C151.317 225.993 151.04 226.178 150.716 226.363C150.439 226.548 150.162 226.733 149.838 226.918C148.636 227.658 147.434 228.352 146.232 229.046C145.954 229.184 145.677 229.369 145.4 229.508C145.307 229.554 145.261 229.601 145.168 229.647C144.799 229.832 144.429 230.063 144.059 230.248C143.689 230.433 143.319 230.665 142.949 230.85C142.903 230.896 142.811 230.896 142.764 230.942C142.487 231.081 142.256 231.22 141.978 231.312C141.655 231.497 141.331 231.636 141.008 231.821C140.684 231.96 140.36 232.145 140.083 232.283C137.91 233.347 135.737 234.272 133.518 235.197C133.287 235.29 133.056 235.382 132.871 235.475C132.547 235.614 132.27 235.706 131.946 235.845C131.715 235.937 131.53 236.03 131.299 236.076C130.929 236.215 130.559 236.354 130.236 236.492C129.588 236.724 128.941 236.955 128.294 237.186C127.277 237.556 126.213 237.88 125.15 238.25C124.826 238.343 124.457 238.481 124.133 238.574C123.809 238.666 123.439 238.805 123.116 238.898C122.838 238.99 122.515 239.083 122.237 239.175C121.821 239.268 121.405 239.406 121.035 239.499C120.712 239.591 120.388 239.684 120.065 239.776C117.291 240.516 114.517 241.164 111.697 241.673C111.327 241.719 111.003 241.812 110.633 241.858C110.494 241.904 110.356 241.904 110.217 241.95C110.125 241.95 110.078 241.997 109.986 241.997C109.847 241.997 109.709 242.043 109.616 242.043C109.477 242.089 109.292 242.089 109.154 242.135C108.599 242.228 108.044 242.32 107.489 242.413C107.12 242.459 106.796 242.505 106.426 242.552C105.733 242.644 104.993 242.737 104.299 242.829C103.976 242.875 103.606 242.922 103.282 242.968C101.803 243.153 100.323 243.245 98.844 243.384C98.5204 243.43 98.243 243.43 97.9194 243.43C97.2259 243.477 96.4862 243.523 95.7927 243.569C95.4691 243.569 95.1455 243.615 94.8219 243.615C94.452 243.615 94.0821 243.662 93.6661 243.662C93.2962 243.662 92.9263 243.662 92.6027 243.708C92.2329 243.708 91.9092 243.708 91.5394 243.708C90.8459 243.708 90.1062 243.708 89.4127 243.708C88.3494 243.708 87.286 243.662 86.1765 243.615C85.8066 243.615 85.483 243.569 85.1131 243.569C84.8357 243.569 84.6046 243.523 84.3272 243.523C84.096 243.523 83.8649 243.477 83.6337 243.477C83.4025 243.477 83.1714 243.43 82.9402 243.43C82.4779 243.384 82.0156 243.384 81.5533 243.338C81.4146 243.338 81.2759 243.338 81.091 243.292C80.6286 243.245 80.1663 243.199 79.704 243.153C79.2879 243.107 78.8718 243.06 78.4557 243.014C78.0396 242.968 77.6236 242.922 77.2075 242.875C76.8376 242.829 76.4678 242.783 76.0979 242.737C75.5893 242.69 75.127 242.598 74.6185 242.552C74.3873 242.505 74.1562 242.505 73.925 242.459C73.7401 242.413 73.5089 242.413 73.324 242.367C73.2315 242.367 73.0928 242.32 73.0004 242.32C72.538 242.228 72.0757 242.182 71.6134 242.089C71.4285 242.043 71.2435 242.043 71.0586 241.997C70.6425 241.904 70.2264 241.858 69.8566 241.765C69.5792 241.719 69.3018 241.673 69.0706 241.627C68.8395 241.58 68.5621 241.534 68.3309 241.488C68.146 241.441 67.9611 241.395 67.7761 241.395C62.8756 240.378 58.0212 239.036 53.2131 237.371C52.4271 237.094 51.6874 236.816 50.9015 236.539C50.1155 236.261 49.3758 235.937 48.5899 235.66C45.5386 234.457 42.4873 233.07 39.5284 231.59C38.4188 231.035 37.3093 230.433 36.1997 229.832C35.46 229.416 34.7203 228.999 33.9806 228.583C32.871 227.936 31.8077 227.288 30.6981 226.64C29.6348 225.947 28.5252 225.253 27.4619 224.559C18.3079 217.76 10.2173 210.406 3.375 202.219Z" fill="url(#paint6_linear_5_1516)"/>
<path d="M174.433 162.117C174.849 155.226 174.109 148.334 172.214 141.72C178.224 139.777 183.957 136.724 188.996 132.654C192.972 129.416 196.532 125.577 199.537 121.091C200.6 119.472 201.617 117.807 202.496 116.095C202.542 116.836 202.588 117.622 202.588 118.362C202.588 118.778 202.635 119.194 202.635 119.657C202.681 121.692 202.635 123.773 202.542 125.809C193.203 155.226 174.341 163.32 174.433 162.117Z" fill="#E5E4E6"/>
<path opacity="0.7" d="M174.433 162.117C174.849 155.226 174.109 148.334 172.214 141.72C178.224 139.777 183.957 136.724 188.996 132.654C192.972 129.416 196.532 125.577 199.537 121.091C200.6 119.472 201.617 117.807 202.496 116.095C202.542 116.836 202.588 117.622 202.588 118.362C202.588 118.778 202.635 119.194 202.635 119.657C202.681 121.692 202.635 123.773 202.542 125.809C193.203 155.226 174.341 163.32 174.433 162.117Z" fill="url(#paint7_linear_5_1516)"/>
<path opacity="0.7" d="M195.977 85.5682C195.977 85.5682 191.077 75.3 191.03 75.2075C192.417 75.0687 193.989 74.8837 195.376 74.56C197.549 74.0512 199.676 73.3111 201.71 72.3398C202.45 71.9698 203.189 71.5998 203.883 71.1835C206.426 69.7034 208.737 67.8995 210.818 65.6793C211.788 64.6618 212.713 63.5055 213.591 62.3491C213.684 62.3954 213.73 62.4416 213.823 62.5341C215.487 63.7367 217.105 64.9393 218.723 66.1881C210.771 79.1853 203.189 82.5155 195.977 85.5682Z" fill="url(#paint8_linear_5_1516)"/>
<path d="M204.623 126.641C204.623 126.317 204.623 125.994 204.577 125.716C204.577 125.207 204.53 124.699 204.53 124.236V124.19C204.53 123.773 204.484 123.403 204.484 122.987C204.438 122.247 204.392 121.507 204.345 120.721C204.345 120.49 204.299 120.212 204.299 119.981C204.253 119.194 204.16 118.454 204.068 117.668C204.022 117.252 203.975 116.836 203.929 116.419V116.373C203.883 116.003 203.837 115.633 203.791 115.263C203.744 114.754 203.652 114.292 203.606 113.783C202.265 103.931 199.63 94.264 195.746 85.0596C195.746 85.1058 195.746 85.1058 195.746 85.1521C199.63 95.0503 201.895 105.503 202.45 116.142C202.496 116.882 202.542 117.668 202.542 118.408C202.542 118.824 202.589 119.241 202.589 119.703C202.635 121.738 202.589 123.82 202.496 125.855C202.45 126.502 202.45 127.104 202.404 127.751C202.404 128.029 202.357 128.353 202.357 128.63C202.219 130.434 202.034 132.284 201.803 134.088C201.756 134.412 201.71 134.782 201.664 135.106C201.571 135.614 201.525 136.123 201.433 136.632C201.387 136.909 201.34 137.187 201.294 137.511C201.155 138.343 201.017 139.176 200.832 140.008C200.739 140.378 200.693 140.748 200.601 141.072C200.554 141.303 200.508 141.488 200.462 141.72C200.416 141.905 200.369 142.09 200.323 142.275C200.231 142.691 200.138 143.107 200.046 143.57C199.953 143.894 199.907 144.264 199.815 144.587C197.179 155.457 192.602 166.095 186.037 175.947C185.298 177.057 184.512 178.167 183.772 179.231C183.171 180.064 182.57 180.896 181.923 181.682C181.738 181.914 181.553 182.145 181.368 182.376C180.998 182.839 180.675 183.255 180.305 183.718C180.166 183.856 180.074 183.995 179.935 184.18C179.565 184.643 179.149 185.105 178.733 185.614C178.409 186.03 178.039 186.4 177.716 186.817C176.745 187.927 175.774 188.99 174.757 190.008C174.248 190.517 173.74 191.026 173.231 191.534C170.735 194.032 168.099 196.345 165.372 198.519C165.048 198.796 164.678 199.074 164.355 199.305C163.939 199.629 163.523 199.952 163.06 200.276C162.829 200.461 162.598 200.6 162.367 200.785C162.367 200.785 162.32 200.785 162.32 200.831C162.182 200.924 161.997 201.063 161.858 201.155C161.303 201.571 160.749 201.941 160.148 202.358C159.916 202.543 159.639 202.681 159.408 202.866C159.177 203.051 158.899 203.19 158.668 203.375C158.437 203.514 158.252 203.653 158.021 203.792C157.975 203.838 157.882 203.884 157.836 203.93C157.697 204.023 157.512 204.162 157.327 204.254C156.865 204.532 156.403 204.855 155.94 205.133C155.524 205.364 155.155 205.642 154.738 205.873C153.906 206.382 153.074 206.844 152.242 207.307C152.103 207.399 151.918 207.492 151.78 207.584C151.363 207.816 150.994 208.001 150.578 208.232C150.161 208.463 149.792 208.648 149.376 208.833C149.144 208.926 148.959 209.064 148.728 209.157C148.451 209.296 148.127 209.434 147.85 209.619C146.74 210.174 145.585 210.683 144.475 211.192C144.244 211.285 144.013 211.423 143.781 211.516C142.348 212.163 140.869 212.765 139.389 213.32C138.927 213.505 138.465 213.643 138.002 213.828C132.871 216.049 127.415 217.482 121.914 218.176C120.758 218.408 119.602 218.593 118.493 218.731C118.308 218.778 118.123 218.778 117.892 218.824C117.291 218.916 116.69 219.009 116.089 219.055C115.857 219.101 115.626 219.101 115.349 219.148C113.407 219.379 111.465 219.518 109.524 219.656C109.246 219.656 108.969 219.703 108.691 219.703C108.368 219.703 107.998 219.749 107.674 219.749C107.351 219.749 107.027 219.749 106.703 219.795C106.38 219.795 106.01 219.795 105.686 219.795C105.409 219.795 105.178 219.795 104.9 219.795C104.623 219.795 104.392 219.795 104.114 219.795C103.837 219.795 103.606 219.795 103.328 219.795C102.866 219.795 102.404 219.795 101.942 219.749C101.618 219.749 101.34 219.749 101.017 219.703C100.924 219.703 100.832 219.703 100.786 219.703C100.462 219.703 100.185 219.703 99.8611 219.656C99.7686 219.656 99.7224 219.656 99.6299 219.656C99.3063 219.656 98.9827 219.61 98.659 219.61C97.9193 219.564 97.1796 219.518 96.4399 219.471C96.3937 219.471 96.1625 219.425 95.8389 219.425C95.7464 219.425 95.7002 219.425 95.6077 219.425C95.5153 219.425 95.469 219.425 95.3766 219.425C94.868 219.379 94.267 219.333 93.9896 219.286C93.7122 219.24 93.3886 219.24 93.1112 219.194C93.065 219.194 93.0187 219.194 92.9725 219.194C92.6489 219.148 92.3253 219.101 91.9554 219.055C91.4006 219.009 90.8921 218.916 90.3835 218.824C90.1524 218.778 89.9674 218.778 89.7363 218.731C89.4589 218.685 89.1815 218.639 88.9041 218.593C88.6729 218.546 88.4418 218.546 88.2568 218.5C87.6558 218.408 87.0548 218.315 86.4076 218.176C86.3613 218.176 86.3613 218.176 86.3151 218.176C85.8528 218.084 85.4367 217.991 84.9744 217.945C84.5121 217.852 84.096 217.76 83.6336 217.667C83.3563 217.621 83.0789 217.529 82.8015 217.482C76.0516 215.956 69.3942 213.736 62.9217 210.729C62.5981 210.591 62.2745 210.406 61.9509 210.267C57.7437 208.278 53.6291 205.919 49.6069 203.236C24.503 186.308 3.23624 149.907 0.092464 121.923C0.046232 121.785 0 121.692 0 121.692C0 121.692 0 137.233 0 172.108V172.154C0 182.469 1.1558 192.459 3.37493 202.08C3.37493 202.126 3.37493 202.173 3.37493 202.173C10.2173 210.359 18.3079 217.714 27.6005 223.912C28.6638 224.605 29.7272 225.299 30.8367 225.993C31.9001 226.687 33.0096 227.334 34.1192 227.936C34.8589 228.352 35.5986 228.768 36.3383 229.185C37.4479 229.786 38.5575 230.387 39.667 230.942C42.6259 232.468 45.6772 233.81 48.7285 235.012C49.5145 235.336 50.2542 235.614 51.0401 235.891C51.826 236.169 52.5658 236.446 53.3517 236.724C58.1598 238.389 63.0142 239.73 67.9148 240.748C68.0997 240.794 68.2846 240.84 68.4696 240.84C68.7007 240.887 68.9781 240.933 69.2093 240.979C69.4867 241.025 69.7641 241.072 69.9952 241.118C70.4113 241.21 70.7812 241.257 71.1973 241.349C71.3822 241.395 71.5671 241.395 71.752 241.442C72.2143 241.534 72.6767 241.58 73.139 241.673C73.2315 241.673 73.3701 241.719 73.4626 241.719C73.6475 241.765 73.8787 241.765 74.0636 241.812C74.2948 241.858 74.5259 241.904 74.7571 241.904C75.2657 241.95 75.728 242.043 76.2365 242.089C76.6064 242.135 76.9762 242.182 77.3461 242.228C77.7622 242.274 78.1783 242.32 78.5944 242.367C79.0105 242.413 79.4265 242.459 79.8426 242.505C80.3049 242.552 80.7673 242.598 81.2296 242.644C81.3683 242.644 81.507 242.69 81.6919 242.69C82.1542 242.737 82.6165 242.783 83.0789 242.783C83.31 242.783 83.5412 242.829 83.7723 242.829C84.0035 242.829 84.2347 242.875 84.4658 242.875C84.7432 242.875 84.9744 242.922 85.2518 242.922C85.6216 242.922 85.9915 242.968 86.3151 242.968C87.3784 243.014 88.4418 243.014 89.5513 243.06C90.2448 243.06 90.9845 243.06 91.678 243.06C92.0479 243.06 92.3715 243.06 92.7414 243.06C93.1112 243.06 93.4811 243.06 93.8047 243.014C94.1745 243.014 94.5444 242.968 94.9605 242.968C95.2841 242.968 95.6077 242.922 95.9314 242.922C96.6248 242.875 97.3645 242.875 98.058 242.783C98.3817 242.783 98.659 242.737 98.9827 242.737C100.462 242.644 101.942 242.505 103.421 242.32C103.745 242.274 104.114 242.228 104.438 242.182C105.132 242.089 105.871 241.997 106.565 241.904C106.935 241.858 107.258 241.812 107.628 241.765C108.183 241.673 108.738 241.58 109.292 241.488C109.431 241.442 109.616 241.442 109.755 241.395C109.893 241.395 110.032 241.349 110.125 241.349C110.217 241.349 110.31 241.303 110.356 241.303C110.402 241.303 110.494 241.303 110.541 241.257C110.633 241.257 110.679 241.257 110.772 241.21C111.142 241.164 111.465 241.072 111.835 241.025C114.655 240.517 117.429 239.869 120.203 239.129C120.527 239.036 120.85 238.944 121.174 238.851C121.59 238.759 122.006 238.62 122.376 238.528C122.653 238.435 122.977 238.343 123.254 238.25C123.578 238.158 123.948 238.065 124.272 237.926C124.595 237.834 124.965 237.695 125.289 237.603C126.352 237.279 127.369 236.909 128.432 236.539C129.08 236.307 129.727 236.076 130.374 235.845C130.744 235.706 131.068 235.567 131.438 235.429C131.669 235.336 131.854 235.244 132.085 235.197C132.408 235.105 132.686 234.966 133.009 234.827C133.241 234.735 133.472 234.642 133.657 234.55C135.876 233.671 138.049 232.7 140.222 231.636C140.545 231.497 140.869 231.312 141.146 231.173C141.47 230.988 141.793 230.85 142.117 230.665C142.394 230.526 142.626 230.387 142.903 230.295C142.949 230.248 143.042 230.248 143.088 230.202C143.458 230.017 143.828 229.832 144.198 229.601C144.567 229.416 144.937 229.185 145.307 228.999C145.4 228.953 145.446 228.907 145.538 228.861C145.816 228.722 146.093 228.537 146.37 228.398C147.572 227.704 148.775 227.011 149.977 226.271C150.254 226.086 150.578 225.901 150.855 225.716C151.132 225.531 151.41 225.345 151.733 225.16C152.288 224.79 152.889 224.42 153.444 224.05C153.768 223.865 154.045 223.634 154.369 223.449C155.524 222.663 156.68 221.877 157.79 221.044C158.067 220.859 158.298 220.674 158.529 220.489C158.576 220.443 158.622 220.443 158.668 220.396C158.992 220.165 159.362 219.888 159.685 219.61C160.055 219.333 160.425 219.055 160.795 218.778C160.98 218.639 161.211 218.454 161.396 218.315C161.904 217.899 162.413 217.529 162.921 217.112C163.06 217.02 163.153 216.927 163.291 216.789L163.338 216.742C163.707 216.465 164.031 216.141 164.401 215.864C164.447 215.864 164.447 215.817 164.493 215.817C164.632 215.725 164.771 215.586 164.863 215.494C165.002 215.355 165.141 215.262 165.279 215.124C165.464 214.939 165.695 214.8 165.88 214.615C165.927 214.568 165.927 214.568 165.973 214.522C166.111 214.383 166.25 214.291 166.389 214.152C167.36 213.32 168.284 212.441 169.209 211.562C169.486 211.331 169.718 211.053 169.995 210.822C170.226 210.591 170.457 210.406 170.688 210.174C171.012 209.851 171.336 209.527 171.659 209.203C172.075 208.787 172.492 208.324 172.954 207.908C173.277 207.584 173.555 207.26 173.878 206.937C174.017 206.798 174.11 206.659 174.248 206.567C175.358 205.364 176.467 204.115 177.531 202.866C177.716 202.635 177.901 202.404 178.086 202.219C178.317 201.941 178.548 201.618 178.825 201.34C179.195 200.924 179.519 200.461 179.889 199.999C180.258 199.536 180.582 199.12 180.952 198.657C181.553 197.871 182.154 197.131 182.709 196.298C182.94 195.975 183.171 195.651 183.402 195.327C183.541 195.142 183.633 194.957 183.772 194.818C183.911 194.633 184.003 194.448 184.142 194.31C184.281 194.078 184.419 193.893 184.604 193.662C184.974 193.153 185.298 192.644 185.668 192.136C185.806 191.904 185.945 191.673 186.13 191.442C186.13 191.396 186.176 191.396 186.176 191.349C186.315 191.118 186.454 190.887 186.639 190.656C186.777 190.424 186.916 190.193 187.055 189.962C187.101 189.869 187.193 189.777 187.24 189.638C187.424 189.361 187.563 189.083 187.748 188.805C187.979 188.482 188.164 188.112 188.395 187.742C188.626 187.372 188.811 187.048 189.043 186.678C189.412 186.03 189.782 185.383 190.152 184.735C190.291 184.504 190.43 184.273 190.568 184.041C191.123 183.07 191.632 182.099 192.14 181.127C192.279 180.896 192.371 180.665 192.51 180.434V180.387C192.649 180.156 192.741 179.925 192.88 179.647C192.926 179.555 192.972 179.416 193.065 179.324C193.157 179.092 193.296 178.861 193.388 178.63C193.527 178.352 193.666 178.028 193.804 177.751C193.851 177.705 193.851 177.612 193.897 177.566C193.897 177.52 193.943 177.52 193.943 177.473C194.082 177.196 194.174 176.965 194.313 176.687C194.868 175.485 195.423 174.282 195.931 173.079C196.07 172.756 196.209 172.478 196.301 172.154C196.578 171.507 196.856 170.813 197.087 170.165C197.179 169.98 197.226 169.749 197.318 169.564C197.549 169.009 197.734 168.454 197.965 167.853C198.058 167.622 198.104 167.437 198.197 167.205C198.428 166.511 198.705 165.818 198.936 165.124C199.029 164.846 199.121 164.615 199.214 164.338C199.214 164.291 199.26 164.245 199.26 164.153C199.352 163.829 199.491 163.459 199.583 163.135C199.63 163.042 199.676 162.904 199.676 162.765C199.907 161.979 200.138 161.192 200.369 160.406C200.693 159.296 201.017 158.186 201.294 157.03C201.387 156.567 201.525 156.151 201.618 155.688C201.803 154.902 201.988 154.116 202.172 153.283C202.219 153.144 202.219 153.006 202.265 152.867C202.496 151.849 202.681 150.878 202.866 149.86C202.912 149.675 202.912 149.49 202.958 149.305C203.005 149.166 203.005 149.028 203.051 148.889C203.051 148.843 203.051 148.796 203.097 148.704C203.19 148.056 203.328 147.409 203.421 146.761C203.421 146.715 203.421 146.715 203.421 146.669C203.467 146.53 203.467 146.345 203.513 146.206C203.559 146.021 203.559 145.836 203.606 145.651C203.652 145.327 203.698 145.004 203.744 144.68C203.837 144.079 203.883 143.524 203.975 142.922C204.022 142.552 204.068 142.182 204.114 141.812C204.207 141.026 204.299 140.24 204.345 139.5C204.392 138.898 204.438 138.297 204.484 137.696C204.53 137.418 204.53 137.094 204.53 136.817C204.577 136.077 204.623 135.383 204.669 134.643C204.669 134.319 204.715 133.995 204.715 133.672C204.715 133.487 204.715 133.348 204.715 133.163C204.715 132.978 204.715 132.839 204.715 132.654C204.715 132.238 204.761 131.868 204.761 131.452C204.669 130.249 204.669 128.445 204.623 126.641Z" fill="url(#paint9_linear_5_1516)"/>
<path d="M84.3267 112.21C84.8815 113.181 86.5921 113.32 88.1178 112.441C89.6434 111.562 90.4756 110.082 89.9208 109.111C89.366 108.14 87.6554 108.001 86.1298 108.88C84.6041 109.712 83.772 111.239 84.3267 112.21Z" fill="#181447"/>
<path d="M165.326 87.9734C167.822 92.4137 164.493 99.0279 157.929 102.774C151.317 106.521 143.92 105.966 141.424 101.526C138.927 97.0852 142.256 90.471 148.821 86.7245C155.432 82.978 162.829 83.5331 165.326 87.9734Z" fill="#181447"/>
<path d="M180.813 109.111C181.229 110.73 183.68 111.424 186.269 110.73C188.858 110.036 190.568 108.14 190.152 106.567C189.736 104.948 187.286 104.255 184.697 104.948C182.108 105.642 180.397 107.492 180.813 109.111Z" fill="#F4B0C5"/>
<path d="M0.046232 121.553C3.05131 149.583 24.3643 186.261 49.6531 203.144C53.6291 205.826 57.79 208.139 61.9971 210.174C62.3207 210.313 62.6443 210.498 62.9679 210.637C69.3942 213.643 76.0978 215.863 82.8477 217.39C83.1251 217.436 83.4025 217.529 83.6799 217.575C84.096 217.667 84.5583 217.76 85.0206 217.852C85.4829 217.945 85.899 218.037 86.3613 218.084C86.4076 218.084 86.4076 218.084 86.4538 218.084C87.0548 218.176 87.6558 218.315 88.3031 218.407C88.5342 218.454 88.7192 218.5 88.9503 218.5C89.2277 218.546 89.5051 218.592 89.7825 218.639C89.9674 218.685 90.1986 218.685 90.4297 218.731C90.9383 218.824 91.4931 218.87 92.0016 218.962C92.3253 219.009 92.6489 219.055 93.0187 219.101C93.065 219.101 93.1112 219.101 93.1574 219.101C93.4348 219.147 93.7584 219.147 94.0358 219.194C94.5906 219.24 95.0992 219.286 95.654 219.332C95.7464 219.332 95.7926 219.332 95.8851 219.332C78.5944 207.63 69.2093 185.845 69.2093 152.127V49.907L0 49.9532C0 49.9532 0 81.2666 0 121.692C0 121.646 0.046232 121.599 0.046232 121.553Z" fill="#5C468A"/>
<path d="M157.697 93.9402C159.305 93.9402 160.609 92.6356 160.609 91.0263C160.609 89.4169 159.305 88.1123 157.697 88.1123C156.088 88.1123 154.784 89.4169 154.784 91.0263C154.784 92.6356 156.088 93.9402 157.697 93.9402Z" fill="white"/>
<path d="M554.599 252.219V304.346H542.532V282.977H518.862V304.346H506.795V252.219H518.862V272.801H542.532V252.219H554.599Z" fill="#5C468A"/>
<path d="M600.184 304.346L590.151 289.822H589.55H579.056V304.346H566.989V252.219H589.55C603.466 252.219 612.204 259.434 612.204 271.136C612.204 278.953 608.274 284.688 601.478 287.602L613.175 304.346H600.184ZM588.857 262.024H579.01V280.202H588.857C596.208 280.202 599.953 276.779 599.953 271.09C599.953 265.401 596.208 262.024 588.857 262.024Z" fill="#5C468A"/>
<defs>
<linearGradient id="paint0_linear_5_1516" x1="148.815" y1="45.7571" x2="86.3108" y2="10.1296" gradientUnits="userSpaceOnUse">
<stop stop-color="#FECE98"/>
<stop offset="0.1844" stop-color="#FBBA8A"/>
<stop offset="0.4178" stop-color="#F9A67B"/>
<stop offset="0.5552" stop-color="#F89E76"/>
<stop offset="1" stop-color="#FFDC60"/>
</linearGradient>
<linearGradient id="paint1_linear_5_1516" x1="156.11" y1="49.919" x2="127.217" y2="33.4501" gradientUnits="userSpaceOnUse">
<stop stop-color="#F8B4BA" stop-opacity="0"/>
<stop offset="0.0258016" stop-color="#F7B3B9" stop-opacity="0.0258016"/>
<stop offset="0.655" stop-color="#E596A5" stop-opacity="0.655"/>
<stop offset="1" stop-color="#E08C9E"/>
</linearGradient>
<linearGradient id="paint2_linear_5_1516" x1="265.644" y1="209.394" x2="57.5975" y2="158.707" gradientUnits="userSpaceOnUse">
<stop stop-color="#F494B7"/>
<stop offset="0.0468597" stop-color="#E993B8"/>
<stop offset="0.2743" stop-color="#C591BE"/>
<stop offset="0.4513" stop-color="#AE90C2"/>
<stop offset="0.5552" stop-color="#A68FC4"/>
<stop offset="1" stop-color="#D9A6CC"/>
</linearGradient>
<linearGradient id="paint3_linear_5_1516" x1="192.694" y1="70.9624" x2="101.116" y2="48.6508" gradientUnits="userSpaceOnUse">
<stop stop-color="#F494B7"/>
<stop offset="0.0468597" stop-color="#E993B8"/>
<stop offset="0.2743" stop-color="#C591BE"/>
<stop offset="0.4513" stop-color="#AE90C2"/>
<stop offset="0.5552" stop-color="#A68FC4"/>
<stop offset="1" stop-color="#D9A6CC"/>
</linearGradient>
<linearGradient id="paint4_linear_5_1516" x1="71.9507" y1="111.597" x2="225.475" y2="87.2926" gradientUnits="userSpaceOnUse">
<stop stop-color="#E5E4E6"/>
<stop offset="0.3452" stop-color="#F2F1F2"/>
<stop offset="0.7385" stop-color="white"/>
</linearGradient>
<linearGradient id="paint5_linear_5_1516" x1="154.795" y1="173.19" x2="181.322" y2="159.681" gradientUnits="userSpaceOnUse">
<stop stop-color="#E5E4E6"/>
<stop offset="0.3092" stop-color="#F2F1F2"/>
<stop offset="0.6615" stop-color="white"/>
</linearGradient>
<linearGradient id="paint6_linear_5_1516" x1="226.608" y1="197.672" x2="16.9243" y2="146.586" gradientUnits="userSpaceOnUse">
<stop stop-color="#FECE98"/>
<stop offset="0.1844" stop-color="#FBBA8A"/>
<stop offset="0.4178" stop-color="#F9A67B"/>
<stop offset="0.5552" stop-color="#F89E76"/>
<stop offset="1" stop-color="#FFDC60"/>
</linearGradient>
<linearGradient id="paint7_linear_5_1516" x1="195.177" y1="142.68" x2="176.795" y2="133.034" gradientUnits="userSpaceOnUse">
<stop stop-color="#F8B4BA" stop-opacity="0"/>
<stop offset="0.0216998" stop-color="#F7B3B9" stop-opacity="0.0258016"/>
<stop offset="0.5509" stop-color="#E596A5" stop-opacity="0.655"/>
<stop offset="0.841" stop-color="#E08C9E"/>
</linearGradient>
<linearGradient id="paint8_linear_5_1516" x1="213.723" y1="80.6379" x2="204.361" y2="73.6123" gradientUnits="userSpaceOnUse">
<stop stop-color="#F8B4BA" stop-opacity="0"/>
<stop offset="0.0258016" stop-color="#F7B3B9" stop-opacity="0.0258016"/>
<stop offset="0.655" stop-color="#E596A5" stop-opacity="0.655"/>
<stop offset="1" stop-color="#E08C9E"/>
</linearGradient>
<linearGradient id="paint9_linear_5_1516" x1="0" y1="164.105" x2="204.665" y2="164.105" gradientUnits="userSpaceOnUse">
<stop stop-color="#99D4BE"/>
<stop offset="0.0100253" stop-color="#99D4BE"/>
<stop offset="0.3533" stop-color="#88D1D0"/>
<stop offset="0.5552" stop-color="#81D0D7"/>
<stop offset="1" stop-color="#69C7E8"/>
</linearGradient>
</defs>
</svg>
