<svg width="34" height="36" viewBox="0 0 34 36" fill="none" xmlns="http://www.w3.org/2000/svg">
<g id="Group 179">
<path id="Vector" d="M24.9005 2.7163V12.5036C22.2404 13.2733 20.308 15.6277 20.308 18.4074C20.308 21.1872 22.2455 23.5366 24.9005 24.3062V30.129C24.9005 31.0353 24.1317 31.7644 23.1835 31.7644H3.37826C2.06099 31.7644 1 30.7517 1 29.5011V6.94415C1 6.48339 1.19477 6.03782 1.53306 5.70871L5.94105 1.51124C6.28959 1.18719 6.75089 1.00491 7.23782 1.00491H23.1015C24.0958 0.999844 24.9005 1.76946 24.9005 2.7163Z" stroke="white" stroke-width="1.4" stroke-miterlimit="10" stroke-linecap="round" stroke-linejoin="round"/>
<path id="Vector_2" d="M25.5547 5.47559H27.6367C28.4409 5.47559 29.0976 6.03661 29.0976 6.7202V12.5614" stroke="white" stroke-width="1.4" stroke-miterlimit="10" stroke-linecap="round" stroke-linejoin="round"/>
<path id="Vector_3" d="M29.0972 24.3711V32.3725C29.0972 33.8212 27.8747 34.9998 26.3701 34.9998H6.50681C5.28429 34.9998 4.29688 34.0444 4.29688 32.871V31.9311" stroke="white" stroke-width="1.4" stroke-miterlimit="10" stroke-linecap="round" stroke-linejoin="round"/>
<path id="Vector_4" d="M6.87962 1V4.80253C6.87962 5.79494 6.09029 6.6 5.12155 6.6H1.40039" stroke="white" stroke-width="1.4" stroke-miterlimit="10" stroke-linecap="round" stroke-linejoin="round"/>
<path id="Vector_5" d="M12.7578 6.65674H21.2611" stroke="white" stroke-width="1.4" stroke-miterlimit="10" stroke-linecap="round" stroke-linejoin="round"/>
<path id="Vector_6" d="M4.29688 14.9233H16.1066" stroke="white" stroke-width="1.4" stroke-miterlimit="10" stroke-linecap="round" stroke-linejoin="round"/>
<path id="Vector_7" d="M4.29688 19.6475H14.7377" stroke="white" stroke-width="1.4" stroke-miterlimit="10" stroke-linecap="round" stroke-linejoin="round"/>
<path id="Vector_8" d="M4.29688 24.3711H16.1066" stroke="white" stroke-width="1.4" stroke-miterlimit="10" stroke-linecap="round" stroke-linejoin="round"/>
<path id="Vector_9" d="M32.4088 18.3926C32.4088 21.2129 30.4509 23.5724 27.8112 24.2205C27.3448 24.3369 26.8579 24.3926 26.3607 24.3926C25.7456 24.3926 25.1562 24.3015 24.5975 24.1293C22.1167 23.38 20.3125 21.0914 20.3125 18.3876C20.3125 15.6838 22.1167 13.3901 24.5975 12.6407C25.1562 12.4686 25.7456 12.3774 26.3607 12.3774C26.8579 12.3774 27.3448 12.4382 27.8112 12.5496C30.4457 13.2028 32.4088 15.5724 32.4088 18.3926Z" stroke="white" stroke-width="1.4" stroke-miterlimit="10" stroke-linecap="round" stroke-linejoin="round"/>
<path id="Vector_10" d="M29.0963 16.1045L25.5491 19.6474L23.1914 18.162" stroke="white" stroke-width="1.4" stroke-miterlimit="10" stroke-linecap="round" stroke-linejoin="round"/>
</g>
</svg>
