<?xml version="1.0" encoding="UTF-8"?>
<svg id="Layer_2" data-name="Layer 2" xmlns="http://www.w3.org/2000/svg" viewBox="0 0 87 23.51">
  <g id="Layer_1-2" data-name="Layer 1">
    <path d="m11.76,0h63.49c6.49,0,11.76,5.26,11.76,11.76h0c0,6.49-5.26,11.76-11.76,11.76H11.76C5.26,23.51,0,18.25,0,11.76h0C0,5.26,5.26,0,11.76,0Z" style="fill: rgba(255, 203, 17, .2);"/>
    <path d="m12.7,20.7c5.07,0,9.17-4.11,9.17-9.17S17.77,2.35,12.7,2.35,3.53,6.46,3.53,11.53s4.11,9.17,9.17,9.17Z" style="fill: #ffcb11;"/>
    <path d="m10.95,9.5l.16-.35c.37-.82,1.4-1.38,2.25-1.12.29.09.56.25.78.48.92.92.47,2.08-.52,2.9l-.77.66v1.11" style="fill: none; stroke: #fff; stroke-linecap: round; stroke-linejoin: round; stroke-width: 1.48px;"/>
    <path d="m12.88,16.14c.41,0,.75-.33.75-.75s-.33-.75-.75-.75-.75.33-.75.75.33.75.75.75Z" style="fill: #fff;"/>
    <path d="m31.08,16.75c-.56,0-1.11-.06-1.68-.18-.55-.12-1.05-.3-1.48-.52l.59-1.68c.19.1.41.21.68.32.26.11.55.21.86.28.31.08.63.11.95.11.38,0,.66-.05.85-.16.2-.11.3-.28.3-.51,0-.17-.07-.31-.2-.41-.12-.11-.31-.22-.55-.31-.24-.1-.54-.21-.87-.32-.5-.18-.93-.37-1.28-.58-.36-.21-.63-.46-.83-.76-.19-.3-.28-.68-.28-1.13,0-.52.13-.94.39-1.27.26-.33.63-.57,1.11-.73.48-.17,1.04-.25,1.68-.25.53,0,1,.04,1.42.13.42.08.75.19.99.32v1.66c-.16-.08-.37-.15-.63-.23-.25-.08-.53-.14-.83-.18-.29-.06-.57-.08-.85-.08-.39,0-.68.05-.87.16-.2.1-.3.25-.3.44,0,.15.07.28.2.38.14.1.34.2.61.3.26.08.58.19.95.32.49.17.9.36,1.24.56.34.21.59.46.76.76.18.3.27.67.27,1.11s-.1.82-.3,1.2c-.19.37-.51.67-.97.9-.46.23-1.1.34-1.9.34Zm7.87,0c-1.15,0-2-.28-2.55-.83-.56-.56-.83-1.4-.83-2.5,0-.19,0-.41.01-.68.02-.27.04-.51.07-.72h3.39v1.34h-1.4v.2c0,.38.05.69.14.93.09.24.24.41.42.52.2.11.44.17.73.17.32,0,.59-.07.8-.21.23-.14.4-.38.51-.72.12-.34.18-.8.18-1.4,0-.55-.07-1.02-.2-1.38-.12-.38-.33-.66-.63-.85-.29-.19-.7-.28-1.21-.28-.28,0-.57.03-.87.1-.3.06-.59.13-.86.23-.26.09-.49.2-.69.31v-1.76c.21-.11.46-.21.76-.3.31-.08.64-.15,1-.2s.71-.07,1.06-.07c.91,0,1.65.17,2.2.51.56.33.97.8,1.23,1.41.26.61.4,1.34.4,2.17s-.13,1.58-.38,2.19c-.24.59-.63,1.04-1.17,1.35-.54.31-1.24.47-2.1.47Zm8.5,0c-1.15,0-2-.28-2.55-.83-.56-.56-.83-1.4-.83-2.5,0-.19,0-.41.01-.68.02-.27.04-.51.07-.72h3.39v1.34h-1.4v.2c0,.38.05.69.14.93.09.24.24.41.42.52.2.11.44.17.73.17.32,0,.59-.07.8-.21.23-.14.4-.38.51-.72.12-.34.18-.8.18-1.4,0-.55-.07-1.02-.2-1.38-.12-.38-.33-.66-.63-.85-.29-.19-.7-.28-1.21-.28-.28,0-.57.03-.87.1-.3.06-.59.13-.86.23-.26.09-.49.2-.69.31v-1.76c.21-.11.46-.21.76-.3.31-.08.64-.15,1-.2.36-.05.71-.07,1.06-.07.91,0,1.65.17,2.2.51.56.33.97.8,1.23,1.41.26.61.39,1.34.39,2.17s-.13,1.58-.38,2.19c-.24.59-.63,1.04-1.17,1.35-.54.31-1.24.47-2.1.47Zm8.07-.04c-.57,0-1.06-.11-1.45-.32-.39-.23-.68-.56-.89-1-.2-.44-.3-.98-.3-1.62v-4.92h2.12v4.56c0,.52.1.89.31,1.13.21.24.51.35.9.35.5,0,.88-.19,1.16-.56.27-.39.41-.98.41-1.78v-3.7h2.12v7.73h-1.61l-.23-1.19h-.13c-.16.38-.44.69-.83.95-.39.25-.91.38-1.58.38Zm2.72,3.54v-1.26c0-.24-.1-.35-.31-.35-.05,0-.09,0-.14.01-.05,0-.09.02-.14.04l-.1-1.02c.13-.05.32-.09.55-.14.23-.05.46-.07.69-.07.46,0,.79.09.97.27.19.19.28.44.28.76v1.75h-1.81Zm8.61-3.54c-.67,0-1.21-.13-1.62-.38-.4-.25-.69-.58-.86-.97h-.11l-.23,1.21h-1.61v-7.73h2.12v3.7c0,.54.06.98.18,1.33.12.34.3.59.54.76.24.17.52.25.85.25.39,0,.7-.12.9-.35.21-.24.31-.61.31-1.13v-4.56h2.12v5.02c0,.61-.1,1.13-.3,1.55-.19.42-.47.75-.86.97-.39.22-.86.32-1.42.32Zm.74-8.94c-.44,0-.79-.07-1.04-.2-.25-.13-.43-.3-.54-.49-.11-.21-.17-.42-.17-.65,0-.16.02-.33.07-.51.05-.19.12-.36.21-.52l1.54.2c-.02.07-.03.14-.04.21-.02.07-.03.13-.03.18,0,.13.04.24.13.31.08.07.21.1.4.1h3.03v1.37h-3.56Zm7.06,8.94c-.84,0-1.49-.17-1.96-.51-.46-.35-.79-.83-.97-1.44-.18-.62-.27-1.34-.27-2.16,0-.91.09-1.66.27-2.23.18-.57.45-1,.8-1.27.37-.27.81-.41,1.34-.41.33,0,.62.07.86.2.25.12.46.35.61.69h.06c.13-.35.35-.58.65-.71s.63-.18.97-.18c.65,0,1.13.17,1.45.52.33.35.49.86.49,1.52v5.83h-2.12v-5.43c0-.29-.05-.49-.14-.59-.09-.1-.22-.16-.38-.16-.18,0-.32.05-.41.16-.08.1-.14.28-.17.52h-.83c-.04-.27-.11-.45-.21-.54-.1-.09-.23-.14-.37-.14-.24,0-.42.17-.55.51-.12.34-.18.91-.18,1.72,0,.53.04.98.11,1.35.08.37.23.65.42.85.2.19.48.28.85.28.11,0,.22,0,.31-.01.09-.02.17-.04.24-.07l.21,1.51c-.15.07-.32.11-.49.14-.18.03-.38.04-.59.04Zm-2.35-8.94v-.89l1.42-.59h5.04v1.48h-6.46Z" style="fill: #ffcb11;"/>
  </g>
</svg>