<svg width="34" height="39" viewBox="0 0 34 39" fill="none" xmlns="http://www.w3.org/2000/svg">
<g id="Group 539">
<path id="Vector" d="M31.623 8.27505H2.8352C1.80866 8.27505 0.916016 7.42704 0.916016 6.35587V2.91919C0.916016 1.89264 1.76403 1 2.8352 1H31.623C32.6495 1 33.5422 1.84801 33.5422 2.91919V6.4005C33.5422 7.42704 32.6942 8.27505 31.623 8.27505Z" fill="white" stroke="#FF7AAA" stroke-width="0.465871" stroke-miterlimit="10"/>
<path id="Vector_2" d="M2.8352 8.23022H8.10181V1.04443H2.8352C1.80866 1.04443 0.916016 1.89245 0.916016 2.96362V6.35567C0.916016 7.38221 1.76403 8.23022 2.8352 8.23022Z" fill="#FFE4F0" stroke="#FF7AAA" stroke-width="0.465871" stroke-miterlimit="10"/>
<path id="Vector_3" d="M11.4941 3.72266H22.2505" stroke="#FF7AAA" stroke-width="0.465871" stroke-miterlimit="10" stroke-linecap="round" stroke-linejoin="round"/>
<path id="Vector_4" d="M11.4941 5.59668H28.7668" stroke="#FF7AAA" stroke-width="0.465871" stroke-miterlimit="10" stroke-linecap="round" stroke-linejoin="round"/>
<path id="Vector_5" d="M31.623 18.1385H2.8352C1.80866 18.1385 0.916016 17.2905 0.916016 16.2193V12.738C0.916016 11.7115 1.76403 10.8188 2.8352 10.8188H31.623C32.6495 10.8188 33.5422 11.6669 33.5422 12.738V16.2193C33.5422 17.2905 32.6942 18.1385 31.623 18.1385Z" fill="white" stroke="#FF7AAA" stroke-width="0.465871" stroke-miterlimit="10"/>
<path id="Vector_6" d="M2.8352 18.094H8.10181V10.9082H2.8352C1.80866 10.9082 0.916016 11.7562 0.916016 12.8274V16.2194C0.916016 17.246 1.76403 18.094 2.8352 18.094Z" fill="#FFE4F0" stroke="#FF7AAA" stroke-width="0.465871" stroke-miterlimit="10"/>
<path id="Vector_7" d="M11.4941 13.5864H22.2505" stroke="#FF7AAA" stroke-width="0.465871" stroke-miterlimit="10" stroke-linecap="round" stroke-linejoin="round"/>
<path id="Vector_8" d="M11.4941 15.4609H28.7668" stroke="#FF7AAA" stroke-width="0.465871" stroke-miterlimit="10" stroke-linecap="round" stroke-linejoin="round"/>
<path id="Vector_9" d="M31.623 28.0917H2.8352C1.80866 28.0917 0.916016 27.2436 0.916016 26.1725V22.6912C0.916016 21.6646 1.76403 20.772 2.8352 20.772H31.623C32.6495 20.772 33.5422 21.62 33.5422 22.6912V26.1725C33.5422 27.2436 32.6942 28.0917 31.623 28.0917Z" fill="white" stroke="#FF7AAA" stroke-width="0.465871" stroke-miterlimit="10"/>
<path id="Vector_10" d="M2.8352 28.0025H8.10181V20.8613H2.8352C1.80866 20.8613 0.916016 21.7093 0.916016 22.7805V26.1726C0.916016 27.1545 1.76403 28.0025 2.8352 28.0025Z" fill="#FFE4F0" stroke="#FF7AAA" stroke-width="0.465871" stroke-miterlimit="10"/>
<path id="Vector_11" d="M11.4941 23.4946H22.2505" stroke="#FF7AAA" stroke-width="0.465871" stroke-miterlimit="10" stroke-linecap="round" stroke-linejoin="round"/>
<path id="Vector_12" d="M11.4941 25.3687H28.7668" stroke="#FF7AAA" stroke-width="0.465871" stroke-miterlimit="10" stroke-linecap="round" stroke-linejoin="round"/>
<path id="Vector_13" d="M31.623 37.9999H2.8352C1.80866 37.9999 0.916016 37.1518 0.916016 36.0807V32.5994C0.916016 31.5728 1.76403 30.6802 2.8352 30.6802H31.623C32.6495 30.6802 33.5422 31.5282 33.5422 32.5994V36.0807C33.5422 37.1518 32.6942 37.9999 31.623 37.9999Z" fill="white" stroke="#FF7AAA" stroke-width="0.465871" stroke-miterlimit="10"/>
<path id="Vector_14" d="M2.8352 37.9558H8.10181V30.77H2.8352C1.80866 30.77 0.916016 31.618 0.916016 32.6892V36.0366C0.916016 37.1078 1.76403 37.9558 2.8352 37.9558Z" fill="#FFE4F0" stroke="#FF7AAA" stroke-width="0.465871" stroke-miterlimit="10"/>
<path id="Vector_15" d="M11.4941 33.4033H22.2505" stroke="#FF7AAA" stroke-width="0.465871" stroke-miterlimit="10" stroke-linecap="round" stroke-linejoin="round"/>
<path id="Vector_16" d="M11.4941 35.2773H28.7668" stroke="#FF7AAA" stroke-width="0.465871" stroke-miterlimit="10" stroke-linecap="round" stroke-linejoin="round"/>
<path id="Vector_17" d="M3.68164 13.5415L3.77091 13.363C3.94943 13.0059 4.39576 12.7381 4.79745 12.872C4.93134 12.9166 5.06524 13.0059 5.1545 13.0952C5.55619 13.4968 5.37767 14.0324 4.93134 14.4341L4.57429 14.7466V15.2375" stroke="#FF7AAA" stroke-width="0.97272" stroke-miterlimit="10" stroke-linecap="round" stroke-linejoin="round"/>
<path id="Vector_18" d="M4.56448 16.9527C4.83309 16.9527 5.05085 16.7349 5.05085 16.4663C5.05085 16.1977 4.83309 15.98 4.56448 15.98C4.29588 15.98 4.07812 16.1977 4.07812 16.4663C4.07812 16.7349 4.29588 16.9527 4.56448 16.9527Z" fill="#FF7AAA"/>
<path id="Vector_19" d="M3.68164 23.4057L3.77091 23.2272C3.94943 22.8702 4.39576 22.6024 4.79745 22.7363C4.93134 22.7809 5.06524 22.8702 5.1545 22.9594C5.55619 23.3611 5.37767 23.8967 4.93134 24.2984L4.57429 24.6108V25.1018" stroke="#FF7AAA" stroke-width="0.97272" stroke-miterlimit="10" stroke-linecap="round" stroke-linejoin="round"/>
<path id="Vector_20" d="M4.56448 26.7769C4.83309 26.7769 5.05085 26.5592 5.05085 26.2906C5.05085 26.0219 4.83309 25.8042 4.56448 25.8042C4.29588 25.8042 4.07812 26.0219 4.07812 26.2906C4.07812 26.5592 4.29588 26.7769 4.56448 26.7769Z" fill="#FF7AAA"/>
<path id="Vector_21" d="M3.68164 33.3584L3.77091 33.1798C3.94943 32.8228 4.39576 32.555 4.79745 32.6889C4.93134 32.7335 5.06524 32.8228 5.1545 32.9121C5.55619 33.3137 5.37767 33.8493 4.93134 34.251L4.57429 34.5634V35.0544" stroke="#FF7AAA" stroke-width="0.97272" stroke-miterlimit="10" stroke-linecap="round" stroke-linejoin="round"/>
<path id="Vector_22" d="M4.56448 36.6988C4.83309 36.6988 5.05085 36.481 5.05085 36.2124C5.05085 35.9438 4.83309 35.7261 4.56448 35.7261C4.29588 35.7261 4.07812 35.9438 4.07812 36.2124C4.07812 36.481 4.29588 36.6988 4.56448 36.6988Z" fill="#FF7AAA"/>
<path id="Vector_23" d="M3.68164 3.63279L3.72627 3.45426C3.9048 3.0972 4.35112 2.82941 4.75281 2.96331C4.88671 3.00794 5.02061 3.0972 5.1545 3.18647C5.55619 3.58816 5.37767 4.12374 4.93134 4.52543L4.52965 4.79323V5.28418" stroke="#FF7AAA" stroke-width="0.97272" stroke-miterlimit="10" stroke-linecap="round" stroke-linejoin="round"/>
<path id="Vector_24" d="M4.5137 6.93366C4.78231 6.93366 5.00006 6.71591 5.00006 6.4473C5.00006 6.17869 4.78231 5.96094 4.5137 5.96094C4.24509 5.96094 4.02734 6.17869 4.02734 6.4473C4.02734 6.71591 4.24509 6.93366 4.5137 6.93366Z" fill="#FF7AAA"/>
</g>
</svg>
