<svg width="117" height="28" viewBox="0 0 117 28" fill="none" xmlns="http://www.w3.org/2000/svg">
<g id="Frame" clip-path="url(#clip0_1623_5473)">
<g id="Group" filter="url(#filter0_f_1623_5473)">
<path id="Vector" d="M103 2H14C7.37258 2 2 7.37258 2 14C2 20.6274 7.37258 26 14 26H103C109.627 26 115 20.6274 115 14C115 7.37258 109.627 2 103 2Z" fill="#FFCA11" fill-opacity="0.2"/>
</g>
<path id="Vector_2" d="M14.1746 23.3493C19.2417 23.3493 23.3493 19.2417 23.3493 14.1746C23.3493 9.10763 19.2417 5 14.1746 5C9.10763 5 5 9.10763 5 14.1746C5 19.2417 9.10763 23.3493 14.1746 23.3493Z" fill="#FFCA11"/>
<path id="Vector_3" d="M12.4238 12.1506L12.5863 11.796C12.9557 10.9761 13.9825 10.4147 14.8394 10.6806C15.1275 10.7692 15.4008 10.9317 15.6224 11.1607C16.5384 12.0767 16.0952 13.2365 15.0979 14.0638L14.3297 14.7213L14.3371 15.8293" stroke="white" stroke-width="1.4774" stroke-miterlimit="10" stroke-linecap="round" stroke-linejoin="round"/>
<path id="Vector_4" d="M14.352 18.7915C14.7641 18.7915 15.0981 18.4575 15.0981 18.0454C15.0981 17.6334 14.7641 17.2993 14.352 17.2993C13.94 17.2993 13.606 17.6334 13.606 18.0454C13.606 18.4575 13.94 18.7915 14.352 18.7915Z" fill="white"/>
<path id="Vector_5" d="M31.9634 18.1834C31.4085 18.1834 30.8489 18.1223 30.2846 18C29.7296 17.8777 29.2359 17.7037 28.8032 17.478L29.3957 15.7991C29.5839 15.9026 29.8096 16.0108 30.0729 16.1236C30.3363 16.2365 30.6232 16.3305 30.9335 16.4058C31.2439 16.481 31.559 16.5186 31.8788 16.5186C32.255 16.5186 32.5372 16.4669 32.7253 16.3635C32.9228 16.2506 33.0215 16.0813 33.0215 15.8556C33.0215 15.6863 32.9557 15.5499 32.824 15.4464C32.7017 15.3336 32.5183 15.2301 32.2738 15.1361C32.0293 15.0326 31.7377 14.9244 31.3991 14.8116C30.9006 14.6329 30.4727 14.4401 30.1153 14.2331C29.7579 14.0262 29.4804 13.7723 29.2829 13.4713C29.0948 13.1703 29.0007 12.7941 29.0007 12.3426C29.0007 11.8254 29.1324 11.4021 29.3957 11.0729C29.6591 10.7437 30.0306 10.4992 30.5103 10.3393C30.99 10.17 31.5496 10.0854 32.1892 10.0854C32.7159 10.0854 33.1908 10.1277 33.6141 10.2123C34.0373 10.297 34.3665 10.4051 34.6016 10.5368V12.2016C34.4417 12.1263 34.2301 12.0511 33.9668 11.9758C33.7128 11.9006 33.4354 11.8395 33.1344 11.7924C32.8428 11.736 32.5607 11.7078 32.2879 11.7078C31.9023 11.7078 31.6107 11.7595 31.4132 11.863C31.2157 11.9664 31.1169 12.1122 31.1169 12.3003C31.1169 12.4508 31.1828 12.5778 31.3144 12.6812C31.4555 12.7847 31.6577 12.8835 31.9211 12.9775C32.1844 13.0622 32.4995 13.1703 32.8663 13.302C33.3554 13.4713 33.7693 13.6594 34.1079 13.8663C34.4464 14.0732 34.7004 14.3272 34.8697 14.6282C35.0484 14.9291 35.1377 15.3006 35.1377 15.7427C35.1377 16.1659 35.039 16.5657 34.8415 16.9419C34.6534 17.3087 34.3289 17.6097 33.868 17.8448C33.4072 18.0705 32.7723 18.1834 31.9634 18.1834ZM39.8298 18.1834C38.6823 18.1834 37.8311 17.9059 37.2762 17.351C36.7213 16.7867 36.4438 15.9543 36.4438 14.8539C36.4438 14.6658 36.4485 14.4401 36.458 14.1767C36.4768 13.9039 36.5003 13.6641 36.5285 13.4572H39.9144V14.7975H38.5177V14.995C38.5177 15.3712 38.5648 15.6816 38.6588 15.9261C38.7529 16.1612 38.894 16.3352 39.0821 16.4481C39.2796 16.561 39.5241 16.6174 39.8157 16.6174C40.1355 16.6174 40.4035 16.5469 40.6198 16.4058C40.8456 16.2647 41.0149 16.0249 41.1277 15.6863C41.25 15.3477 41.3111 14.8821 41.3111 14.2896C41.3111 13.7346 41.2453 13.2738 41.1136 12.907C40.9914 12.5308 40.7797 12.2486 40.4788 12.0605C40.1872 11.8724 39.7828 11.7783 39.2655 11.7783C38.9833 11.7783 38.6917 11.8112 38.3908 11.8771C38.0898 11.9335 37.8029 12.0088 37.5302 12.1028C37.2668 12.1969 37.0364 12.3003 36.8389 12.4132V10.6497C37.0458 10.5368 37.2997 10.4381 37.6007 10.3534C37.9111 10.2688 38.245 10.2029 38.6024 10.1559C38.9598 10.1089 39.3125 10.0854 39.6605 10.0854C40.5728 10.0854 41.3064 10.2546 41.8614 10.5932C42.4257 10.9224 42.8348 11.3927 43.0888 12.0041C43.3521 12.6154 43.4838 13.3396 43.4838 14.1767C43.4838 15.0326 43.3568 15.7615 43.1029 16.3635C42.8583 16.956 42.468 17.4075 41.9319 17.7178C41.3958 18.0282 40.6951 18.1834 39.8298 18.1834ZM48.3338 18.1834C47.1863 18.1834 46.3351 17.9059 45.7802 17.351C45.2253 16.7867 44.9478 15.9543 44.9478 14.8539C44.9478 14.6658 44.9525 14.4401 44.9619 14.1767C44.9808 13.9039 45.0043 13.6641 45.0325 13.4572H48.4184V14.7975H47.0217V14.995C47.0217 15.3712 47.0688 15.6816 47.1628 15.9261C47.2569 16.1612 47.3979 16.3352 47.5861 16.4481C47.7836 16.561 48.0281 16.6174 48.3197 16.6174C48.6395 16.6174 48.9075 16.5469 49.1238 16.4058C49.3496 16.2647 49.5189 16.0249 49.6317 15.6863C49.754 15.3477 49.8151 14.8821 49.8151 14.2896C49.8151 13.7346 49.7493 13.2738 49.6176 12.907C49.4954 12.5308 49.2837 12.2486 48.9828 12.0605C48.6912 11.8724 48.2868 11.7783 47.7695 11.7783C47.4873 11.7783 47.1957 11.8112 46.8948 11.8771C46.5938 11.9335 46.3069 12.0088 46.0342 12.1028C45.7708 12.1969 45.5404 12.3003 45.3429 12.4132V10.6497C45.5498 10.5368 45.8037 10.4381 46.1047 10.3534C46.4151 10.2688 46.749 10.2029 47.1064 10.1559C47.4638 10.1089 47.8165 10.0854 48.1645 10.0854C49.0768 10.0854 49.8104 10.2546 50.3654 10.5932C50.9297 10.9224 51.3388 11.3927 51.5928 12.0041C51.8561 12.6154 51.9878 13.3396 51.9878 14.1767C51.9878 15.0326 51.8608 15.7615 51.6069 16.3635C51.3623 16.956 50.972 17.4075 50.4359 17.7178C49.8998 18.0282 49.1991 18.1834 48.3338 18.1834ZM56.4004 18.1411C55.8267 18.1411 55.3423 18.0329 54.9473 17.8166C54.5617 17.5909 54.2654 17.257 54.0585 16.8149C53.861 16.3729 53.7622 15.8321 53.7622 15.1925V10.2688H55.8784V14.8257C55.8784 15.343 55.9819 15.7192 56.1888 15.9543C56.3957 16.1895 56.6967 16.307 57.0917 16.307C57.5902 16.307 57.9758 16.1189 58.2486 15.7427C58.5213 15.3571 58.6577 14.7645 58.6577 13.9651V10.2688H60.7739V18H59.1656L58.9399 16.8149H58.8129C58.653 17.1911 58.3756 17.5062 57.9805 17.7602C57.5949 18.0141 57.0682 18.1411 56.4004 18.1411ZM59.116 21.6822V20.4266C59.116 20.1915 59.0126 20.0739 58.8056 20.0739C58.7586 20.0739 58.7116 20.0786 58.6646 20.088C58.6175 20.0974 58.5705 20.1115 58.5235 20.1303L58.4247 19.1145C58.5564 19.0675 58.7398 19.0205 58.9749 18.9735C59.2007 18.9264 59.4311 18.9029 59.6662 18.9029C60.1271 18.9029 60.4516 18.9923 60.6397 19.171C60.8278 19.3591 60.9219 19.613 60.9219 19.9328V21.6822H59.116ZM67.722 18.1411C67.0542 18.1411 66.5134 18.0141 66.0995 17.7602C65.6951 17.5062 65.4082 17.1817 65.2389 16.7867H65.1261L64.9003 18H63.292V10.2688H65.4082V13.9651C65.4082 14.5012 65.4694 14.9432 65.5916 15.2912C65.7139 15.6298 65.8926 15.8838 66.1277 16.0531C66.3629 16.2224 66.645 16.307 66.9742 16.307C67.3693 16.307 67.6702 16.1895 67.8772 15.9543C68.0841 15.7192 68.1875 15.343 68.1875 14.8257V10.2688H70.3037V15.2912C70.3037 15.9026 70.205 16.4199 70.0075 16.8431C69.8194 17.2664 69.5325 17.5909 69.1469 17.8166C68.7613 18.0329 68.2863 18.1411 67.722 18.1411ZM68.4578 9.19655C68.0157 9.19655 67.6677 9.13071 67.4138 8.99904C67.1598 8.86736 66.9811 8.70277 66.8777 8.50525C66.7648 8.29833 66.7084 8.08201 66.7084 7.85628C66.7084 7.69639 66.7319 7.52709 66.7789 7.34839C66.8259 7.16028 66.8965 6.98628 66.9905 6.82639L68.5283 7.0239C68.5095 7.08974 68.4954 7.16028 68.486 7.23552C68.4672 7.30136 68.4578 7.3625 68.4578 7.41893C68.4578 7.5506 68.5001 7.65406 68.5848 7.72931C68.66 7.79515 68.7917 7.82806 68.9798 7.82806H72.013V9.19655H68.4578ZM75.5165 18.1411C74.6794 18.1411 74.0257 17.9718 73.5554 17.6332C73.0946 17.2852 72.7701 16.8055 72.582 16.1942C72.4033 15.5734 72.3139 14.8539 72.3139 14.0356C72.3139 13.1233 72.4033 12.3803 72.582 11.8065C72.7607 11.2328 73.0287 10.8096 73.3861 10.5368C73.753 10.2641 74.1997 10.1277 74.7264 10.1277C75.0556 10.1277 75.3425 10.1935 75.587 10.3252C75.841 10.4475 76.0432 10.6779 76.1937 11.0165H76.2501C76.3818 10.6685 76.5981 10.4334 76.8991 10.3111C77.2 10.1888 77.5245 10.1277 77.8725 10.1277C78.5215 10.1277 79.0059 10.3017 79.3257 10.6497C79.6548 10.9977 79.8194 11.5056 79.8194 12.1734V18H77.7032V12.5684C77.7032 12.2768 77.6562 12.0793 77.5621 11.9758C77.4681 11.8724 77.3411 11.8206 77.1812 11.8206C77.0025 11.8206 76.8661 11.8724 76.7721 11.9758C76.6874 12.0793 76.631 12.2533 76.6028 12.4978H75.7704C75.7328 12.2251 75.6623 12.0464 75.5588 11.9617C75.4553 11.8677 75.3331 11.8206 75.192 11.8206C74.9568 11.8206 74.7734 11.9899 74.6418 12.3285C74.5195 12.6671 74.4584 13.2409 74.4584 14.0497C74.4584 14.5764 74.496 15.0279 74.5712 15.4041C74.6559 15.7709 74.797 16.0531 74.9945 16.2506C75.192 16.4387 75.4741 16.5328 75.841 16.5328C75.9538 16.5328 76.0573 16.5281 76.1513 16.5186C76.2454 16.4998 76.3253 16.4763 76.3912 16.4481L76.6028 17.9577C76.4523 18.0235 76.2877 18.0705 76.109 18.0988C75.9303 18.127 75.7328 18.1411 75.5165 18.1411ZM73.1696 9.19655V8.30774L74.5945 7.7152H79.6311V9.19655H73.1696ZM83.9996 18.1411C83.5952 18.1411 83.2425 18.0752 82.9415 17.9436C82.65 17.8119 82.4195 17.6144 82.2502 17.351C82.0903 17.0783 82.0104 16.7397 82.0104 16.3352V15.4746C82.0104 14.9197 82.1327 14.5012 82.3772 14.219C82.6217 13.9369 82.9603 13.7299 83.393 13.5983L83.4071 13.5418L81.8693 12.9916V12.6248C81.8693 12.1639 82.0057 11.7407 82.2784 11.3551C82.5512 10.9695 82.9509 10.6638 83.4776 10.4381C84.0137 10.2029 84.6627 10.0854 85.4246 10.0854C86.1394 10.0854 86.7554 10.1982 87.2727 10.4239C87.7994 10.6403 88.2038 10.9695 88.486 11.4115C88.7776 11.8442 88.9234 12.3944 88.9234 13.0622V18H86.8071V13.1891C86.8071 12.7189 86.6802 12.3662 86.4262 12.131C86.1817 11.8959 85.829 11.7783 85.3681 11.7783C84.9355 11.7783 84.611 11.8724 84.3947 12.0605C84.1783 12.2392 84.0608 12.4602 84.042 12.7236L85.2694 13.2879L85.1283 14.1908C84.7803 14.2002 84.5169 14.2755 84.3382 14.4165C84.1595 14.5482 84.0702 14.8069 84.0702 15.1925V16.1095C84.0702 16.3164 84.1125 16.4669 84.1971 16.561C84.2912 16.6456 84.437 16.6879 84.6345 16.6879C84.7191 16.6879 84.8038 16.6832 84.8884 16.6738C84.9825 16.655 85.0624 16.6315 85.1283 16.6033L85.3258 17.8589C85.1471 17.953 84.9449 18.0235 84.7191 18.0705C84.4934 18.1176 84.2536 18.1411 83.9996 18.1411ZM94.1151 18.1834C92.9677 18.1834 92.1165 17.9059 91.5616 17.351C91.0067 16.7867 90.7292 15.9543 90.7292 14.8539C90.7292 14.6658 90.7339 14.4401 90.7433 14.1767C90.7621 13.9039 90.7856 13.6641 90.8138 13.4572H94.1998V14.7975H92.8031V14.995C92.8031 15.3712 92.8501 15.6816 92.9442 15.9261C93.0382 16.1612 93.1793 16.3352 93.3674 16.4481C93.5649 16.561 93.8095 16.6174 94.101 16.6174C94.4208 16.6174 94.6889 16.5469 94.9052 16.4058C95.1309 16.2647 95.3002 16.0249 95.4131 15.6863C95.5354 15.3477 95.5965 14.8821 95.5965 14.2896C95.5965 13.7346 95.5307 13.2738 95.399 12.907C95.2767 12.5308 95.0651 12.2486 94.7641 12.0605C94.4726 11.8724 94.0681 11.7783 93.5508 11.7783C93.2687 11.7783 92.9771 11.8112 92.6761 11.8771C92.3751 11.9335 92.0883 12.0088 91.8155 12.1028C91.5522 12.1969 91.3217 12.3003 91.1242 12.4132V10.6497C91.3311 10.5368 91.5851 10.4381 91.8861 10.3534C92.1964 10.2688 92.5303 10.2029 92.8877 10.1559C93.2451 10.1089 93.5978 10.0854 93.9458 10.0854C94.8582 10.0854 95.5918 10.2546 96.1467 10.5932C96.711 10.9224 97.1202 11.3927 97.3741 12.0041C97.6375 12.6154 97.7691 13.3396 97.7691 14.1767C97.7691 15.0326 97.6422 15.7615 97.3882 16.3635C97.1437 16.956 96.7534 17.4075 96.2173 17.7178C95.6811 18.0282 94.9804 18.1834 94.1151 18.1834ZM102.182 18.1411C101.608 18.1411 101.124 18.0329 100.729 17.8166C100.343 17.5909 100.047 17.257 99.8398 16.8149C99.6423 16.3729 99.5436 15.8321 99.5436 15.1925V10.2688H101.66V14.8257C101.66 15.343 101.763 15.7192 101.97 15.9543C102.177 16.1895 102.478 16.307 102.873 16.307C103.371 16.307 103.757 16.1189 104.03 15.7427C104.303 15.3571 104.439 14.7645 104.439 13.9651V10.2688H106.555V18H104.947L104.721 16.8149H104.594C104.434 17.1911 104.157 17.5062 103.762 17.7602C103.376 18.0141 102.849 18.1411 102.182 18.1411Z" fill="#FFCA11"/>
</g>
<defs>
<filter id="filter0_f_1623_5473" x="0.824324" y="0.824324" width="115.351" height="26.3514" filterUnits="userSpaceOnUse" color-interpolation-filters="sRGB">
<feFlood flood-opacity="0" result="BackgroundImageFix"/>
<feBlend mode="normal" in="SourceGraphic" in2="BackgroundImageFix" result="shape"/>
<feGaussianBlur stdDeviation="0.587838" result="effect1_foregroundBlur_1623_5473"/>
</filter>
<clipPath id="clip0_1623_5473">
<rect width="117" height="28" fill="white"/>
</clipPath>
</defs>
</svg>
